; NON-PLATED HOLES START AT T1
; THROUGH (PLATED) HOLES START AT T100
M48
INCH
T1C0.039361
T2C0.125972
T100C0.038000
T101C0.038417
T102C0.035000
T103C0.053000
T104C0.078736
T105C0.038444
T106C0.035433
%
T1
X003812Y006840
X003853Y003099
X003853Y001130
X003812Y004871
T2
X037154Y005385
X028099Y015228
X028492Y010897
X037154Y016409
T100
X003566Y008909
X002566Y008909
X001566Y008909
T101
X017007Y001096
X018008Y001096
X011008Y001096
X012008Y001096
X020008Y001096
X021008Y001096
X013008Y001096
X014008Y001096
X022007Y001096
X023008Y001096
X024008Y001096
X015008Y001096
X016008Y001096
X025008Y001096
T102
X033281Y013498
X033272Y010072
X036192Y005778
X033272Y011844
X009610Y008621
X033285Y006600
X033192Y005778
X035840Y013498
X006610Y008621
X035831Y010072
X035831Y011844
X033274Y003137
X033274Y004909
X035844Y008372
X035833Y003137
X009610Y007621
X035833Y004909
X036289Y012667
X033135Y016167
X006610Y007621
X033281Y015270
X033289Y012667
X033285Y008372
X009610Y009621
X035840Y015270
X036289Y009223
X009610Y006621
X006610Y009621
X035844Y006600
X033289Y009223
X006610Y006621
X036135Y016167
T103
X030654Y018699
X030650Y009995
X008514Y014265
X029665Y010979
X030654Y016731
X030654Y007626
X029677Y004253
X030650Y010979
X030654Y008610
X030650Y011963
X030654Y006642
X030653Y014369
X030653Y015353
X030661Y005237
X030653Y013385
X030661Y003269
X029670Y007626
X030661Y004253
X029669Y017715
X008514Y015249
X029669Y014369
X007529Y015249
X030654Y017715
X008514Y016233
T104
X005092Y006761
X030303Y000976
X002476Y003236
X002434Y006978
X035343Y000976
X005133Y003020
X005092Y004950
X002475Y000992
X002434Y004734
X005133Y001209
T105
X018008Y020096
X019008Y020096
X012408Y020096
X013408Y020096
X020008Y020096
X014408Y020096
X021008Y020096
X022007Y020096
X015408Y020096
X023008Y020096
X024008Y020096
X007407Y020096
X008408Y020096
X016407Y020096
X010408Y020096
X025008Y020096
X011408Y020096
X009408Y020096
T106
X009337Y002795
X007887Y011099
X026957Y009339
X026841Y005973
X003628Y010173
X006924Y011099
X026823Y012682
X026823Y016089
X000876Y017917
T00
M30
