G04 MADE WITH FRITZING*
G04 WWW.FRITZING.ORG*
G04 DOUBLE SIDED*
G04 HOLES PLATED*
G04 CONTOUR ON CENTER OF CONTOUR VECTOR*
%ASAXBY*%
%FSLAX23Y23*%
%MOIN*%
%OFA0B0*%
%SFA1.0B1.0*%
%ADD10C,0.085000*%
%ADD11C,0.076194*%
%ADD12C,0.076222*%
%ADD13C,0.139986*%
%ADD14C,0.135972*%
%ADD15C,0.097000*%
%ADD16C,0.088000*%
%ADD17C,0.049361*%
%ADD18C,0.085433*%
%ADD19R,0.084803X0.072992*%
%ADD20R,0.053307X0.057244*%
%ADD21R,0.057244X0.053307*%
%ADD22R,0.140000X0.139986*%
%ADD23R,0.072992X0.084803*%
%ADD24R,0.097000X0.097000*%
%ADD25R,0.088000X0.088000*%
%ADD26R,0.147805X0.080889*%
%ADD27R,0.147833X0.080889*%
%ADD28R,0.085000X0.085000*%
%ADD29C,0.010000*%
%LNMASK1*%
G90*
G70*
G54D10*
X3314Y1617D03*
X3614Y1617D03*
X3329Y1267D03*
X3629Y1267D03*
X3329Y922D03*
X3629Y922D03*
X3319Y578D03*
X3619Y578D03*
G54D11*
X2101Y110D03*
X2201Y110D03*
X2301Y110D03*
X2401Y110D03*
X2501Y110D03*
G54D12*
X1641Y2010D03*
X1541Y2010D03*
X1441Y2010D03*
X1341Y2010D03*
X1241Y2010D03*
X1141Y2010D03*
X1041Y2010D03*
X941Y2010D03*
X841Y2010D03*
X741Y2010D03*
X2501Y2010D03*
X2401Y2010D03*
X2301Y2010D03*
X2201Y2010D03*
X2101Y2010D03*
X2001Y2010D03*
X1901Y2010D03*
X1801Y2010D03*
G54D11*
X1201Y110D03*
X1101Y110D03*
X1301Y110D03*
X1401Y110D03*
X1501Y110D03*
X1601Y110D03*
X1701Y110D03*
X1801Y110D03*
X2001Y110D03*
G54D13*
X3030Y98D03*
X3534Y98D03*
G54D14*
X3715Y1641D03*
X3715Y539D03*
X2849Y1090D03*
X2810Y1523D03*
G54D15*
X851Y1623D03*
X851Y1427D03*
X753Y1525D03*
X851Y1525D03*
G54D16*
X157Y891D03*
X257Y891D03*
X357Y891D03*
G54D15*
X3066Y524D03*
X3066Y327D03*
X2968Y425D03*
X3066Y425D03*
X3065Y861D03*
X3065Y664D03*
X2967Y763D03*
X3065Y763D03*
X3065Y1196D03*
X3065Y1000D03*
X2967Y1098D03*
X3065Y1098D03*
X3065Y1535D03*
X3065Y1339D03*
X2967Y1437D03*
X3065Y1437D03*
X3065Y1870D03*
X3065Y1673D03*
X2967Y1772D03*
X3065Y1772D03*
G54D10*
X3583Y314D03*
X3327Y314D03*
X3583Y491D03*
X3327Y491D03*
X3584Y660D03*
X3329Y660D03*
X3584Y837D03*
X3329Y837D03*
X3583Y1007D03*
X3327Y1007D03*
X3583Y1184D03*
X3327Y1184D03*
X3584Y1350D03*
X3328Y1350D03*
X3584Y1527D03*
X3328Y1527D03*
X961Y662D03*
X661Y662D03*
X961Y762D03*
X661Y762D03*
X961Y862D03*
X661Y862D03*
X961Y962D03*
X661Y962D03*
G54D13*
X243Y473D03*
X243Y698D03*
X509Y495D03*
X509Y676D03*
G54D17*
X381Y684D03*
X381Y487D03*
G54D13*
X248Y99D03*
X248Y324D03*
X513Y121D03*
X513Y302D03*
G54D17*
X385Y310D03*
X385Y113D03*
G54D18*
X88Y1792D03*
X789Y1110D03*
X692Y1110D03*
X363Y1017D03*
X934Y280D03*
X2682Y1609D03*
X2682Y1268D03*
X2696Y934D03*
X2684Y597D03*
G54D19*
X936Y379D03*
X936Y501D03*
G54D20*
X613Y1776D03*
X613Y1843D03*
G54D21*
X792Y1307D03*
X859Y1307D03*
G54D19*
X260Y1906D03*
X260Y2028D03*
X410Y1725D03*
X410Y1847D03*
G54D21*
X419Y2029D03*
X352Y2029D03*
G54D22*
X3030Y98D03*
G54D23*
X646Y397D03*
X768Y397D03*
G54D20*
X950Y1299D03*
X950Y1232D03*
G54D21*
X412Y1935D03*
X479Y1935D03*
G54D20*
X510Y1847D03*
X510Y1781D03*
G54D21*
X159Y2033D03*
X92Y2033D03*
X578Y2030D03*
X511Y2030D03*
X91Y1931D03*
X158Y1931D03*
G54D20*
X732Y279D03*
X732Y212D03*
G54D21*
X807Y500D03*
X740Y500D03*
G54D24*
X851Y1427D03*
G54D25*
X157Y891D03*
G54D26*
X144Y1101D03*
X144Y1640D03*
G54D27*
X538Y1640D03*
X538Y1101D03*
G54D24*
X3066Y327D03*
X3065Y664D03*
X3065Y1000D03*
X3065Y1339D03*
X3065Y1673D03*
G54D28*
X961Y662D03*
G54D29*
G36*
X839Y258D02*
X796Y258D01*
X796Y305D01*
X839Y305D01*
X839Y258D01*
G37*
D02*
G36*
X839Y191D02*
X796Y191D01*
X796Y238D01*
X839Y238D01*
X839Y191D01*
G37*
D02*
G04 End of Mask1*
M02*