G04 MADE WITH FRITZING*
G04 WWW.FRITZING.ORG*
G04 DOUBLE SIDED*
G04 HOLES PLATED*
G04 CONTOUR ON CENTER OF CONTOUR VECTOR*
%ASAXBY*%
%FSLAX23Y23*%
%MOIN*%
%OFA0B0*%
%SFA1.0B1.0*%
%ADD10C,0.008*%
%LNCONTOUR*%
G90*
G70*
G54D10*
X51Y2099D02*
X52Y2099D01*
X53Y2099D01*
X54Y2099D01*
X55Y2099D01*
X56Y2099D01*
X57Y2099D01*
X58Y2099D01*
X59Y2099D01*
X60Y2099D01*
X61Y2099D01*
X62Y2099D01*
X63Y2099D01*
X64Y2099D01*
X65Y2099D01*
X66Y2099D01*
X67Y2099D01*
X68Y2099D01*
X69Y2099D01*
X70Y2099D01*
X71Y2099D01*
X72Y2099D01*
X73Y2099D01*
X74Y2099D01*
X75Y2099D01*
X76Y2099D01*
X77Y2099D01*
X78Y2099D01*
X79Y2099D01*
X80Y2099D01*
X81Y2099D01*
X82Y2099D01*
X83Y2099D01*
X84Y2099D01*
X85Y2099D01*
X86Y2099D01*
X87Y2099D01*
X88Y2099D01*
X89Y2099D01*
X90Y2099D01*
X91Y2099D01*
X92Y2099D01*
X93Y2099D01*
X94Y2099D01*
X95Y2099D01*
X96Y2099D01*
X97Y2099D01*
X98Y2099D01*
X99Y2099D01*
X100Y2099D01*
X101Y2099D01*
X102Y2099D01*
X103Y2099D01*
X104Y2099D01*
X105Y2099D01*
X106Y2099D01*
X107Y2099D01*
X108Y2099D01*
X109Y2099D01*
X110Y2099D01*
X111Y2099D01*
X112Y2099D01*
X113Y2099D01*
X114Y2099D01*
X115Y2099D01*
X116Y2099D01*
X117Y2099D01*
X118Y2099D01*
X119Y2099D01*
X120Y2099D01*
X121Y2099D01*
X122Y2099D01*
X123Y2099D01*
X124Y2099D01*
X125Y2099D01*
X126Y2099D01*
X127Y2099D01*
X128Y2099D01*
X129Y2099D01*
X130Y2099D01*
X131Y2099D01*
X132Y2099D01*
X133Y2099D01*
X134Y2099D01*
X135Y2099D01*
X136Y2099D01*
X137Y2099D01*
X138Y2099D01*
X139Y2099D01*
X140Y2099D01*
X141Y2099D01*
X142Y2099D01*
X143Y2099D01*
X144Y2099D01*
X145Y2099D01*
X146Y2099D01*
X147Y2099D01*
X148Y2099D01*
X149Y2099D01*
X150Y2099D01*
X151Y2099D01*
X152Y2099D01*
X153Y2099D01*
X154Y2099D01*
X155Y2099D01*
X156Y2099D01*
X157Y2099D01*
X158Y2099D01*
X159Y2099D01*
X160Y2099D01*
X161Y2099D01*
X162Y2099D01*
X163Y2099D01*
X164Y2099D01*
X165Y2099D01*
X166Y2099D01*
X167Y2099D01*
X168Y2099D01*
X169Y2099D01*
X170Y2099D01*
X171Y2099D01*
X172Y2099D01*
X173Y2099D01*
X174Y2099D01*
X175Y2099D01*
X176Y2099D01*
X177Y2099D01*
X178Y2099D01*
X179Y2099D01*
X180Y2099D01*
X181Y2099D01*
X182Y2099D01*
X183Y2099D01*
X184Y2099D01*
X185Y2099D01*
X186Y2099D01*
X187Y2099D01*
X188Y2099D01*
X189Y2099D01*
X190Y2099D01*
X191Y2099D01*
X192Y2099D01*
X193Y2099D01*
X194Y2099D01*
X195Y2099D01*
X196Y2099D01*
X197Y2099D01*
X198Y2099D01*
X199Y2099D01*
X200Y2099D01*
X201Y2099D01*
X202Y2099D01*
X203Y2099D01*
X204Y2099D01*
X205Y2099D01*
X206Y2099D01*
X207Y2099D01*
X208Y2099D01*
X209Y2099D01*
X210Y2099D01*
X211Y2099D01*
X212Y2099D01*
X213Y2099D01*
X214Y2099D01*
X215Y2099D01*
X216Y2099D01*
X217Y2099D01*
X218Y2099D01*
X219Y2099D01*
X220Y2099D01*
X221Y2099D01*
X222Y2099D01*
X223Y2099D01*
X224Y2099D01*
X225Y2099D01*
X226Y2099D01*
X227Y2099D01*
X228Y2099D01*
X229Y2099D01*
X230Y2099D01*
X231Y2099D01*
X232Y2099D01*
X233Y2099D01*
X234Y2099D01*
X235Y2099D01*
X236Y2099D01*
X237Y2099D01*
X238Y2099D01*
X239Y2099D01*
X240Y2099D01*
X241Y2099D01*
X242Y2099D01*
X243Y2099D01*
X244Y2099D01*
X245Y2099D01*
X246Y2099D01*
X247Y2099D01*
X248Y2099D01*
X249Y2099D01*
X250Y2099D01*
X251Y2099D01*
X252Y2099D01*
X253Y2099D01*
X254Y2099D01*
X255Y2099D01*
X256Y2099D01*
X257Y2099D01*
X258Y2099D01*
X259Y2099D01*
X260Y2099D01*
X261Y2099D01*
X262Y2099D01*
X263Y2099D01*
X264Y2099D01*
X265Y2099D01*
X266Y2099D01*
X267Y2099D01*
X268Y2099D01*
X269Y2099D01*
X270Y2099D01*
X271Y2099D01*
X272Y2099D01*
X273Y2099D01*
X274Y2099D01*
X275Y2099D01*
X276Y2099D01*
X277Y2099D01*
X278Y2099D01*
X279Y2099D01*
X280Y2099D01*
X281Y2099D01*
X282Y2099D01*
X283Y2099D01*
X284Y2099D01*
X285Y2099D01*
X286Y2099D01*
X287Y2099D01*
X288Y2099D01*
X289Y2099D01*
X290Y2099D01*
X291Y2099D01*
X292Y2099D01*
X293Y2099D01*
X294Y2099D01*
X295Y2099D01*
X296Y2099D01*
X297Y2099D01*
X298Y2099D01*
X299Y2099D01*
X300Y2099D01*
X301Y2099D01*
X302Y2099D01*
X303Y2099D01*
X304Y2099D01*
X305Y2099D01*
X306Y2099D01*
X307Y2099D01*
X308Y2099D01*
X309Y2099D01*
X310Y2099D01*
X311Y2099D01*
X312Y2099D01*
X313Y2099D01*
X314Y2099D01*
X315Y2099D01*
X316Y2099D01*
X317Y2099D01*
X318Y2099D01*
X319Y2099D01*
X320Y2099D01*
X321Y2099D01*
X322Y2099D01*
X323Y2099D01*
X324Y2099D01*
X325Y2099D01*
X326Y2099D01*
X327Y2099D01*
X328Y2099D01*
X329Y2099D01*
X330Y2099D01*
X331Y2099D01*
X332Y2099D01*
X333Y2099D01*
X334Y2099D01*
X335Y2099D01*
X336Y2099D01*
X337Y2099D01*
X338Y2099D01*
X339Y2099D01*
X340Y2099D01*
X341Y2099D01*
X342Y2099D01*
X343Y2099D01*
X344Y2099D01*
X345Y2099D01*
X346Y2099D01*
X347Y2099D01*
X348Y2099D01*
X349Y2099D01*
X350Y2099D01*
X351Y2099D01*
X352Y2099D01*
X353Y2099D01*
X354Y2099D01*
X355Y2099D01*
X356Y2099D01*
X357Y2099D01*
X358Y2099D01*
X359Y2099D01*
X360Y2099D01*
X361Y2099D01*
X362Y2099D01*
X363Y2099D01*
X364Y2099D01*
X365Y2099D01*
X366Y2099D01*
X367Y2099D01*
X368Y2099D01*
X369Y2099D01*
X370Y2099D01*
X371Y2099D01*
X372Y2099D01*
X373Y2099D01*
X374Y2099D01*
X375Y2099D01*
X376Y2099D01*
X377Y2099D01*
X378Y2099D01*
X379Y2099D01*
X380Y2099D01*
X381Y2099D01*
X382Y2099D01*
X383Y2099D01*
X384Y2099D01*
X385Y2099D01*
X386Y2099D01*
X387Y2099D01*
X388Y2099D01*
X389Y2099D01*
X390Y2099D01*
X391Y2099D01*
X392Y2099D01*
X393Y2099D01*
X394Y2099D01*
X395Y2099D01*
X396Y2099D01*
X397Y2099D01*
X398Y2099D01*
X399Y2099D01*
X400Y2099D01*
X401Y2099D01*
X402Y2099D01*
X403Y2099D01*
X404Y2099D01*
X405Y2099D01*
X406Y2099D01*
X407Y2099D01*
X408Y2099D01*
X409Y2099D01*
X410Y2099D01*
X411Y2099D01*
X412Y2099D01*
X413Y2099D01*
X414Y2099D01*
X415Y2099D01*
X416Y2099D01*
X417Y2099D01*
X418Y2099D01*
X419Y2099D01*
X420Y2099D01*
X421Y2099D01*
X422Y2099D01*
X423Y2099D01*
X424Y2099D01*
X425Y2099D01*
X426Y2099D01*
X427Y2099D01*
X428Y2099D01*
X429Y2099D01*
X430Y2099D01*
X431Y2099D01*
X432Y2099D01*
X433Y2099D01*
X434Y2099D01*
X435Y2099D01*
X436Y2099D01*
X437Y2099D01*
X438Y2099D01*
X439Y2099D01*
X440Y2099D01*
X441Y2099D01*
X442Y2099D01*
X443Y2099D01*
X444Y2099D01*
X445Y2099D01*
X446Y2099D01*
X447Y2099D01*
X448Y2099D01*
X449Y2099D01*
X450Y2099D01*
X451Y2099D01*
X452Y2099D01*
X453Y2099D01*
X454Y2099D01*
X455Y2099D01*
X456Y2099D01*
X457Y2099D01*
X458Y2099D01*
X459Y2099D01*
X460Y2099D01*
X461Y2099D01*
X462Y2099D01*
X463Y2099D01*
X464Y2099D01*
X465Y2099D01*
X466Y2099D01*
X467Y2099D01*
X468Y2099D01*
X469Y2099D01*
X470Y2099D01*
X471Y2099D01*
X472Y2099D01*
X473Y2099D01*
X474Y2099D01*
X475Y2099D01*
X476Y2099D01*
X477Y2099D01*
X478Y2099D01*
X479Y2099D01*
X480Y2099D01*
X481Y2099D01*
X482Y2099D01*
X483Y2099D01*
X484Y2099D01*
X485Y2099D01*
X486Y2099D01*
X487Y2099D01*
X488Y2099D01*
X489Y2099D01*
X490Y2099D01*
X491Y2099D01*
X492Y2099D01*
X493Y2099D01*
X494Y2099D01*
X495Y2099D01*
X496Y2099D01*
X497Y2099D01*
X498Y2099D01*
X499Y2099D01*
X500Y2099D01*
X501Y2099D01*
X502Y2099D01*
X503Y2099D01*
X504Y2099D01*
X505Y2099D01*
X506Y2099D01*
X507Y2099D01*
X508Y2099D01*
X509Y2099D01*
X510Y2099D01*
X511Y2099D01*
X512Y2099D01*
X513Y2099D01*
X514Y2099D01*
X515Y2099D01*
X516Y2099D01*
X517Y2099D01*
X518Y2099D01*
X519Y2099D01*
X520Y2099D01*
X521Y2099D01*
X522Y2099D01*
X523Y2099D01*
X524Y2099D01*
X525Y2099D01*
X526Y2099D01*
X527Y2099D01*
X528Y2099D01*
X529Y2099D01*
X530Y2099D01*
X531Y2099D01*
X532Y2099D01*
X533Y2099D01*
X534Y2099D01*
X535Y2099D01*
X536Y2099D01*
X537Y2099D01*
X538Y2099D01*
X539Y2099D01*
X540Y2099D01*
X541Y2099D01*
X542Y2099D01*
X543Y2099D01*
X544Y2099D01*
X545Y2099D01*
X546Y2099D01*
X547Y2099D01*
X548Y2099D01*
X549Y2099D01*
X550Y2099D01*
X551Y2099D01*
X552Y2099D01*
X553Y2099D01*
X554Y2099D01*
X555Y2099D01*
X556Y2099D01*
X557Y2099D01*
X558Y2099D01*
X559Y2099D01*
X560Y2099D01*
X561Y2099D01*
X562Y2099D01*
X563Y2099D01*
X564Y2099D01*
X565Y2099D01*
X566Y2099D01*
X567Y2099D01*
X568Y2099D01*
X569Y2099D01*
X570Y2099D01*
X571Y2099D01*
X572Y2099D01*
X573Y2099D01*
X574Y2099D01*
X575Y2099D01*
X576Y2099D01*
X577Y2099D01*
X578Y2099D01*
X579Y2099D01*
X580Y2099D01*
X581Y2099D01*
X582Y2099D01*
X583Y2099D01*
X584Y2099D01*
X585Y2099D01*
X586Y2099D01*
X587Y2099D01*
X588Y2099D01*
X589Y2099D01*
X590Y2099D01*
X591Y2099D01*
X592Y2099D01*
X593Y2099D01*
X594Y2099D01*
X595Y2099D01*
X596Y2099D01*
X597Y2099D01*
X598Y2099D01*
X599Y2099D01*
X600Y2099D01*
X601Y2099D01*
X602Y2099D01*
X603Y2099D01*
X604Y2099D01*
X605Y2099D01*
X606Y2099D01*
X607Y2099D01*
X608Y2099D01*
X609Y2099D01*
X610Y2099D01*
X611Y2099D01*
X612Y2099D01*
X613Y2099D01*
X614Y2099D01*
X615Y2099D01*
X616Y2099D01*
X617Y2099D01*
X618Y2099D01*
X619Y2099D01*
X620Y2099D01*
X621Y2099D01*
X622Y2099D01*
X623Y2099D01*
X624Y2099D01*
X625Y2099D01*
X626Y2099D01*
X627Y2099D01*
X628Y2099D01*
X629Y2099D01*
X630Y2099D01*
X631Y2099D01*
X632Y2099D01*
X633Y2099D01*
X634Y2099D01*
X635Y2099D01*
X636Y2099D01*
X637Y2099D01*
X638Y2099D01*
X639Y2099D01*
X640Y2099D01*
X641Y2099D01*
X642Y2099D01*
X643Y2099D01*
X644Y2099D01*
X645Y2099D01*
X646Y2099D01*
X647Y2099D01*
X648Y2099D01*
X649Y2099D01*
X650Y2099D01*
X651Y2099D01*
X652Y2099D01*
X653Y2099D01*
X654Y2099D01*
X655Y2099D01*
X656Y2099D01*
X657Y2099D01*
X658Y2099D01*
X659Y2099D01*
X660Y2099D01*
X661Y2099D01*
X662Y2099D01*
X663Y2099D01*
X664Y2099D01*
X665Y2099D01*
X666Y2099D01*
X667Y2099D01*
X668Y2099D01*
X669Y2099D01*
X670Y2099D01*
X671Y2099D01*
X672Y2099D01*
X673Y2099D01*
X674Y2099D01*
X675Y2099D01*
X676Y2099D01*
X677Y2099D01*
X678Y2099D01*
X679Y2099D01*
X680Y2099D01*
X681Y2099D01*
X682Y2099D01*
X683Y2099D01*
X684Y2099D01*
X685Y2099D01*
X686Y2099D01*
X687Y2099D01*
X688Y2099D01*
X689Y2099D01*
X690Y2099D01*
X691Y2099D01*
X692Y2099D01*
X693Y2099D01*
X694Y2099D01*
X695Y2099D01*
X696Y2099D01*
X697Y2099D01*
X698Y2099D01*
X699Y2099D01*
X700Y2099D01*
X701Y2099D01*
X702Y2099D01*
X703Y2099D01*
X704Y2099D01*
X705Y2099D01*
X706Y2099D01*
X707Y2099D01*
X708Y2099D01*
X709Y2099D01*
X710Y2099D01*
X711Y2099D01*
X712Y2099D01*
X713Y2099D01*
X714Y2099D01*
X715Y2099D01*
X716Y2099D01*
X717Y2099D01*
X718Y2099D01*
X719Y2099D01*
X720Y2099D01*
X721Y2099D01*
X722Y2099D01*
X723Y2099D01*
X724Y2099D01*
X725Y2099D01*
X726Y2099D01*
X727Y2099D01*
X728Y2099D01*
X729Y2099D01*
X730Y2099D01*
X731Y2099D01*
X732Y2099D01*
X733Y2099D01*
X734Y2099D01*
X735Y2099D01*
X736Y2099D01*
X737Y2099D01*
X738Y2099D01*
X739Y2099D01*
X740Y2099D01*
X741Y2099D01*
X742Y2099D01*
X743Y2099D01*
X744Y2099D01*
X745Y2099D01*
X746Y2099D01*
X747Y2099D01*
X748Y2099D01*
X749Y2099D01*
X750Y2099D01*
X751Y2099D01*
X752Y2099D01*
X753Y2099D01*
X754Y2099D01*
X755Y2099D01*
X756Y2099D01*
X757Y2099D01*
X758Y2099D01*
X759Y2099D01*
X760Y2099D01*
X761Y2099D01*
X762Y2099D01*
X763Y2099D01*
X764Y2099D01*
X765Y2099D01*
X766Y2099D01*
X767Y2099D01*
X768Y2099D01*
X769Y2099D01*
X770Y2099D01*
X771Y2099D01*
X772Y2099D01*
X773Y2099D01*
X774Y2099D01*
X775Y2099D01*
X776Y2099D01*
X777Y2099D01*
X778Y2099D01*
X779Y2099D01*
X780Y2099D01*
X781Y2099D01*
X782Y2099D01*
X783Y2099D01*
X784Y2099D01*
X785Y2099D01*
X786Y2099D01*
X787Y2099D01*
X788Y2099D01*
X789Y2099D01*
X790Y2099D01*
X791Y2099D01*
X792Y2099D01*
X793Y2099D01*
X794Y2099D01*
X795Y2099D01*
X796Y2099D01*
X797Y2099D01*
X798Y2099D01*
X799Y2099D01*
X800Y2099D01*
X801Y2099D01*
X802Y2099D01*
X803Y2099D01*
X804Y2099D01*
X805Y2099D01*
X806Y2099D01*
X807Y2099D01*
X808Y2099D01*
X809Y2099D01*
X810Y2099D01*
X811Y2099D01*
X812Y2099D01*
X813Y2099D01*
X814Y2099D01*
X815Y2099D01*
X816Y2099D01*
X817Y2099D01*
X818Y2099D01*
X819Y2099D01*
X820Y2099D01*
X821Y2099D01*
X822Y2099D01*
X823Y2099D01*
X824Y2099D01*
X825Y2099D01*
X826Y2099D01*
X827Y2099D01*
X828Y2099D01*
X829Y2099D01*
X830Y2099D01*
X831Y2099D01*
X832Y2099D01*
X833Y2099D01*
X834Y2099D01*
X835Y2099D01*
X836Y2099D01*
X837Y2099D01*
X838Y2099D01*
X839Y2099D01*
X840Y2099D01*
X841Y2099D01*
X842Y2099D01*
X843Y2099D01*
X844Y2099D01*
X845Y2099D01*
X846Y2099D01*
X847Y2099D01*
X848Y2099D01*
X849Y2099D01*
X850Y2099D01*
X851Y2099D01*
X852Y2099D01*
X853Y2099D01*
X854Y2099D01*
X855Y2099D01*
X856Y2099D01*
X857Y2099D01*
X858Y2099D01*
X859Y2099D01*
X860Y2099D01*
X861Y2099D01*
X862Y2099D01*
X863Y2099D01*
X864Y2099D01*
X865Y2099D01*
X866Y2099D01*
X867Y2099D01*
X868Y2099D01*
X869Y2099D01*
X870Y2099D01*
X871Y2099D01*
X872Y2099D01*
X873Y2099D01*
X874Y2099D01*
X875Y2099D01*
X876Y2099D01*
X877Y2099D01*
X878Y2099D01*
X879Y2099D01*
X880Y2099D01*
X881Y2099D01*
X882Y2099D01*
X883Y2099D01*
X884Y2099D01*
X885Y2099D01*
X886Y2099D01*
X887Y2099D01*
X888Y2099D01*
X889Y2099D01*
X890Y2099D01*
X891Y2099D01*
X892Y2099D01*
X893Y2099D01*
X894Y2099D01*
X895Y2099D01*
X896Y2099D01*
X897Y2099D01*
X898Y2099D01*
X899Y2099D01*
X900Y2099D01*
X901Y2099D01*
X902Y2099D01*
X903Y2099D01*
X904Y2099D01*
X905Y2099D01*
X906Y2099D01*
X907Y2099D01*
X908Y2099D01*
X909Y2099D01*
X910Y2099D01*
X911Y2099D01*
X912Y2099D01*
X913Y2099D01*
X914Y2099D01*
X915Y2099D01*
X916Y2099D01*
X917Y2099D01*
X918Y2099D01*
X919Y2099D01*
X920Y2099D01*
X921Y2099D01*
X922Y2099D01*
X923Y2099D01*
X924Y2099D01*
X925Y2099D01*
X926Y2099D01*
X927Y2099D01*
X928Y2099D01*
X929Y2099D01*
X930Y2099D01*
X931Y2099D01*
X932Y2099D01*
X933Y2099D01*
X934Y2099D01*
X935Y2099D01*
X936Y2099D01*
X937Y2099D01*
X938Y2099D01*
X939Y2099D01*
X940Y2099D01*
X941Y2099D01*
X942Y2099D01*
X943Y2099D01*
X944Y2099D01*
X945Y2099D01*
X946Y2099D01*
X947Y2099D01*
X948Y2099D01*
X949Y2099D01*
X950Y2099D01*
X951Y2099D01*
X952Y2099D01*
X953Y2099D01*
X954Y2099D01*
X955Y2099D01*
X956Y2099D01*
X957Y2099D01*
X958Y2099D01*
X959Y2099D01*
X960Y2099D01*
X961Y2099D01*
X962Y2099D01*
X963Y2099D01*
X964Y2099D01*
X965Y2099D01*
X966Y2099D01*
X967Y2099D01*
X968Y2099D01*
X969Y2099D01*
X970Y2099D01*
X971Y2099D01*
X972Y2099D01*
X973Y2099D01*
X974Y2099D01*
X975Y2099D01*
X976Y2099D01*
X977Y2099D01*
X978Y2099D01*
X979Y2099D01*
X980Y2099D01*
X981Y2099D01*
X982Y2099D01*
X983Y2099D01*
X984Y2099D01*
X985Y2099D01*
X986Y2099D01*
X987Y2099D01*
X988Y2099D01*
X989Y2099D01*
X990Y2099D01*
X991Y2099D01*
X992Y2099D01*
X993Y2099D01*
X994Y2099D01*
X995Y2099D01*
X996Y2099D01*
X997Y2099D01*
X998Y2099D01*
X999Y2099D01*
X1000Y2099D01*
X1001Y2099D01*
X1002Y2099D01*
X1003Y2099D01*
X1004Y2099D01*
X1005Y2099D01*
X1006Y2099D01*
X1007Y2099D01*
X1008Y2099D01*
X1009Y2099D01*
X1010Y2099D01*
X1011Y2099D01*
X1012Y2099D01*
X1013Y2099D01*
X1014Y2099D01*
X1015Y2099D01*
X1016Y2099D01*
X1017Y2099D01*
X1018Y2099D01*
X1019Y2099D01*
X1020Y2099D01*
X1021Y2099D01*
X1022Y2099D01*
X1023Y2099D01*
X1024Y2099D01*
X1025Y2099D01*
X1026Y2099D01*
X1027Y2099D01*
X1028Y2099D01*
X1029Y2099D01*
X1030Y2099D01*
X1031Y2099D01*
X1032Y2099D01*
X1033Y2099D01*
X1034Y2099D01*
X1035Y2099D01*
X1036Y2099D01*
X1037Y2099D01*
X1038Y2099D01*
X1039Y2099D01*
X1040Y2099D01*
X1041Y2099D01*
X1042Y2099D01*
X1043Y2099D01*
X1044Y2099D01*
X1045Y2099D01*
X1046Y2099D01*
X1047Y2099D01*
X1048Y2099D01*
X1049Y2099D01*
X1050Y2099D01*
X1051Y2099D01*
X1052Y2099D01*
X1053Y2099D01*
X1054Y2099D01*
X1055Y2099D01*
X1056Y2099D01*
X1057Y2099D01*
X1058Y2099D01*
X1059Y2099D01*
X1060Y2099D01*
X1061Y2099D01*
X1062Y2099D01*
X1063Y2099D01*
X1064Y2099D01*
X1065Y2099D01*
X1066Y2099D01*
X1067Y2099D01*
X1068Y2099D01*
X1069Y2099D01*
X1070Y2099D01*
X1071Y2099D01*
X1072Y2099D01*
X1073Y2099D01*
X1074Y2099D01*
X1075Y2099D01*
X1076Y2099D01*
X1077Y2099D01*
X1078Y2099D01*
X1079Y2099D01*
X1080Y2099D01*
X1081Y2099D01*
X1082Y2099D01*
X1083Y2099D01*
X1084Y2099D01*
X1085Y2099D01*
X1086Y2099D01*
X1087Y2099D01*
X1088Y2099D01*
X1089Y2099D01*
X1090Y2099D01*
X1091Y2099D01*
X1092Y2099D01*
X1093Y2099D01*
X1094Y2099D01*
X1095Y2099D01*
X1096Y2099D01*
X1097Y2099D01*
X1098Y2099D01*
X1099Y2099D01*
X1100Y2099D01*
X1101Y2099D01*
X1102Y2099D01*
X1103Y2099D01*
X1104Y2099D01*
X1105Y2099D01*
X1106Y2099D01*
X1107Y2099D01*
X1108Y2099D01*
X1109Y2099D01*
X1110Y2099D01*
X1111Y2099D01*
X1112Y2099D01*
X1113Y2099D01*
X1114Y2099D01*
X1115Y2099D01*
X1116Y2099D01*
X1117Y2099D01*
X1118Y2099D01*
X1119Y2099D01*
X1120Y2099D01*
X1121Y2099D01*
X1122Y2099D01*
X1123Y2099D01*
X1124Y2099D01*
X1125Y2099D01*
X1126Y2099D01*
X1127Y2099D01*
X1128Y2099D01*
X1129Y2099D01*
X1130Y2099D01*
X1131Y2099D01*
X1132Y2099D01*
X1133Y2099D01*
X1134Y2099D01*
X1135Y2099D01*
X1136Y2099D01*
X1137Y2099D01*
X1138Y2099D01*
X1139Y2099D01*
X1140Y2099D01*
X1141Y2099D01*
X1142Y2099D01*
X1143Y2099D01*
X1144Y2099D01*
X1145Y2099D01*
X1146Y2099D01*
X1147Y2099D01*
X1148Y2099D01*
X1149Y2099D01*
X1150Y2099D01*
X1151Y2099D01*
X1152Y2099D01*
X1153Y2099D01*
X1154Y2099D01*
X1155Y2099D01*
X1156Y2099D01*
X1157Y2099D01*
X1158Y2099D01*
X1159Y2099D01*
X1160Y2099D01*
X1161Y2099D01*
X1162Y2099D01*
X1163Y2099D01*
X1164Y2099D01*
X1165Y2099D01*
X1166Y2099D01*
X1167Y2099D01*
X1168Y2099D01*
X1169Y2099D01*
X1170Y2099D01*
X1171Y2099D01*
X1172Y2099D01*
X1173Y2099D01*
X1174Y2099D01*
X1175Y2099D01*
X1176Y2099D01*
X1177Y2099D01*
X1178Y2099D01*
X1179Y2099D01*
X1180Y2099D01*
X1181Y2099D01*
X1182Y2099D01*
X1183Y2099D01*
X1184Y2099D01*
X1185Y2099D01*
X1186Y2099D01*
X1187Y2099D01*
X1188Y2099D01*
X1189Y2099D01*
X1190Y2099D01*
X1191Y2099D01*
X1192Y2099D01*
X1193Y2099D01*
X1194Y2099D01*
X1195Y2099D01*
X1196Y2099D01*
X1197Y2099D01*
X1198Y2099D01*
X1199Y2099D01*
X1200Y2099D01*
X1201Y2099D01*
X1202Y2099D01*
X1203Y2099D01*
X1204Y2099D01*
X1205Y2099D01*
X1206Y2099D01*
X1207Y2099D01*
X1208Y2099D01*
X1209Y2099D01*
X1210Y2099D01*
X1211Y2099D01*
X1212Y2099D01*
X1213Y2099D01*
X1214Y2099D01*
X1215Y2099D01*
X1216Y2099D01*
X1217Y2099D01*
X1218Y2099D01*
X1219Y2099D01*
X1220Y2099D01*
X1221Y2099D01*
X1222Y2099D01*
X1223Y2099D01*
X1224Y2099D01*
X1225Y2099D01*
X1226Y2099D01*
X1227Y2099D01*
X1228Y2099D01*
X1229Y2099D01*
X1230Y2099D01*
X1231Y2099D01*
X1232Y2099D01*
X1233Y2099D01*
X1234Y2099D01*
X1235Y2099D01*
X1236Y2099D01*
X1237Y2099D01*
X1238Y2099D01*
X1239Y2099D01*
X1240Y2099D01*
X1241Y2099D01*
X1242Y2099D01*
X1243Y2099D01*
X1244Y2099D01*
X1245Y2099D01*
X1246Y2099D01*
X1247Y2099D01*
X1248Y2099D01*
X1249Y2099D01*
X1250Y2099D01*
X1251Y2099D01*
X1252Y2099D01*
X1253Y2099D01*
X1254Y2099D01*
X1255Y2099D01*
X1256Y2099D01*
X1257Y2099D01*
X1258Y2099D01*
X1259Y2099D01*
X1260Y2099D01*
X1261Y2099D01*
X1262Y2099D01*
X1263Y2099D01*
X1264Y2099D01*
X1265Y2099D01*
X1266Y2099D01*
X1267Y2099D01*
X1268Y2099D01*
X1269Y2099D01*
X1270Y2099D01*
X1271Y2099D01*
X1272Y2099D01*
X1273Y2099D01*
X1274Y2099D01*
X1275Y2099D01*
X1276Y2099D01*
X1277Y2099D01*
X1278Y2099D01*
X1279Y2099D01*
X1280Y2099D01*
X1281Y2099D01*
X1282Y2099D01*
X1283Y2099D01*
X1284Y2099D01*
X1285Y2099D01*
X1286Y2099D01*
X1287Y2099D01*
X1288Y2099D01*
X1289Y2099D01*
X1290Y2099D01*
X1291Y2099D01*
X1292Y2099D01*
X1293Y2099D01*
X1294Y2099D01*
X1295Y2099D01*
X1296Y2099D01*
X1297Y2099D01*
X1298Y2099D01*
X1299Y2099D01*
X1300Y2099D01*
X1301Y2099D01*
X1302Y2099D01*
X1303Y2099D01*
X1304Y2099D01*
X1305Y2099D01*
X1306Y2099D01*
X1307Y2099D01*
X1308Y2099D01*
X1309Y2099D01*
X1310Y2099D01*
X1311Y2099D01*
X1312Y2099D01*
X1313Y2099D01*
X1314Y2099D01*
X1315Y2099D01*
X1316Y2099D01*
X1317Y2099D01*
X1318Y2099D01*
X1319Y2099D01*
X1320Y2099D01*
X1321Y2099D01*
X1322Y2099D01*
X1323Y2099D01*
X1324Y2099D01*
X1325Y2099D01*
X1326Y2099D01*
X1327Y2099D01*
X1328Y2099D01*
X1329Y2099D01*
X1330Y2099D01*
X1331Y2099D01*
X1332Y2099D01*
X1333Y2099D01*
X1334Y2099D01*
X1335Y2099D01*
X1336Y2099D01*
X1337Y2099D01*
X1338Y2099D01*
X1339Y2099D01*
X1340Y2099D01*
X1341Y2099D01*
X1342Y2099D01*
X1343Y2099D01*
X1344Y2099D01*
X1345Y2099D01*
X1346Y2099D01*
X1347Y2099D01*
X1348Y2099D01*
X1349Y2099D01*
X1350Y2099D01*
X1351Y2099D01*
X1352Y2099D01*
X1353Y2099D01*
X1354Y2099D01*
X1355Y2099D01*
X1356Y2099D01*
X1357Y2099D01*
X1358Y2099D01*
X1359Y2099D01*
X1360Y2099D01*
X1361Y2099D01*
X1362Y2099D01*
X1363Y2099D01*
X1364Y2099D01*
X1365Y2099D01*
X1366Y2099D01*
X1367Y2099D01*
X1368Y2099D01*
X1369Y2099D01*
X1370Y2099D01*
X1371Y2099D01*
X1372Y2099D01*
X1373Y2099D01*
X1374Y2099D01*
X1375Y2099D01*
X1376Y2099D01*
X1377Y2099D01*
X1378Y2099D01*
X1379Y2099D01*
X1380Y2099D01*
X1381Y2099D01*
X1382Y2099D01*
X1383Y2099D01*
X1384Y2099D01*
X1385Y2099D01*
X1386Y2099D01*
X1387Y2099D01*
X1388Y2099D01*
X1389Y2099D01*
X1390Y2099D01*
X1391Y2099D01*
X1392Y2099D01*
X1393Y2099D01*
X1394Y2099D01*
X1395Y2099D01*
X1396Y2099D01*
X1397Y2099D01*
X1398Y2099D01*
X1399Y2099D01*
X1400Y2099D01*
X1401Y2099D01*
X1402Y2099D01*
X1403Y2099D01*
X1404Y2099D01*
X1405Y2099D01*
X1406Y2099D01*
X1407Y2099D01*
X1408Y2099D01*
X1409Y2099D01*
X1410Y2099D01*
X1411Y2099D01*
X1412Y2099D01*
X1413Y2099D01*
X1414Y2099D01*
X1415Y2099D01*
X1416Y2099D01*
X1417Y2099D01*
X1418Y2099D01*
X1419Y2099D01*
X1420Y2099D01*
X1421Y2099D01*
X1422Y2099D01*
X1423Y2099D01*
X1424Y2099D01*
X1425Y2099D01*
X1426Y2099D01*
X1427Y2099D01*
X1428Y2099D01*
X1429Y2099D01*
X1430Y2099D01*
X1431Y2099D01*
X1432Y2099D01*
X1433Y2099D01*
X1434Y2099D01*
X1435Y2099D01*
X1436Y2099D01*
X1437Y2099D01*
X1438Y2099D01*
X1439Y2099D01*
X1440Y2099D01*
X1441Y2099D01*
X1442Y2099D01*
X1443Y2099D01*
X1444Y2099D01*
X1445Y2099D01*
X1446Y2099D01*
X1447Y2099D01*
X1448Y2099D01*
X1449Y2099D01*
X1450Y2099D01*
X1451Y2099D01*
X1452Y2099D01*
X1453Y2099D01*
X1454Y2099D01*
X1455Y2099D01*
X1456Y2099D01*
X1457Y2099D01*
X1458Y2099D01*
X1459Y2099D01*
X1460Y2099D01*
X1461Y2099D01*
X1462Y2099D01*
X1463Y2099D01*
X1464Y2099D01*
X1465Y2099D01*
X1466Y2099D01*
X1467Y2099D01*
X1468Y2099D01*
X1469Y2099D01*
X1470Y2099D01*
X1471Y2099D01*
X1472Y2099D01*
X1473Y2099D01*
X1474Y2099D01*
X1475Y2099D01*
X1476Y2099D01*
X1477Y2099D01*
X1478Y2099D01*
X1479Y2099D01*
X1480Y2099D01*
X1481Y2099D01*
X1482Y2099D01*
X1483Y2099D01*
X1484Y2099D01*
X1485Y2099D01*
X1486Y2099D01*
X1487Y2099D01*
X1488Y2099D01*
X1489Y2099D01*
X1490Y2099D01*
X1491Y2099D01*
X1492Y2099D01*
X1493Y2099D01*
X1494Y2099D01*
X1495Y2099D01*
X1496Y2099D01*
X1497Y2099D01*
X1498Y2099D01*
X1499Y2099D01*
X1500Y2099D01*
X1501Y2099D01*
X1502Y2099D01*
X1503Y2099D01*
X1504Y2099D01*
X1505Y2099D01*
X1506Y2099D01*
X1507Y2099D01*
X1508Y2099D01*
X1509Y2099D01*
X1510Y2099D01*
X1511Y2099D01*
X1512Y2099D01*
X1513Y2099D01*
X1514Y2099D01*
X1515Y2099D01*
X1516Y2099D01*
X1517Y2099D01*
X1518Y2099D01*
X1519Y2099D01*
X1520Y2099D01*
X1521Y2099D01*
X1522Y2099D01*
X1523Y2099D01*
X1524Y2099D01*
X1525Y2099D01*
X1526Y2099D01*
X1527Y2099D01*
X1528Y2099D01*
X1529Y2099D01*
X1530Y2099D01*
X1531Y2099D01*
X1532Y2099D01*
X1533Y2099D01*
X1534Y2099D01*
X1535Y2099D01*
X1536Y2099D01*
X1537Y2099D01*
X1538Y2099D01*
X1539Y2099D01*
X1540Y2099D01*
X1541Y2099D01*
X1542Y2099D01*
X1543Y2099D01*
X1544Y2099D01*
X1545Y2099D01*
X1546Y2099D01*
X1547Y2099D01*
X1548Y2099D01*
X1549Y2099D01*
X1550Y2099D01*
X1551Y2099D01*
X1552Y2099D01*
X1553Y2099D01*
X1554Y2099D01*
X1555Y2099D01*
X1556Y2099D01*
X1557Y2099D01*
X1558Y2099D01*
X1559Y2099D01*
X1560Y2099D01*
X1561Y2099D01*
X1562Y2099D01*
X1563Y2099D01*
X1564Y2099D01*
X1565Y2099D01*
X1566Y2099D01*
X1567Y2099D01*
X1568Y2099D01*
X1569Y2099D01*
X1570Y2099D01*
X1571Y2099D01*
X1572Y2099D01*
X1573Y2099D01*
X1574Y2099D01*
X1575Y2099D01*
X1576Y2099D01*
X1577Y2099D01*
X1578Y2099D01*
X1579Y2099D01*
X1580Y2099D01*
X1581Y2099D01*
X1582Y2099D01*
X1583Y2099D01*
X1584Y2099D01*
X1585Y2099D01*
X1586Y2099D01*
X1587Y2099D01*
X1588Y2099D01*
X1589Y2099D01*
X1590Y2099D01*
X1591Y2099D01*
X1592Y2099D01*
X1593Y2099D01*
X1594Y2099D01*
X1595Y2099D01*
X1596Y2099D01*
X1597Y2099D01*
X1598Y2099D01*
X1599Y2099D01*
X1600Y2099D01*
X1601Y2099D01*
X1602Y2099D01*
X1603Y2099D01*
X1604Y2099D01*
X1605Y2099D01*
X1606Y2099D01*
X1607Y2099D01*
X1608Y2099D01*
X1609Y2099D01*
X1610Y2099D01*
X1611Y2099D01*
X1612Y2099D01*
X1613Y2099D01*
X1614Y2099D01*
X1615Y2099D01*
X1616Y2099D01*
X1617Y2099D01*
X1618Y2099D01*
X1619Y2099D01*
X1620Y2099D01*
X1621Y2099D01*
X1622Y2099D01*
X1623Y2099D01*
X1624Y2099D01*
X1625Y2099D01*
X1626Y2099D01*
X1627Y2099D01*
X1628Y2099D01*
X1629Y2099D01*
X1630Y2099D01*
X1631Y2099D01*
X1632Y2099D01*
X1633Y2099D01*
X1634Y2099D01*
X1635Y2099D01*
X1636Y2099D01*
X1637Y2099D01*
X1638Y2099D01*
X1639Y2099D01*
X1640Y2099D01*
X1641Y2099D01*
X1642Y2099D01*
X1643Y2099D01*
X1644Y2099D01*
X1645Y2099D01*
X1646Y2099D01*
X1647Y2099D01*
X1648Y2099D01*
X1649Y2099D01*
X1650Y2099D01*
X1651Y2099D01*
X1652Y2099D01*
X1653Y2099D01*
X1654Y2099D01*
X1655Y2099D01*
X1656Y2099D01*
X1657Y2099D01*
X1658Y2099D01*
X1659Y2099D01*
X1660Y2099D01*
X1661Y2099D01*
X1662Y2099D01*
X1663Y2099D01*
X1664Y2099D01*
X1665Y2099D01*
X1666Y2099D01*
X1667Y2099D01*
X1668Y2099D01*
X1669Y2099D01*
X1670Y2099D01*
X1671Y2099D01*
X1672Y2099D01*
X1673Y2099D01*
X1674Y2099D01*
X1675Y2099D01*
X1676Y2099D01*
X1677Y2099D01*
X1678Y2099D01*
X1679Y2099D01*
X1680Y2099D01*
X1681Y2099D01*
X1682Y2099D01*
X1683Y2099D01*
X1684Y2099D01*
X1685Y2099D01*
X1686Y2099D01*
X1687Y2099D01*
X1688Y2099D01*
X1689Y2099D01*
X1690Y2099D01*
X1691Y2099D01*
X1692Y2099D01*
X1693Y2099D01*
X1694Y2099D01*
X1695Y2099D01*
X1696Y2099D01*
X1697Y2099D01*
X1698Y2099D01*
X1699Y2099D01*
X1700Y2099D01*
X1701Y2099D01*
X1702Y2099D01*
X1703Y2099D01*
X1704Y2099D01*
X1705Y2099D01*
X1706Y2099D01*
X1707Y2099D01*
X1708Y2099D01*
X1709Y2099D01*
X1710Y2099D01*
X1711Y2099D01*
X1712Y2099D01*
X1713Y2099D01*
X1714Y2099D01*
X1715Y2099D01*
X1716Y2099D01*
X1717Y2099D01*
X1718Y2099D01*
X1719Y2099D01*
X1720Y2099D01*
X1721Y2099D01*
X1722Y2099D01*
X1723Y2099D01*
X1724Y2099D01*
X1725Y2099D01*
X1726Y2099D01*
X1727Y2099D01*
X1728Y2099D01*
X1729Y2099D01*
X1730Y2099D01*
X1731Y2099D01*
X1732Y2099D01*
X1733Y2099D01*
X1734Y2099D01*
X1735Y2099D01*
X1736Y2099D01*
X1737Y2099D01*
X1738Y2099D01*
X1739Y2099D01*
X1740Y2099D01*
X1741Y2099D01*
X1742Y2099D01*
X1743Y2099D01*
X1744Y2099D01*
X1745Y2099D01*
X1746Y2099D01*
X1747Y2099D01*
X1748Y2099D01*
X1749Y2099D01*
X1750Y2099D01*
X1751Y2099D01*
X1752Y2099D01*
X1753Y2099D01*
X1754Y2099D01*
X1755Y2099D01*
X1756Y2099D01*
X1757Y2099D01*
X1758Y2099D01*
X1759Y2099D01*
X1760Y2099D01*
X1761Y2099D01*
X1762Y2099D01*
X1763Y2099D01*
X1764Y2099D01*
X1765Y2099D01*
X1766Y2099D01*
X1767Y2099D01*
X1768Y2099D01*
X1769Y2099D01*
X1770Y2099D01*
X1771Y2099D01*
X1772Y2099D01*
X1773Y2099D01*
X1774Y2099D01*
X1775Y2099D01*
X1776Y2099D01*
X1777Y2099D01*
X1778Y2099D01*
X1779Y2099D01*
X1780Y2099D01*
X1781Y2099D01*
X1782Y2099D01*
X1783Y2099D01*
X1784Y2099D01*
X1785Y2099D01*
X1786Y2099D01*
X1787Y2099D01*
X1788Y2099D01*
X1789Y2099D01*
X1790Y2099D01*
X1791Y2099D01*
X1792Y2099D01*
X1793Y2099D01*
X1794Y2099D01*
X1795Y2099D01*
X1796Y2099D01*
X1797Y2099D01*
X1798Y2099D01*
X1799Y2099D01*
X1800Y2099D01*
X1801Y2099D01*
X1802Y2099D01*
X1803Y2099D01*
X1804Y2099D01*
X1805Y2099D01*
X1806Y2099D01*
X1807Y2099D01*
X1808Y2099D01*
X1809Y2099D01*
X1810Y2099D01*
X1811Y2099D01*
X1812Y2099D01*
X1813Y2099D01*
X1814Y2099D01*
X1815Y2099D01*
X1816Y2099D01*
X1817Y2099D01*
X1818Y2099D01*
X1819Y2099D01*
X1820Y2099D01*
X1821Y2099D01*
X1822Y2099D01*
X1823Y2099D01*
X1824Y2099D01*
X1825Y2099D01*
X1826Y2099D01*
X1827Y2099D01*
X1828Y2099D01*
X1829Y2099D01*
X1830Y2099D01*
X1831Y2099D01*
X1832Y2099D01*
X1833Y2099D01*
X1834Y2099D01*
X1835Y2099D01*
X1836Y2099D01*
X1837Y2099D01*
X1838Y2099D01*
X1839Y2099D01*
X1840Y2099D01*
X1841Y2099D01*
X1842Y2099D01*
X1843Y2099D01*
X1844Y2099D01*
X1845Y2099D01*
X1846Y2099D01*
X1847Y2099D01*
X1848Y2099D01*
X1849Y2099D01*
X1850Y2099D01*
X1851Y2099D01*
X1852Y2099D01*
X1853Y2099D01*
X1854Y2099D01*
X1855Y2099D01*
X1856Y2099D01*
X1857Y2099D01*
X1858Y2099D01*
X1859Y2099D01*
X1860Y2099D01*
X1861Y2099D01*
X1862Y2099D01*
X1863Y2099D01*
X1864Y2099D01*
X1865Y2099D01*
X1866Y2099D01*
X1867Y2099D01*
X1868Y2099D01*
X1869Y2099D01*
X1870Y2099D01*
X1871Y2099D01*
X1872Y2099D01*
X1873Y2099D01*
X1874Y2099D01*
X1875Y2099D01*
X1876Y2099D01*
X1877Y2099D01*
X1878Y2099D01*
X1879Y2099D01*
X1880Y2099D01*
X1881Y2099D01*
X1882Y2099D01*
X1883Y2099D01*
X1884Y2099D01*
X1885Y2099D01*
X1886Y2099D01*
X1887Y2099D01*
X1888Y2099D01*
X1889Y2099D01*
X1890Y2099D01*
X1891Y2099D01*
X1892Y2099D01*
X1893Y2099D01*
X1894Y2099D01*
X1895Y2099D01*
X1896Y2099D01*
X1897Y2099D01*
X1898Y2099D01*
X1899Y2099D01*
X1900Y2099D01*
X1901Y2099D01*
X1902Y2099D01*
X1903Y2099D01*
X1904Y2099D01*
X1905Y2099D01*
X1906Y2099D01*
X1907Y2099D01*
X1908Y2099D01*
X1909Y2099D01*
X1910Y2099D01*
X1911Y2099D01*
X1912Y2099D01*
X1913Y2099D01*
X1914Y2099D01*
X1915Y2099D01*
X1916Y2099D01*
X1917Y2099D01*
X1918Y2099D01*
X1919Y2099D01*
X1920Y2099D01*
X1921Y2099D01*
X1922Y2099D01*
X1923Y2099D01*
X1924Y2099D01*
X1925Y2099D01*
X1926Y2099D01*
X1927Y2099D01*
X1928Y2099D01*
X1929Y2099D01*
X1930Y2099D01*
X1931Y2099D01*
X1932Y2099D01*
X1933Y2099D01*
X1934Y2099D01*
X1935Y2099D01*
X1936Y2099D01*
X1937Y2099D01*
X1938Y2099D01*
X1939Y2099D01*
X1940Y2099D01*
X1941Y2099D01*
X1942Y2099D01*
X1943Y2099D01*
X1944Y2099D01*
X1945Y2099D01*
X1946Y2099D01*
X1947Y2099D01*
X1948Y2099D01*
X1949Y2099D01*
X1950Y2099D01*
X1951Y2099D01*
X1952Y2099D01*
X1953Y2099D01*
X1954Y2099D01*
X1955Y2099D01*
X1956Y2099D01*
X1957Y2099D01*
X1958Y2099D01*
X1959Y2099D01*
X1960Y2099D01*
X1961Y2099D01*
X1962Y2099D01*
X1963Y2099D01*
X1964Y2099D01*
X1965Y2099D01*
X1966Y2099D01*
X1967Y2099D01*
X1968Y2099D01*
X1969Y2099D01*
X1970Y2099D01*
X1971Y2099D01*
X1972Y2099D01*
X1973Y2099D01*
X1974Y2099D01*
X1975Y2099D01*
X1976Y2099D01*
X1977Y2099D01*
X1978Y2099D01*
X1979Y2099D01*
X1980Y2099D01*
X1981Y2099D01*
X1982Y2099D01*
X1983Y2099D01*
X1984Y2099D01*
X1985Y2099D01*
X1986Y2099D01*
X1987Y2099D01*
X1988Y2099D01*
X1989Y2099D01*
X1990Y2099D01*
X1991Y2099D01*
X1992Y2099D01*
X1993Y2099D01*
X1994Y2099D01*
X1995Y2099D01*
X1996Y2099D01*
X1997Y2099D01*
X1998Y2099D01*
X1999Y2099D01*
X2000Y2099D01*
X2001Y2099D01*
X2002Y2099D01*
X2003Y2099D01*
X2004Y2099D01*
X2005Y2099D01*
X2006Y2099D01*
X2007Y2099D01*
X2008Y2099D01*
X2009Y2099D01*
X2010Y2099D01*
X2011Y2099D01*
X2012Y2099D01*
X2013Y2099D01*
X2014Y2099D01*
X2015Y2099D01*
X2016Y2099D01*
X2017Y2099D01*
X2018Y2099D01*
X2019Y2099D01*
X2020Y2099D01*
X2021Y2099D01*
X2022Y2099D01*
X2023Y2099D01*
X2024Y2099D01*
X2025Y2099D01*
X2026Y2099D01*
X2027Y2099D01*
X2028Y2099D01*
X2029Y2099D01*
X2030Y2099D01*
X2031Y2099D01*
X2032Y2099D01*
X2033Y2099D01*
X2034Y2099D01*
X2035Y2099D01*
X2036Y2099D01*
X2037Y2099D01*
X2038Y2099D01*
X2039Y2099D01*
X2040Y2099D01*
X2041Y2099D01*
X2042Y2099D01*
X2043Y2099D01*
X2044Y2099D01*
X2045Y2099D01*
X2046Y2099D01*
X2047Y2099D01*
X2048Y2099D01*
X2049Y2099D01*
X2050Y2099D01*
X2051Y2099D01*
X2052Y2099D01*
X2053Y2099D01*
X2054Y2099D01*
X2055Y2099D01*
X2056Y2099D01*
X2057Y2099D01*
X2058Y2099D01*
X2059Y2099D01*
X2060Y2099D01*
X2061Y2099D01*
X2062Y2099D01*
X2063Y2099D01*
X2064Y2099D01*
X2065Y2099D01*
X2066Y2099D01*
X2067Y2099D01*
X2068Y2099D01*
X2069Y2099D01*
X2070Y2099D01*
X2071Y2099D01*
X2072Y2099D01*
X2073Y2099D01*
X2074Y2099D01*
X2075Y2099D01*
X2076Y2099D01*
X2077Y2099D01*
X2078Y2099D01*
X2079Y2099D01*
X2080Y2099D01*
X2081Y2099D01*
X2082Y2099D01*
X2083Y2099D01*
X2084Y2099D01*
X2085Y2099D01*
X2086Y2099D01*
X2087Y2099D01*
X2088Y2099D01*
X2089Y2099D01*
X2090Y2099D01*
X2091Y2099D01*
X2092Y2099D01*
X2093Y2099D01*
X2094Y2099D01*
X2095Y2099D01*
X2096Y2099D01*
X2097Y2099D01*
X2098Y2099D01*
X2099Y2099D01*
X2100Y2099D01*
X2101Y2099D01*
X2102Y2099D01*
X2103Y2099D01*
X2104Y2099D01*
X2105Y2099D01*
X2106Y2099D01*
X2107Y2099D01*
X2108Y2099D01*
X2109Y2099D01*
X2110Y2099D01*
X2111Y2099D01*
X2112Y2099D01*
X2113Y2099D01*
X2114Y2099D01*
X2115Y2099D01*
X2116Y2099D01*
X2117Y2099D01*
X2118Y2099D01*
X2119Y2099D01*
X2120Y2099D01*
X2121Y2099D01*
X2122Y2099D01*
X2123Y2099D01*
X2124Y2099D01*
X2125Y2099D01*
X2126Y2099D01*
X2127Y2099D01*
X2128Y2099D01*
X2129Y2099D01*
X2130Y2099D01*
X2131Y2099D01*
X2132Y2099D01*
X2133Y2099D01*
X2134Y2099D01*
X2135Y2099D01*
X2136Y2099D01*
X2137Y2099D01*
X2138Y2099D01*
X2139Y2099D01*
X2140Y2099D01*
X2141Y2099D01*
X2142Y2099D01*
X2143Y2099D01*
X2144Y2099D01*
X2145Y2099D01*
X2146Y2099D01*
X2147Y2099D01*
X2148Y2099D01*
X2149Y2099D01*
X2150Y2099D01*
X2151Y2099D01*
X2152Y2099D01*
X2153Y2099D01*
X2154Y2099D01*
X2155Y2099D01*
X2156Y2099D01*
X2157Y2099D01*
X2158Y2099D01*
X2159Y2099D01*
X2160Y2099D01*
X2161Y2099D01*
X2162Y2099D01*
X2163Y2099D01*
X2164Y2099D01*
X2165Y2099D01*
X2166Y2099D01*
X2167Y2099D01*
X2168Y2099D01*
X2169Y2099D01*
X2170Y2099D01*
X2171Y2099D01*
X2172Y2099D01*
X2173Y2099D01*
X2174Y2099D01*
X2175Y2099D01*
X2176Y2099D01*
X2177Y2099D01*
X2178Y2099D01*
X2179Y2099D01*
X2180Y2099D01*
X2181Y2099D01*
X2182Y2099D01*
X2183Y2099D01*
X2184Y2099D01*
X2185Y2099D01*
X2186Y2099D01*
X2187Y2099D01*
X2188Y2099D01*
X2189Y2099D01*
X2190Y2099D01*
X2191Y2099D01*
X2192Y2099D01*
X2193Y2099D01*
X2194Y2099D01*
X2195Y2099D01*
X2196Y2099D01*
X2197Y2099D01*
X2198Y2099D01*
X2199Y2099D01*
X2200Y2099D01*
X2201Y2099D01*
X2202Y2099D01*
X2203Y2099D01*
X2204Y2099D01*
X2205Y2099D01*
X2206Y2099D01*
X2207Y2099D01*
X2208Y2099D01*
X2209Y2099D01*
X2210Y2099D01*
X2211Y2099D01*
X2212Y2099D01*
X2213Y2099D01*
X2214Y2099D01*
X2215Y2099D01*
X2216Y2099D01*
X2217Y2099D01*
X2218Y2099D01*
X2219Y2099D01*
X2220Y2099D01*
X2221Y2099D01*
X2222Y2099D01*
X2223Y2099D01*
X2224Y2099D01*
X2225Y2099D01*
X2226Y2099D01*
X2227Y2099D01*
X2228Y2099D01*
X2229Y2099D01*
X2230Y2099D01*
X2231Y2099D01*
X2232Y2099D01*
X2233Y2099D01*
X2234Y2099D01*
X2235Y2099D01*
X2236Y2099D01*
X2237Y2099D01*
X2238Y2099D01*
X2239Y2099D01*
X2240Y2099D01*
X2241Y2099D01*
X2242Y2099D01*
X2243Y2099D01*
X2244Y2099D01*
X2245Y2099D01*
X2246Y2099D01*
X2247Y2099D01*
X2248Y2099D01*
X2249Y2099D01*
X2250Y2099D01*
X2251Y2099D01*
X2252Y2099D01*
X2253Y2099D01*
X2254Y2099D01*
X2255Y2099D01*
X2256Y2099D01*
X2257Y2099D01*
X2258Y2099D01*
X2259Y2099D01*
X2260Y2099D01*
X2261Y2099D01*
X2262Y2099D01*
X2263Y2099D01*
X2264Y2099D01*
X2265Y2099D01*
X2266Y2099D01*
X2267Y2099D01*
X2268Y2099D01*
X2269Y2099D01*
X2270Y2099D01*
X2271Y2099D01*
X2272Y2099D01*
X2273Y2099D01*
X2274Y2099D01*
X2275Y2099D01*
X2276Y2099D01*
X2277Y2099D01*
X2278Y2099D01*
X2279Y2099D01*
X2280Y2099D01*
X2281Y2099D01*
X2282Y2099D01*
X2283Y2099D01*
X2284Y2099D01*
X2285Y2099D01*
X2286Y2099D01*
X2287Y2099D01*
X2288Y2099D01*
X2289Y2099D01*
X2290Y2099D01*
X2291Y2099D01*
X2292Y2099D01*
X2293Y2099D01*
X2294Y2099D01*
X2295Y2099D01*
X2296Y2099D01*
X2297Y2099D01*
X2298Y2099D01*
X2299Y2099D01*
X2300Y2099D01*
X2301Y2099D01*
X2302Y2099D01*
X2303Y2099D01*
X2304Y2099D01*
X2305Y2099D01*
X2306Y2099D01*
X2307Y2099D01*
X2308Y2099D01*
X2309Y2099D01*
X2310Y2099D01*
X2311Y2099D01*
X2312Y2099D01*
X2313Y2099D01*
X2314Y2099D01*
X2315Y2099D01*
X2316Y2099D01*
X2317Y2099D01*
X2318Y2099D01*
X2319Y2099D01*
X2320Y2099D01*
X2321Y2099D01*
X2322Y2099D01*
X2323Y2099D01*
X2324Y2099D01*
X2325Y2099D01*
X2326Y2099D01*
X2327Y2099D01*
X2328Y2099D01*
X2329Y2099D01*
X2330Y2099D01*
X2331Y2099D01*
X2332Y2099D01*
X2333Y2099D01*
X2334Y2099D01*
X2335Y2099D01*
X2336Y2099D01*
X2337Y2099D01*
X2338Y2099D01*
X2339Y2099D01*
X2340Y2099D01*
X2341Y2099D01*
X2342Y2099D01*
X2343Y2099D01*
X2344Y2099D01*
X2345Y2099D01*
X2346Y2099D01*
X2347Y2099D01*
X2348Y2099D01*
X2349Y2099D01*
X2350Y2099D01*
X2351Y2099D01*
X2352Y2099D01*
X2353Y2099D01*
X2354Y2099D01*
X2355Y2099D01*
X2356Y2099D01*
X2357Y2099D01*
X2358Y2099D01*
X2359Y2099D01*
X2360Y2099D01*
X2361Y2099D01*
X2362Y2099D01*
X2363Y2099D01*
X2364Y2099D01*
X2365Y2099D01*
X2366Y2099D01*
X2367Y2099D01*
X2368Y2099D01*
X2369Y2099D01*
X2370Y2099D01*
X2371Y2099D01*
X2372Y2099D01*
X2373Y2099D01*
X2374Y2099D01*
X2375Y2099D01*
X2376Y2099D01*
X2377Y2099D01*
X2378Y2099D01*
X2379Y2099D01*
X2380Y2099D01*
X2381Y2099D01*
X2382Y2099D01*
X2383Y2099D01*
X2384Y2099D01*
X2385Y2099D01*
X2386Y2099D01*
X2387Y2099D01*
X2388Y2099D01*
X2389Y2099D01*
X2390Y2099D01*
X2391Y2099D01*
X2392Y2099D01*
X2393Y2099D01*
X2394Y2099D01*
X2395Y2099D01*
X2396Y2099D01*
X2397Y2099D01*
X2398Y2099D01*
X2399Y2099D01*
X2400Y2099D01*
X2401Y2099D01*
X2402Y2099D01*
X2403Y2099D01*
X2404Y2099D01*
X2405Y2099D01*
X2406Y2099D01*
X2407Y2099D01*
X2408Y2099D01*
X2409Y2099D01*
X2410Y2099D01*
X2411Y2099D01*
X2412Y2099D01*
X2413Y2099D01*
X2414Y2099D01*
X2415Y2099D01*
X2416Y2099D01*
X2417Y2099D01*
X2418Y2099D01*
X2419Y2099D01*
X2420Y2099D01*
X2421Y2099D01*
X2422Y2099D01*
X2423Y2099D01*
X2424Y2099D01*
X2425Y2099D01*
X2426Y2099D01*
X2427Y2099D01*
X2428Y2099D01*
X2429Y2099D01*
X2430Y2099D01*
X2431Y2099D01*
X2432Y2099D01*
X2433Y2099D01*
X2434Y2099D01*
X2435Y2099D01*
X2436Y2099D01*
X2437Y2099D01*
X2438Y2099D01*
X2439Y2099D01*
X2440Y2099D01*
X2441Y2099D01*
X2442Y2099D01*
X2443Y2099D01*
X2444Y2099D01*
X2445Y2099D01*
X2446Y2099D01*
X2447Y2099D01*
X2448Y2099D01*
X2449Y2099D01*
X2450Y2099D01*
X2451Y2099D01*
X2452Y2099D01*
X2453Y2099D01*
X2454Y2099D01*
X2455Y2099D01*
X2456Y2099D01*
X2457Y2099D01*
X2458Y2099D01*
X2459Y2099D01*
X2460Y2099D01*
X2461Y2099D01*
X2462Y2099D01*
X2463Y2099D01*
X2464Y2099D01*
X2465Y2099D01*
X2466Y2099D01*
X2467Y2099D01*
X2468Y2099D01*
X2469Y2099D01*
X2470Y2099D01*
X2471Y2099D01*
X2472Y2099D01*
X2473Y2099D01*
X2474Y2099D01*
X2475Y2099D01*
X2476Y2099D01*
X2477Y2099D01*
X2478Y2099D01*
X2479Y2099D01*
X2480Y2099D01*
X2481Y2099D01*
X2482Y2099D01*
X2483Y2099D01*
X2484Y2099D01*
X2485Y2099D01*
X2486Y2099D01*
X2487Y2099D01*
X2488Y2099D01*
X2489Y2099D01*
X2490Y2099D01*
X2491Y2099D01*
X2492Y2099D01*
X2493Y2099D01*
X2494Y2099D01*
X2495Y2099D01*
X2496Y2099D01*
X2497Y2099D01*
X2498Y2099D01*
X2499Y2099D01*
X2500Y2099D01*
X2501Y2099D01*
X2502Y2099D01*
X2503Y2099D01*
X2504Y2099D01*
X2505Y2099D01*
X2506Y2099D01*
X2507Y2099D01*
X2508Y2099D01*
X2509Y2099D01*
X2510Y2099D01*
X2511Y2099D01*
X2512Y2099D01*
X2513Y2099D01*
X2514Y2099D01*
X2515Y2099D01*
X2516Y2099D01*
X2517Y2099D01*
X2518Y2099D01*
X2519Y2099D01*
X2520Y2099D01*
X2521Y2099D01*
X2522Y2099D01*
X2523Y2099D01*
X2524Y2099D01*
X2525Y2099D01*
X2526Y2099D01*
X2527Y2099D01*
X2528Y2099D01*
X2529Y2099D01*
X2530Y2099D01*
X2531Y2099D01*
X2532Y2099D01*
X2533Y2099D01*
X2534Y2099D01*
X2535Y2099D01*
X2536Y2099D01*
X2537Y2099D01*
X2538Y2099D01*
X2539Y2099D01*
X2540Y2099D01*
X2541Y2099D01*
X2542Y2099D01*
X2543Y2099D01*
X2544Y2099D01*
X2545Y2099D01*
X2546Y2099D01*
X2547Y2099D01*
X2548Y2099D01*
X2549Y2099D01*
X2550Y2099D01*
X2551Y2099D01*
X2552Y2099D01*
X2553Y2099D01*
X2554Y2099D01*
X2555Y2099D01*
X2556Y2099D01*
X2557Y2099D01*
X2558Y2099D01*
X2559Y2099D01*
X2560Y2099D01*
X2561Y2099D01*
X2562Y2099D01*
X2563Y2099D01*
X2564Y2099D01*
X2565Y2099D01*
X2566Y2099D01*
X2567Y2099D01*
X2568Y2099D01*
X2569Y2099D01*
X2570Y2099D01*
X2571Y2099D01*
X2572Y2099D01*
X2573Y2099D01*
X2574Y2099D01*
X2575Y2099D01*
X2576Y2099D01*
X2577Y2099D01*
X2578Y2099D01*
X2579Y2099D01*
X2580Y2099D01*
X2581Y2099D01*
X2582Y2099D01*
X2583Y2099D01*
X2584Y2099D01*
X2585Y2099D01*
X2586Y2099D01*
X2587Y2099D01*
X2588Y2099D01*
X2589Y2099D01*
X2590Y2099D01*
X2591Y2099D01*
X2592Y2099D01*
X2593Y2099D01*
X2594Y2099D01*
X2595Y2099D01*
X2596Y2099D01*
X2597Y2099D01*
X2598Y2099D01*
X2599Y2099D01*
X2600Y2099D01*
X2601Y2099D01*
X2602Y2099D01*
X2603Y2099D01*
X2604Y2099D01*
X2605Y2099D01*
X2606Y2099D01*
X2607Y2099D01*
X2608Y2099D01*
X2609Y2099D01*
X2610Y2099D01*
X2611Y2099D01*
X2612Y2099D01*
X2613Y2099D01*
X2614Y2099D01*
X2615Y2099D01*
X2616Y2099D01*
X2617Y2099D01*
X2618Y2099D01*
X2619Y2099D01*
X2620Y2099D01*
X2621Y2099D01*
X2622Y2099D01*
X2623Y2099D01*
X2624Y2099D01*
X2625Y2099D01*
X2626Y2099D01*
X2627Y2099D01*
X2628Y2099D01*
X2629Y2099D01*
X2630Y2099D01*
X2631Y2099D01*
X2632Y2099D01*
X2633Y2099D01*
X2634Y2099D01*
X2635Y2099D01*
X2636Y2099D01*
X2637Y2099D01*
X2638Y2099D01*
X2639Y2099D01*
X2640Y2099D01*
X2641Y2099D01*
X2642Y2099D01*
X2643Y2099D01*
X2644Y2099D01*
X2645Y2099D01*
X2646Y2099D01*
X2647Y2099D01*
X2648Y2099D01*
X2649Y2099D01*
X2650Y2099D01*
X2651Y2099D01*
X2652Y2099D01*
X2653Y2099D01*
X2654Y2099D01*
X2655Y2099D01*
X2656Y2099D01*
X2657Y2099D01*
X2658Y2099D01*
X2659Y2099D01*
X2660Y2099D01*
X2661Y2099D01*
X2662Y2099D01*
X2663Y2099D01*
X2664Y2099D01*
X2665Y2099D01*
X2666Y2099D01*
X2667Y2099D01*
X2668Y2099D01*
X2669Y2099D01*
X2670Y2099D01*
X2671Y2099D01*
X2672Y2099D01*
X2673Y2099D01*
X2674Y2099D01*
X2675Y2099D01*
X2676Y2099D01*
X2677Y2099D01*
X2678Y2099D01*
X2679Y2099D01*
X2680Y2099D01*
X2681Y2099D01*
X2682Y2099D01*
X2683Y2099D01*
X2684Y2099D01*
X2685Y2099D01*
X2686Y2099D01*
X2687Y2099D01*
X2688Y2099D01*
X2689Y2099D01*
X2690Y2099D01*
X2691Y2099D01*
X2692Y2099D01*
X2693Y2099D01*
X2694Y2099D01*
X2695Y2099D01*
X2696Y2099D01*
X2697Y2099D01*
X2698Y2099D01*
X2699Y2099D01*
X2700Y2099D01*
X2701Y2099D01*
X2702Y2099D01*
X2703Y2099D01*
X2704Y2099D01*
X2705Y2099D01*
X2706Y2099D01*
X2707Y2099D01*
X2708Y2099D01*
X2709Y2099D01*
X2710Y2099D01*
X2711Y2099D01*
X2712Y2099D01*
X2713Y2099D01*
X2714Y2099D01*
X2715Y2099D01*
X2716Y2099D01*
X2717Y2099D01*
X2718Y2099D01*
X2719Y2099D01*
X2720Y2099D01*
X2721Y2099D01*
X2722Y2099D01*
X2723Y2099D01*
X2724Y2099D01*
X2725Y2099D01*
X2726Y2099D01*
X2727Y2099D01*
X2728Y2099D01*
X2729Y2099D01*
X2730Y2099D01*
X2731Y2099D01*
X2732Y2099D01*
X2733Y2099D01*
X2734Y2099D01*
X2735Y2099D01*
X2736Y2099D01*
X2737Y2099D01*
X2738Y2099D01*
X2739Y2099D01*
X2740Y2099D01*
X2741Y2099D01*
X2742Y2099D01*
X2743Y2099D01*
X2744Y2099D01*
X2745Y2099D01*
X2746Y2099D01*
X2747Y2099D01*
X2748Y2099D01*
X2749Y2099D01*
X2750Y2099D01*
X2751Y2099D01*
X2752Y2099D01*
X2753Y2099D01*
X2754Y2099D01*
X2755Y2099D01*
X2756Y2099D01*
X2757Y2099D01*
X2758Y2099D01*
X2759Y2099D01*
X2760Y2099D01*
X2761Y2099D01*
X2762Y2099D01*
X2763Y2099D01*
X2764Y2099D01*
X2765Y2099D01*
X2766Y2099D01*
X2767Y2099D01*
X2768Y2099D01*
X2769Y2099D01*
X2770Y2099D01*
X2771Y2099D01*
X2772Y2099D01*
X2773Y2099D01*
X2774Y2099D01*
X2775Y2099D01*
X2776Y2099D01*
X2777Y2099D01*
X2778Y2099D01*
X2779Y2099D01*
X2780Y2099D01*
X2781Y2099D01*
X2782Y2099D01*
X2783Y2099D01*
X2784Y2099D01*
X2785Y2099D01*
X2786Y2099D01*
X2787Y2099D01*
X2788Y2099D01*
X2789Y2099D01*
X2790Y2099D01*
X2791Y2099D01*
X2792Y2099D01*
X2793Y2099D01*
X2794Y2099D01*
X2795Y2099D01*
X2796Y2099D01*
X2797Y2099D01*
X2798Y2099D01*
X2799Y2099D01*
X2800Y2099D01*
X2801Y2099D01*
X2802Y2099D01*
X2803Y2099D01*
X2804Y2099D01*
X2805Y2099D01*
X2806Y2099D01*
X2807Y2099D01*
X2808Y2099D01*
X2809Y2099D01*
X2810Y2099D01*
X2811Y2099D01*
X2812Y2099D01*
X2813Y2099D01*
X2814Y2099D01*
X2815Y2099D01*
X2816Y2099D01*
X2817Y2099D01*
X2818Y2099D01*
X2819Y2099D01*
X2820Y2099D01*
X2821Y2099D01*
X2822Y2099D01*
X2823Y2099D01*
X2824Y2099D01*
X2825Y2099D01*
X2826Y2099D01*
X2827Y2099D01*
X2828Y2099D01*
X2829Y2099D01*
X2830Y2099D01*
X2831Y2099D01*
X2832Y2099D01*
X2833Y2099D01*
X2834Y2099D01*
X2835Y2099D01*
X2836Y2099D01*
X2837Y2099D01*
X2838Y2099D01*
X2839Y2099D01*
X2840Y2099D01*
X2841Y2099D01*
X2842Y2099D01*
X2843Y2099D01*
X2844Y2099D01*
X2845Y2099D01*
X2846Y2099D01*
X2847Y2099D01*
X2848Y2099D01*
X2849Y2099D01*
X2850Y2099D01*
X2851Y2099D01*
X2852Y2099D01*
X2853Y2099D01*
X2854Y2099D01*
X2855Y2099D01*
X2856Y2099D01*
X2857Y2099D01*
X2858Y2099D01*
X2859Y2099D01*
X2860Y2099D01*
X2861Y2099D01*
X2862Y2099D01*
X2863Y2099D01*
X2864Y2099D01*
X2865Y2099D01*
X2866Y2099D01*
X2867Y2099D01*
X2868Y2099D01*
X2869Y2099D01*
X2870Y2099D01*
X2871Y2099D01*
X2872Y2099D01*
X2873Y2099D01*
X2874Y2099D01*
X2875Y2099D01*
X2876Y2099D01*
X2877Y2099D01*
X2878Y2099D01*
X2879Y2099D01*
X2880Y2099D01*
X2881Y2099D01*
X2882Y2099D01*
X2883Y2099D01*
X2884Y2099D01*
X2885Y2099D01*
X2886Y2099D01*
X2887Y2099D01*
X2888Y2099D01*
X2889Y2099D01*
X2890Y2099D01*
X2891Y2099D01*
X2892Y2099D01*
X2893Y2099D01*
X2894Y2099D01*
X2895Y2099D01*
X2896Y2099D01*
X2897Y2099D01*
X2898Y2099D01*
X2899Y2099D01*
X2900Y2099D01*
X2901Y2099D01*
X2902Y2099D01*
X2903Y2099D01*
X2904Y2099D01*
X2905Y2099D01*
X2906Y2099D01*
X2907Y2099D01*
X2908Y2099D01*
X2909Y2099D01*
X2910Y2099D01*
X2911Y2099D01*
X2912Y2099D01*
X2913Y2099D01*
X2914Y2099D01*
X2915Y2099D01*
X2916Y2099D01*
X2917Y2099D01*
X2918Y2099D01*
X2919Y2099D01*
X2920Y2099D01*
X2921Y2099D01*
X2922Y2099D01*
X2923Y2099D01*
X2924Y2099D01*
X2925Y2099D01*
X2926Y2099D01*
X2927Y2099D01*
X2928Y2099D01*
X2929Y2099D01*
X2930Y2099D01*
X2931Y2099D01*
X2932Y2099D01*
X2933Y2099D01*
X2934Y2099D01*
X2935Y2099D01*
X2936Y2099D01*
X2937Y2099D01*
X2938Y2099D01*
X2939Y2099D01*
X2940Y2099D01*
X2941Y2099D01*
X2942Y2099D01*
X2943Y2099D01*
X2944Y2099D01*
X2945Y2099D01*
X2946Y2099D01*
X2947Y2099D01*
X2948Y2099D01*
X2949Y2099D01*
X2950Y2099D01*
X2951Y2099D01*
X2952Y2099D01*
X2953Y2099D01*
X2954Y2099D01*
X2955Y2099D01*
X2956Y2099D01*
X2957Y2099D01*
X2958Y2099D01*
X2959Y2099D01*
X2960Y2099D01*
X2961Y2099D01*
X2962Y2099D01*
X2963Y2099D01*
X2964Y2099D01*
X2965Y2099D01*
X2966Y2099D01*
X2967Y2099D01*
X2968Y2099D01*
X2969Y2099D01*
X2970Y2099D01*
X2971Y2099D01*
X2972Y2099D01*
X2973Y2099D01*
X2974Y2099D01*
X2975Y2099D01*
X2976Y2099D01*
X2977Y2099D01*
X2978Y2099D01*
X2979Y2099D01*
X2980Y2099D01*
X2981Y2099D01*
X2982Y2099D01*
X2983Y2099D01*
X2984Y2099D01*
X2985Y2099D01*
X2986Y2099D01*
X2987Y2099D01*
X2988Y2099D01*
X2989Y2099D01*
X2990Y2099D01*
X2991Y2099D01*
X2992Y2099D01*
X2993Y2099D01*
X2994Y2099D01*
X2995Y2099D01*
X2996Y2099D01*
X2997Y2099D01*
X2998Y2099D01*
X2999Y2099D01*
X3000Y2099D01*
X3001Y2099D01*
X3002Y2099D01*
X3003Y2099D01*
X3004Y2099D01*
X3005Y2099D01*
X3006Y2099D01*
X3007Y2099D01*
X3008Y2099D01*
X3009Y2099D01*
X3010Y2099D01*
X3011Y2099D01*
X3012Y2099D01*
X3013Y2099D01*
X3014Y2099D01*
X3015Y2099D01*
X3016Y2099D01*
X3017Y2099D01*
X3018Y2099D01*
X3019Y2099D01*
X3020Y2099D01*
X3021Y2099D01*
X3022Y2099D01*
X3023Y2099D01*
X3024Y2099D01*
X3025Y2099D01*
X3026Y2099D01*
X3027Y2099D01*
X3028Y2099D01*
X3029Y2099D01*
X3030Y2099D01*
X3031Y2099D01*
X3032Y2099D01*
X3033Y2099D01*
X3034Y2099D01*
X3035Y2099D01*
X3036Y2099D01*
X3037Y2099D01*
X3038Y2099D01*
X3039Y2099D01*
X3040Y2099D01*
X3041Y2099D01*
X3042Y2099D01*
X3043Y2099D01*
X3044Y2099D01*
X3045Y2099D01*
X3046Y2099D01*
X3047Y2099D01*
X3048Y2099D01*
X3049Y2099D01*
X3050Y2099D01*
X3051Y2099D01*
X3052Y2099D01*
X3053Y2099D01*
X3054Y2099D01*
X3055Y2099D01*
X3056Y2099D01*
X3057Y2099D01*
X3058Y2099D01*
X3059Y2099D01*
X3060Y2099D01*
X3061Y2099D01*
X3062Y2099D01*
X3063Y2099D01*
X3064Y2099D01*
X3065Y2099D01*
X3066Y2099D01*
X3067Y2099D01*
X3068Y2099D01*
X3069Y2099D01*
X3070Y2099D01*
X3071Y2099D01*
X3072Y2099D01*
X3073Y2099D01*
X3074Y2099D01*
X3075Y2099D01*
X3076Y2099D01*
X3077Y2099D01*
X3078Y2099D01*
X3079Y2099D01*
X3080Y2099D01*
X3081Y2099D01*
X3082Y2099D01*
X3083Y2099D01*
X3084Y2099D01*
X3085Y2099D01*
X3086Y2099D01*
X3087Y2099D01*
X3088Y2099D01*
X3089Y2099D01*
X3090Y2099D01*
X3091Y2099D01*
X3092Y2099D01*
X3093Y2099D01*
X3094Y2099D01*
X3095Y2099D01*
X3096Y2099D01*
X3097Y2099D01*
X3098Y2099D01*
X3099Y2099D01*
X3100Y2099D01*
X3101Y2099D01*
X3102Y2099D01*
X3103Y2099D01*
X3104Y2099D01*
X3105Y2099D01*
X3106Y2099D01*
X3107Y2099D01*
X3108Y2099D01*
X3109Y2099D01*
X3110Y2099D01*
X3111Y2099D01*
X3112Y2099D01*
X3113Y2099D01*
X3114Y2099D01*
X3115Y2099D01*
X3116Y2099D01*
X3117Y2099D01*
X3118Y2099D01*
X3119Y2099D01*
X3120Y2099D01*
X3121Y2099D01*
X3122Y2099D01*
X3123Y2099D01*
X3124Y2099D01*
X3125Y2099D01*
X3126Y2099D01*
X3127Y2099D01*
X3128Y2099D01*
X3129Y2099D01*
X3130Y2099D01*
X3131Y2099D01*
X3132Y2099D01*
X3133Y2099D01*
X3134Y2099D01*
X3135Y2099D01*
X3136Y2099D01*
X3137Y2099D01*
X3138Y2099D01*
X3139Y2099D01*
X3140Y2099D01*
X3141Y2099D01*
X3142Y2099D01*
X3143Y2099D01*
X3144Y2099D01*
X3145Y2099D01*
X3146Y2099D01*
X3147Y2099D01*
X3148Y2099D01*
X3149Y2099D01*
X3150Y2099D01*
X3151Y2099D01*
X3152Y2099D01*
X3153Y2099D01*
X3154Y2099D01*
X3155Y2099D01*
X3156Y2099D01*
X3157Y2099D01*
X3158Y2099D01*
X3159Y2099D01*
X3160Y2099D01*
X3161Y2099D01*
X3162Y2099D01*
X3163Y2099D01*
X3164Y2099D01*
X3165Y2099D01*
X3166Y2099D01*
X3167Y2099D01*
X3168Y2099D01*
X3169Y2099D01*
X3170Y2099D01*
X3171Y2099D01*
X3172Y2099D01*
X3173Y2099D01*
X3174Y2099D01*
X3175Y2099D01*
X3176Y2099D01*
X3177Y2099D01*
X3178Y2099D01*
X3179Y2099D01*
X3180Y2099D01*
X3181Y2099D01*
X3182Y2099D01*
X3183Y2099D01*
X3184Y2099D01*
X3185Y2099D01*
X3186Y2099D01*
X3187Y2099D01*
X3188Y2099D01*
X3189Y2099D01*
X3190Y2099D01*
X3191Y2099D01*
X3192Y2099D01*
X3193Y2099D01*
X3194Y2099D01*
X3195Y2099D01*
X3196Y2099D01*
X3197Y2099D01*
X3198Y2099D01*
X3199Y2099D01*
X3200Y2099D01*
X3201Y2099D01*
X3202Y2099D01*
X3203Y2099D01*
X3204Y2099D01*
X3205Y2099D01*
X3206Y2099D01*
X3207Y2099D01*
X3208Y2099D01*
X3209Y2099D01*
X3210Y2099D01*
X3211Y2099D01*
X3212Y2099D01*
X3213Y2099D01*
X3214Y2099D01*
X3215Y2099D01*
X3216Y2099D01*
X3217Y2099D01*
X3218Y2099D01*
X3219Y2099D01*
X3220Y2099D01*
X3221Y2099D01*
X3222Y2099D01*
X3223Y2099D01*
X3224Y2099D01*
X3225Y2099D01*
X3226Y2099D01*
X3227Y2099D01*
X3228Y2099D01*
X3229Y2099D01*
X3230Y2099D01*
X3231Y2099D01*
X3232Y2099D01*
X3233Y2099D01*
X3234Y2099D01*
X3235Y2099D01*
X3236Y2099D01*
X3237Y2099D01*
X3238Y2099D01*
X3239Y2099D01*
X3240Y2099D01*
X3241Y2099D01*
X3242Y2099D01*
X3243Y2099D01*
X3244Y2099D01*
X3245Y2099D01*
X3246Y2099D01*
X3247Y2099D01*
X3248Y2099D01*
X3249Y2099D01*
X3250Y2099D01*
X3251Y2099D01*
X3252Y2099D01*
X3253Y2099D01*
X3254Y2099D01*
X3255Y2099D01*
X3256Y2099D01*
X3257Y2099D01*
X3258Y2099D01*
X3259Y2099D01*
X3260Y2099D01*
X3261Y2099D01*
X3262Y2099D01*
X3263Y2099D01*
X3264Y2099D01*
X3265Y2099D01*
X3266Y2099D01*
X3267Y2099D01*
X3268Y2099D01*
X3269Y2099D01*
X3270Y2099D01*
X3271Y2099D01*
X3272Y2099D01*
X3273Y2099D01*
X3274Y2099D01*
X3275Y2099D01*
X3276Y2099D01*
X3277Y2099D01*
X3278Y2099D01*
X3279Y2099D01*
X3280Y2099D01*
X3281Y2099D01*
X3282Y2099D01*
X3283Y2099D01*
X3284Y2099D01*
X3285Y2099D01*
X3286Y2099D01*
X3287Y2099D01*
X3288Y2099D01*
X3289Y2099D01*
X3290Y2099D01*
X3291Y2099D01*
X3292Y2099D01*
X3293Y2099D01*
X3294Y2099D01*
X3295Y2099D01*
X3296Y2099D01*
X3297Y2099D01*
X3298Y2099D01*
X3299Y2099D01*
X3300Y2099D01*
X3301Y2099D01*
X3302Y2099D01*
X3303Y2099D01*
X3304Y2099D01*
X3305Y2099D01*
X3306Y2099D01*
X3307Y2099D01*
X3308Y2099D01*
X3309Y2099D01*
X3310Y2099D01*
X3311Y2099D01*
X3312Y2099D01*
X3313Y2099D01*
X3314Y2099D01*
X3315Y2099D01*
X3316Y2099D01*
X3317Y2099D01*
X3318Y2099D01*
X3319Y2099D01*
X3320Y2099D01*
X3321Y2099D01*
X3322Y2099D01*
X3323Y2099D01*
X3324Y2099D01*
X3325Y2099D01*
X3326Y2099D01*
X3327Y2099D01*
X3328Y2099D01*
X3329Y2099D01*
X3330Y2099D01*
X3331Y2099D01*
X3332Y2099D01*
X3333Y2099D01*
X3334Y2099D01*
X3335Y2099D01*
X3336Y2099D01*
X3337Y2099D01*
X3338Y2099D01*
X3339Y2099D01*
X3340Y2099D01*
X3341Y2099D01*
X3342Y2099D01*
X3343Y2099D01*
X3344Y2099D01*
X3345Y2099D01*
X3346Y2099D01*
X3347Y2099D01*
X3348Y2099D01*
X3349Y2099D01*
X3350Y2099D01*
X3351Y2099D01*
X3352Y2099D01*
X3353Y2099D01*
X3354Y2099D01*
X3355Y2099D01*
X3356Y2099D01*
X3357Y2099D01*
X3358Y2099D01*
X3359Y2099D01*
X3360Y2099D01*
X3361Y2099D01*
X3362Y2099D01*
X3363Y2099D01*
X3364Y2099D01*
X3365Y2099D01*
X3366Y2099D01*
X3367Y2099D01*
X3368Y2099D01*
X3369Y2099D01*
X3370Y2099D01*
X3371Y2099D01*
X3372Y2099D01*
X3373Y2099D01*
X3374Y2099D01*
X3375Y2099D01*
X3376Y2099D01*
X3377Y2099D01*
X3378Y2099D01*
X3379Y2099D01*
X3380Y2099D01*
X3381Y2099D01*
X3382Y2099D01*
X3383Y2099D01*
X3384Y2099D01*
X3385Y2099D01*
X3386Y2099D01*
X3387Y2099D01*
X3388Y2099D01*
X3389Y2099D01*
X3390Y2099D01*
X3391Y2099D01*
X3392Y2099D01*
X3393Y2099D01*
X3394Y2099D01*
X3395Y2099D01*
X3396Y2099D01*
X3397Y2099D01*
X3398Y2099D01*
X3399Y2099D01*
X3400Y2099D01*
X3401Y2099D01*
X3402Y2099D01*
X3403Y2099D01*
X3404Y2099D01*
X3405Y2099D01*
X3406Y2099D01*
X3407Y2099D01*
X3408Y2099D01*
X3409Y2099D01*
X3410Y2099D01*
X3411Y2099D01*
X3412Y2099D01*
X3413Y2099D01*
X3414Y2099D01*
X3415Y2099D01*
X3416Y2099D01*
X3417Y2099D01*
X3418Y2099D01*
X3419Y2099D01*
X3420Y2099D01*
X3421Y2099D01*
X3422Y2099D01*
X3423Y2099D01*
X3424Y2099D01*
X3425Y2099D01*
X3426Y2099D01*
X3427Y2099D01*
X3428Y2099D01*
X3429Y2099D01*
X3430Y2099D01*
X3431Y2099D01*
X3432Y2099D01*
X3433Y2099D01*
X3434Y2099D01*
X3435Y2099D01*
X3436Y2099D01*
X3437Y2099D01*
X3438Y2099D01*
X3439Y2099D01*
X3440Y2099D01*
X3441Y2099D01*
X3442Y2099D01*
X3443Y2099D01*
X3444Y2099D01*
X3445Y2099D01*
X3446Y2099D01*
X3447Y2099D01*
X3448Y2099D01*
X3449Y2099D01*
X3450Y2099D01*
X3451Y2099D01*
X3452Y2099D01*
X3453Y2099D01*
X3454Y2099D01*
X3455Y2099D01*
X3456Y2099D01*
X3457Y2099D01*
X3458Y2099D01*
X3459Y2099D01*
X3460Y2099D01*
X3461Y2099D01*
X3462Y2099D01*
X3463Y2099D01*
X3464Y2099D01*
X3465Y2099D01*
X3466Y2099D01*
X3467Y2099D01*
X3468Y2099D01*
X3469Y2099D01*
X3470Y2099D01*
X3471Y2099D01*
X3472Y2099D01*
X3473Y2099D01*
X3474Y2099D01*
X3475Y2099D01*
X3476Y2099D01*
X3477Y2099D01*
X3478Y2099D01*
X3479Y2099D01*
X3480Y2099D01*
X3481Y2099D01*
X3482Y2099D01*
X3483Y2099D01*
X3484Y2099D01*
X3485Y2099D01*
X3486Y2099D01*
X3487Y2099D01*
X3488Y2099D01*
X3489Y2099D01*
X3490Y2099D01*
X3491Y2099D01*
X3492Y2099D01*
X3493Y2099D01*
X3494Y2099D01*
X3495Y2099D01*
X3496Y2099D01*
X3497Y2099D01*
X3498Y2099D01*
X3499Y2099D01*
X3500Y2099D01*
X3501Y2099D01*
X3502Y2099D01*
X3503Y2099D01*
X3504Y2099D01*
X3505Y2099D01*
X3506Y2099D01*
X3507Y2099D01*
X3508Y2099D01*
X3509Y2099D01*
X3510Y2099D01*
X3511Y2099D01*
X3512Y2099D01*
X3513Y2099D01*
X3514Y2099D01*
X3515Y2099D01*
X3516Y2099D01*
X3517Y2099D01*
X3518Y2099D01*
X3519Y2099D01*
X3520Y2099D01*
X3521Y2099D01*
X3522Y2099D01*
X3523Y2099D01*
X3524Y2099D01*
X3525Y2099D01*
X3526Y2099D01*
X3527Y2099D01*
X3528Y2099D01*
X3529Y2099D01*
X3530Y2099D01*
X3531Y2099D01*
X3532Y2099D01*
X3533Y2099D01*
X3534Y2099D01*
X3535Y2099D01*
X3536Y2099D01*
X3537Y2099D01*
X3538Y2099D01*
X3539Y2099D01*
X3540Y2099D01*
X3541Y2099D01*
X3542Y2099D01*
X3543Y2099D01*
X3544Y2099D01*
X3545Y2099D01*
X3546Y2099D01*
X3547Y2099D01*
X3548Y2099D01*
X3549Y2099D01*
X3550Y2099D01*
X3551Y2099D01*
X3552Y2099D01*
X3553Y2099D01*
X3554Y2099D01*
X3555Y2099D01*
X3556Y2099D01*
X3557Y2099D01*
X3558Y2099D01*
X3559Y2099D01*
X3560Y2099D01*
X3561Y2099D01*
X3562Y2099D01*
X3563Y2099D01*
X3564Y2099D01*
X3565Y2099D01*
X3566Y2099D01*
X3567Y2099D01*
X3568Y2099D01*
X3569Y2099D01*
X3570Y2099D01*
X3571Y2099D01*
X3572Y2099D01*
X3573Y2099D01*
X3574Y2099D01*
X3575Y2099D01*
X3576Y2099D01*
X3577Y2099D01*
X3578Y2099D01*
X3579Y2099D01*
X3580Y2099D01*
X3581Y2099D01*
X3582Y2099D01*
X3583Y2099D01*
X3584Y2099D01*
X3585Y2099D01*
X3586Y2099D01*
X3587Y2099D01*
X3588Y2099D01*
X3589Y2099D01*
X3590Y2099D01*
X3591Y2099D01*
X3592Y2099D01*
X3593Y2099D01*
X3594Y2099D01*
X3595Y2099D01*
X3596Y2099D01*
X3597Y2099D01*
X3598Y2099D01*
X3599Y2099D01*
X3600Y2099D01*
X3601Y2099D01*
X3602Y2099D01*
X3603Y2099D01*
X3604Y2099D01*
X3605Y2099D01*
X3606Y2099D01*
X3607Y2099D01*
X3608Y2099D01*
X3609Y2099D01*
X3610Y2099D01*
X3611Y2099D01*
X3612Y2099D01*
X3613Y2099D01*
X3614Y2099D01*
X3615Y2099D01*
X3616Y2099D01*
X3617Y2099D01*
X3618Y2099D01*
X3619Y2099D01*
X3620Y2099D01*
X3621Y2099D01*
X3622Y2099D01*
X3623Y2099D01*
X3624Y2099D01*
X3625Y2099D01*
X3626Y2099D01*
X3627Y2099D01*
X3628Y2099D01*
X3629Y2099D01*
X3630Y2099D01*
X3631Y2099D01*
X3632Y2099D01*
X3633Y2099D01*
X3634Y2099D01*
X3635Y2099D01*
X3636Y2099D01*
X3637Y2099D01*
X3638Y2099D01*
X3639Y2099D01*
X3640Y2099D01*
X3641Y2099D01*
X3642Y2099D01*
X3643Y2099D01*
X3644Y2099D01*
X3645Y2099D01*
X3646Y2099D01*
X3647Y2099D01*
X3648Y2099D01*
X3649Y2099D01*
X3650Y2099D01*
X3651Y2099D01*
X3652Y2099D01*
X3653Y2099D01*
X3654Y2099D01*
X3655Y2099D01*
X3656Y2099D01*
X3657Y2099D01*
X3658Y2099D01*
X3659Y2099D01*
X3660Y2099D01*
X3661Y2099D01*
X3662Y2099D01*
X3663Y2099D01*
X3664Y2099D01*
X3665Y2099D01*
X3666Y2099D01*
X3667Y2099D01*
X3668Y2099D01*
X3669Y2099D01*
X3670Y2099D01*
X3671Y2099D01*
X3672Y2099D01*
X3673Y2099D01*
X3674Y2099D01*
X3675Y2099D01*
X3676Y2099D01*
X3677Y2099D01*
X3678Y2099D01*
X3679Y2099D01*
X3680Y2099D01*
X3681Y2099D01*
X3682Y2099D01*
X3683Y2099D01*
X3684Y2099D01*
X3685Y2099D01*
X3686Y2099D01*
X3687Y2099D01*
X3688Y2099D01*
X3689Y2099D01*
X3690Y2099D01*
X3691Y2099D01*
X3692Y2099D01*
X3693Y2099D01*
X3694Y2099D01*
X3695Y2099D01*
X3696Y2099D01*
X3697Y2099D01*
X3698Y2099D01*
X3699Y2099D01*
X3700Y2099D01*
X3701Y2099D01*
X3702Y2099D01*
X3703Y2099D01*
X3704Y2099D01*
X3705Y2099D01*
X3706Y2099D01*
X3707Y2099D01*
X3708Y2099D01*
X3709Y2099D01*
X3710Y2099D01*
X3711Y2099D01*
X3712Y2099D01*
X3713Y2099D01*
X3714Y2099D01*
X3715Y2099D01*
X3716Y2099D01*
X3717Y2099D01*
X3718Y2099D01*
X3719Y2099D01*
X3720Y2099D01*
X3721Y2099D01*
X3722Y2099D01*
X3723Y2099D01*
X3724Y2099D01*
X3725Y2099D01*
X3726Y2099D01*
X3727Y2099D01*
X3728Y2099D01*
X3729Y2099D01*
X3730Y2099D01*
X3731Y2099D01*
X3732Y2099D01*
X3733Y2099D01*
X3734Y2099D01*
X3735Y2099D01*
X3736Y2099D01*
X3737Y2099D01*
X3738Y2099D01*
X3739Y2099D01*
X3740Y2099D01*
X3741Y2099D01*
X3742Y2099D01*
X3743Y2099D01*
X3744Y2099D01*
X3745Y2099D01*
X3746Y2099D01*
X3747Y2099D01*
X3748Y2099D01*
X3749Y2099D01*
X3750Y2099D01*
X3751Y2099D01*
X3752Y2099D01*
X3753Y2099D01*
X3754Y2099D01*
X3755Y2099D01*
X3756Y2099D01*
X3757Y2099D01*
X3758Y2099D01*
X3759Y2099D01*
X3760Y2099D01*
X3761Y2099D01*
X3762Y2099D01*
X3763Y2099D01*
X3764Y2099D01*
X3765Y2099D01*
X3766Y2099D01*
X3767Y2099D01*
X3768Y2099D01*
X3769Y2099D01*
X3770Y2099D01*
X3771Y2099D01*
X3772Y2099D01*
X3773Y2099D01*
X3774Y2099D01*
X3775Y2099D01*
X3776Y2099D01*
X3777Y2099D01*
X3778Y2099D01*
X3779Y2099D01*
X3780Y2099D01*
X3781Y2099D01*
X3782Y2099D01*
X3783Y2099D01*
X3784Y2099D01*
X3785Y2099D01*
X3786Y2099D01*
X3787Y2099D01*
X3788Y2099D01*
X3789Y2099D01*
X3790Y2099D01*
X3791Y2099D01*
X3792Y2099D01*
X3793Y2099D01*
X3794Y2099D01*
X3795Y2099D01*
X3796Y2099D01*
X3797Y2099D01*
X3798Y2099D01*
X3799Y2099D01*
X3800Y2098D01*
X3801Y2097D01*
X3802Y2097D01*
X3803Y2096D01*
X3804Y2095D01*
X3805Y2095D01*
X3806Y2094D01*
X3807Y2093D01*
X3808Y2093D01*
X3809Y2092D01*
X3810Y2091D01*
X3811Y2091D01*
X3812Y2090D01*
X3813Y2089D01*
X3814Y2089D01*
X3815Y2088D01*
X3816Y2087D01*
X3817Y2087D01*
X3818Y2086D01*
X3819Y2085D01*
X3820Y2085D01*
X3821Y2084D01*
X3822Y2083D01*
X3823Y2083D01*
X3824Y2082D01*
X3825Y2081D01*
X3826Y2081D01*
X3827Y2080D01*
X3828Y2079D01*
X3829Y2079D01*
X3830Y2078D01*
X3831Y2077D01*
X3832Y2077D01*
X3833Y2076D01*
X3834Y2075D01*
X3835Y2075D01*
X3836Y2074D01*
X3837Y2073D01*
X3838Y2073D01*
X3839Y2072D01*
X3840Y2071D01*
X3841Y2071D01*
X3842Y2070D01*
X3843Y2069D01*
X3844Y2069D01*
X3845Y2068D01*
X3846Y2067D01*
X3847Y2067D01*
X3848Y2066D01*
X3849Y2065D01*
X3850Y2065D01*
X3851Y2064D01*
X3852Y2063D01*
X3853Y2063D01*
X3854Y2062D01*
X3855Y2061D01*
X3856Y2061D01*
X3857Y2060D01*
X3858Y2059D01*
X3859Y2059D01*
X3860Y2058D01*
X3861Y2057D01*
X3862Y2057D01*
X3863Y2056D01*
X3864Y2055D01*
X3865Y2055D01*
X3866Y2054D01*
X3867Y2053D01*
X3868Y2053D01*
X3869Y2052D01*
X3870Y2051D01*
X3871Y2051D01*
X3872Y2050D01*
X3873Y2049D01*
X3874Y2049D01*
X3875Y2048D01*
X3876Y2047D01*
X3877Y2047D01*
X3878Y2046D01*
X3879Y2045D01*
X3880Y2045D01*
X3881Y2044D01*
X3882Y2043D01*
X3883Y2043D01*
X3884Y2042D01*
X3885Y2041D01*
X3886Y2041D01*
X3887Y2040D01*
X3888Y2039D01*
X3888Y1591D01*
X3889Y1590D01*
X3890Y1590D01*
X3891Y1589D01*
X3892Y1588D01*
X3893Y1588D01*
X3894Y1587D01*
X3895Y1586D01*
X3896Y1586D01*
X3897Y1585D01*
X3898Y1584D01*
X3899Y1584D01*
X3900Y1583D01*
X3901Y1582D01*
X3902Y1582D01*
X3903Y1581D01*
X3904Y1580D01*
X3905Y1580D01*
X3906Y1579D01*
X3907Y1578D01*
X3908Y1578D01*
X3909Y1577D01*
X3910Y1576D01*
X3911Y1576D01*
X3912Y1575D01*
X3913Y1574D01*
X3914Y1574D01*
X3915Y1573D01*
X3916Y1572D01*
X3917Y1572D01*
X3918Y1571D01*
X3919Y1570D01*
X3920Y1570D01*
X3921Y1569D01*
X3922Y1568D01*
X3923Y1568D01*
X3924Y1567D01*
X3925Y1566D01*
X3926Y1566D01*
X3927Y1565D01*
X3928Y1564D01*
X3929Y1564D01*
X3930Y1563D01*
X3931Y1562D01*
X3932Y1562D01*
X3933Y1561D01*
X3934Y1560D01*
X3935Y1560D01*
X3936Y1559D01*
X3937Y1558D01*
X3938Y1558D01*
X3939Y1557D01*
X3940Y1556D01*
X3941Y1556D01*
X3942Y1555D01*
X3943Y1554D01*
X3944Y1554D01*
X3945Y1553D01*
X3946Y1552D01*
X3947Y1552D01*
X3948Y1551D01*
X3949Y1550D01*
X3950Y1550D01*
X3951Y1549D01*
X3952Y1548D01*
X3953Y1548D01*
X3954Y1547D01*
X3955Y1546D01*
X3956Y1546D01*
X3957Y1545D01*
X3958Y1544D01*
X3959Y1544D01*
X3960Y1543D01*
X3961Y1542D01*
X3962Y1542D01*
X3963Y1541D01*
X3964Y1540D01*
X3965Y1540D01*
X3966Y1539D01*
X3967Y1538D01*
X3968Y1538D01*
X3969Y1537D01*
X3970Y1536D01*
X3971Y1536D01*
X3972Y1535D01*
X3973Y1534D01*
X3974Y1534D01*
X3975Y1533D01*
X3976Y1532D01*
X3977Y1532D01*
X3978Y1531D01*
X3979Y1530D01*
X3980Y1530D01*
X3981Y1529D01*
X3982Y1528D01*
X3983Y1528D01*
X3984Y1527D01*
X3985Y1526D01*
X3986Y1526D01*
X3987Y1525D01*
X3988Y1524D01*
X3989Y1524D01*
X3990Y1523D01*
X3991Y1522D01*
X3992Y1522D01*
X3993Y1521D01*
X3994Y1520D01*
X3995Y1520D01*
X3996Y1519D01*
X3997Y1518D01*
X3998Y1518D01*
X3999Y1517D01*
X4000Y1516D01*
X4001Y1516D01*
X4002Y1515D01*
X4003Y1514D01*
X4004Y1514D01*
X4005Y1513D01*
X4006Y1512D01*
X4007Y1512D01*
X4008Y1511D01*
X4009Y1510D01*
X4010Y1510D01*
X4011Y1509D01*
X4012Y1508D01*
X4013Y1508D01*
X4014Y1507D01*
X4015Y1506D01*
X4016Y1506D01*
X4017Y1505D01*
X4018Y1504D01*
X4019Y1504D01*
X4020Y1503D01*
X4021Y1502D01*
X4022Y1502D01*
X4023Y1501D01*
X4024Y1500D01*
X4025Y1500D01*
X4026Y1499D01*
X4027Y1498D01*
X4028Y1498D01*
X4029Y1497D01*
X4030Y1496D01*
X4031Y1496D01*
X4032Y1495D01*
X4033Y1494D01*
X4034Y1494D01*
X4035Y1493D01*
X4036Y1492D01*
X4037Y1492D01*
X4037Y207D01*
X4036Y206D01*
X4035Y206D01*
X4034Y205D01*
X4033Y204D01*
X4032Y204D01*
X4031Y203D01*
X4030Y202D01*
X4029Y202D01*
X4028Y201D01*
X4027Y200D01*
X4026Y200D01*
X4025Y199D01*
X4024Y198D01*
X4023Y198D01*
X4022Y197D01*
X4021Y196D01*
X4020Y196D01*
X4019Y195D01*
X4018Y194D01*
X4017Y194D01*
X4016Y193D01*
X4015Y192D01*
X4014Y192D01*
X4013Y191D01*
X4012Y190D01*
X4011Y190D01*
X4010Y189D01*
X4009Y188D01*
X4008Y188D01*
X4007Y187D01*
X4006Y186D01*
X4005Y186D01*
X4004Y185D01*
X4003Y184D01*
X4002Y184D01*
X4001Y183D01*
X4000Y182D01*
X3999Y182D01*
X3998Y181D01*
X3997Y180D01*
X3996Y180D01*
X3995Y179D01*
X3994Y178D01*
X3993Y178D01*
X3992Y177D01*
X3991Y176D01*
X3990Y176D01*
X3989Y175D01*
X3988Y174D01*
X3987Y174D01*
X3986Y173D01*
X3985Y172D01*
X3984Y172D01*
X3983Y171D01*
X3982Y170D01*
X3981Y170D01*
X3980Y169D01*
X3979Y168D01*
X3978Y168D01*
X3977Y167D01*
X3976Y166D01*
X3975Y166D01*
X3974Y165D01*
X3973Y164D01*
X3972Y164D01*
X3971Y163D01*
X3970Y162D01*
X3969Y162D01*
X3968Y161D01*
X3967Y160D01*
X3966Y160D01*
X3965Y159D01*
X3964Y158D01*
X3963Y158D01*
X3962Y157D01*
X3961Y156D01*
X3960Y156D01*
X3959Y155D01*
X3958Y154D01*
X3957Y154D01*
X3956Y153D01*
X3955Y152D01*
X3954Y152D01*
X3953Y151D01*
X3952Y150D01*
X3951Y150D01*
X3950Y149D01*
X3949Y148D01*
X3948Y148D01*
X3947Y147D01*
X3946Y146D01*
X3945Y146D01*
X3944Y145D01*
X3943Y144D01*
X3942Y144D01*
X3941Y143D01*
X3940Y142D01*
X3939Y142D01*
X3938Y141D01*
X3937Y140D01*
X3936Y140D01*
X3935Y139D01*
X3934Y138D01*
X3933Y138D01*
X3932Y137D01*
X3931Y136D01*
X3930Y136D01*
X3929Y135D01*
X3928Y134D01*
X3927Y134D01*
X3926Y133D01*
X3925Y132D01*
X3924Y132D01*
X3923Y131D01*
X3922Y130D01*
X3921Y130D01*
X3920Y129D01*
X3919Y128D01*
X3918Y128D01*
X3917Y127D01*
X3916Y126D01*
X3915Y126D01*
X3914Y125D01*
X3913Y124D01*
X3912Y124D01*
X3911Y123D01*
X3910Y122D01*
X3909Y122D01*
X3908Y121D01*
X3907Y120D01*
X3906Y120D01*
X3905Y119D01*
X3904Y118D01*
X3903Y118D01*
X3902Y117D01*
X3901Y116D01*
X3900Y116D01*
X3899Y115D01*
X3898Y114D01*
X3897Y114D01*
X3896Y113D01*
X3895Y112D01*
X3894Y112D01*
X3893Y111D01*
X3892Y110D01*
X3891Y110D01*
X3890Y109D01*
X3889Y108D01*
X3888Y107D01*
X3888Y38D01*
X3887Y37D01*
X3887Y35D01*
X3886Y34D01*
X3886Y33D01*
X3885Y32D01*
X3885Y31D01*
X3884Y30D01*
X3884Y29D01*
X3883Y28D01*
X3882Y27D01*
X3882Y26D01*
X3881Y25D01*
X3880Y24D01*
X3879Y23D01*
X3878Y22D01*
X3877Y21D01*
X3876Y21D01*
X3875Y20D01*
X3874Y19D01*
X3873Y18D01*
X3872Y18D01*
X3871Y17D01*
X3870Y16D01*
X3869Y16D01*
X3868Y15D01*
X3867Y15D01*
X3866Y14D01*
X3865Y14D01*
X3864Y14D01*
X3863Y13D01*
X3862Y13D01*
X3861Y12D01*
X3860Y12D01*
X3859Y12D01*
X3858Y11D01*
X3857Y11D01*
X3856Y11D01*
X3855Y10D01*
X3854Y10D01*
X3853Y10D01*
X3852Y10D01*
X3851Y10D01*
X3850Y9D01*
X3849Y9D01*
X3848Y9D01*
X3847Y9D01*
X3846Y9D01*
X3845Y9D01*
X3844Y8D01*
X3843Y8D01*
X3842Y8D01*
X3841Y8D01*
X3840Y8D01*
X3839Y8D01*
X3838Y8D01*
X3837Y8D01*
X3836Y8D01*
X3835Y8D01*
X3834Y8D01*
X3833Y8D01*
X3832Y8D01*
X3831Y8D01*
X3830Y8D01*
X3829Y8D01*
X3828Y8D01*
X3827Y8D01*
X3826Y8D01*
X3825Y8D01*
X3824Y8D01*
X3823Y8D01*
X3822Y8D01*
X3821Y8D01*
X3820Y8D01*
X3819Y8D01*
X3818Y8D01*
X3817Y8D01*
X3816Y8D01*
X3815Y8D01*
X3814Y8D01*
X3813Y8D01*
X3812Y8D01*
X3811Y8D01*
X3810Y8D01*
X3809Y8D01*
X3808Y8D01*
X3807Y8D01*
X3806Y8D01*
X3805Y8D01*
X3804Y8D01*
X3803Y8D01*
X3802Y8D01*
X3801Y8D01*
X3800Y8D01*
X3799Y8D01*
X3798Y8D01*
X3797Y8D01*
X3796Y8D01*
X3795Y8D01*
X3794Y8D01*
X3793Y8D01*
X3792Y8D01*
X3791Y8D01*
X3790Y8D01*
X3789Y8D01*
X3788Y8D01*
X3787Y8D01*
X3786Y8D01*
X3785Y8D01*
X3784Y8D01*
X3783Y8D01*
X3782Y8D01*
X3781Y8D01*
X3780Y8D01*
X3779Y8D01*
X3778Y8D01*
X3777Y8D01*
X3776Y8D01*
X3775Y8D01*
X3774Y8D01*
X3773Y8D01*
X3772Y8D01*
X3771Y8D01*
X3770Y8D01*
X3769Y8D01*
X3768Y8D01*
X3767Y8D01*
X3766Y8D01*
X3765Y8D01*
X3764Y8D01*
X3763Y8D01*
X3762Y8D01*
X3761Y8D01*
X3760Y8D01*
X3759Y8D01*
X3758Y8D01*
X3757Y8D01*
X3756Y8D01*
X3755Y8D01*
X3754Y8D01*
X3753Y8D01*
X3752Y8D01*
X3751Y8D01*
X3750Y8D01*
X3749Y8D01*
X3748Y8D01*
X3747Y8D01*
X3746Y8D01*
X3745Y8D01*
X3744Y8D01*
X3743Y8D01*
X3742Y8D01*
X3741Y8D01*
X3740Y8D01*
X3739Y8D01*
X3738Y8D01*
X3737Y8D01*
X3736Y8D01*
X3735Y8D01*
X3734Y8D01*
X3733Y8D01*
X3732Y8D01*
X3731Y8D01*
X3730Y8D01*
X3729Y8D01*
X3728Y8D01*
X3727Y8D01*
X3726Y8D01*
X3725Y8D01*
X3724Y8D01*
X3723Y8D01*
X3722Y8D01*
X3721Y8D01*
X3720Y8D01*
X3719Y8D01*
X3718Y8D01*
X3717Y8D01*
X3716Y8D01*
X3715Y8D01*
X3714Y8D01*
X3713Y8D01*
X3712Y8D01*
X3711Y8D01*
X3710Y8D01*
X3709Y8D01*
X3708Y8D01*
X3707Y8D01*
X3706Y8D01*
X3705Y8D01*
X3704Y8D01*
X3703Y8D01*
X3702Y8D01*
X3701Y8D01*
X3700Y8D01*
X3699Y8D01*
X3698Y8D01*
X3697Y8D01*
X3696Y8D01*
X3695Y8D01*
X3694Y8D01*
X3693Y8D01*
X3692Y8D01*
X3691Y8D01*
X3690Y8D01*
X3689Y8D01*
X3688Y8D01*
X3687Y8D01*
X3686Y8D01*
X3685Y8D01*
X3684Y8D01*
X3683Y8D01*
X3682Y8D01*
X3681Y8D01*
X3680Y8D01*
X3679Y8D01*
X3678Y8D01*
X3677Y8D01*
X3676Y8D01*
X3675Y8D01*
X3674Y8D01*
X3673Y8D01*
X3672Y8D01*
X3671Y8D01*
X3670Y8D01*
X3669Y8D01*
X3668Y8D01*
X3667Y8D01*
X3666Y8D01*
X3665Y8D01*
X3664Y8D01*
X3663Y8D01*
X3662Y8D01*
X3661Y8D01*
X3660Y8D01*
X3659Y8D01*
X3658Y8D01*
X3657Y8D01*
X3656Y8D01*
X3655Y8D01*
X3654Y8D01*
X3653Y8D01*
X3652Y8D01*
X3651Y8D01*
X3650Y8D01*
X3649Y8D01*
X3648Y8D01*
X3647Y8D01*
X3646Y8D01*
X3645Y8D01*
X3644Y8D01*
X3643Y8D01*
X3642Y8D01*
X3641Y8D01*
X3640Y8D01*
X3639Y8D01*
X3638Y8D01*
X3637Y8D01*
X3636Y8D01*
X3635Y8D01*
X3634Y8D01*
X3633Y8D01*
X3632Y8D01*
X3631Y8D01*
X3630Y8D01*
X3629Y8D01*
X3628Y8D01*
X3627Y8D01*
X3626Y8D01*
X3625Y8D01*
X3624Y8D01*
X3623Y8D01*
X3622Y8D01*
X3621Y8D01*
X3620Y8D01*
X3619Y8D01*
X3618Y8D01*
X3617Y8D01*
X3616Y8D01*
X3615Y8D01*
X3614Y8D01*
X3613Y8D01*
X3612Y8D01*
X3611Y8D01*
X3610Y8D01*
X3609Y8D01*
X3608Y8D01*
X3607Y8D01*
X3606Y8D01*
X3605Y8D01*
X3604Y8D01*
X3603Y8D01*
X3602Y8D01*
X3601Y8D01*
X3600Y8D01*
X3599Y8D01*
X3598Y8D01*
X3597Y8D01*
X3596Y8D01*
X3595Y8D01*
X3594Y8D01*
X3593Y8D01*
X3592Y8D01*
X3591Y8D01*
X3590Y8D01*
X3589Y8D01*
X3588Y8D01*
X3587Y8D01*
X3586Y8D01*
X3585Y8D01*
X3584Y8D01*
X3583Y8D01*
X3582Y8D01*
X3581Y8D01*
X3580Y8D01*
X3579Y8D01*
X3578Y8D01*
X3577Y8D01*
X3576Y8D01*
X3575Y8D01*
X3574Y8D01*
X3573Y8D01*
X3572Y8D01*
X3571Y8D01*
X3570Y8D01*
X3569Y8D01*
X3568Y8D01*
X3567Y8D01*
X3566Y8D01*
X3565Y8D01*
X3564Y8D01*
X3563Y8D01*
X3562Y8D01*
X3561Y8D01*
X3560Y8D01*
X3559Y8D01*
X3558Y8D01*
X3557Y8D01*
X3556Y8D01*
X3555Y8D01*
X3554Y8D01*
X3553Y8D01*
X3552Y8D01*
X3551Y8D01*
X3550Y8D01*
X3549Y8D01*
X3548Y8D01*
X3547Y8D01*
X3546Y8D01*
X3545Y8D01*
X3544Y8D01*
X3543Y8D01*
X3542Y8D01*
X3541Y8D01*
X3540Y8D01*
X3539Y8D01*
X3538Y8D01*
X3537Y8D01*
X3536Y8D01*
X3535Y8D01*
X3534Y8D01*
X3533Y8D01*
X3532Y8D01*
X3531Y8D01*
X3530Y8D01*
X3529Y8D01*
X3528Y8D01*
X3527Y8D01*
X3526Y8D01*
X3525Y8D01*
X3524Y8D01*
X3523Y8D01*
X3522Y8D01*
X3521Y8D01*
X3520Y8D01*
X3519Y8D01*
X3518Y8D01*
X3517Y8D01*
X3516Y8D01*
X3515Y8D01*
X3514Y8D01*
X3513Y8D01*
X3512Y8D01*
X3511Y8D01*
X3510Y8D01*
X3509Y8D01*
X3508Y8D01*
X3507Y8D01*
X3506Y8D01*
X3505Y8D01*
X3504Y8D01*
X3503Y8D01*
X3502Y8D01*
X3501Y8D01*
X3500Y8D01*
X3499Y8D01*
X3498Y8D01*
X3497Y8D01*
X3496Y8D01*
X3495Y8D01*
X3494Y8D01*
X3493Y8D01*
X3492Y8D01*
X3491Y8D01*
X3490Y8D01*
X3489Y8D01*
X3488Y8D01*
X3487Y8D01*
X3486Y8D01*
X3485Y8D01*
X3484Y8D01*
X3483Y8D01*
X3482Y8D01*
X3481Y8D01*
X3480Y8D01*
X3479Y8D01*
X3478Y8D01*
X3477Y8D01*
X3476Y8D01*
X3475Y8D01*
X3474Y8D01*
X3473Y8D01*
X3472Y8D01*
X3471Y8D01*
X3470Y8D01*
X3469Y8D01*
X3468Y8D01*
X3467Y8D01*
X3466Y8D01*
X3465Y8D01*
X3464Y8D01*
X3463Y8D01*
X3462Y8D01*
X3461Y8D01*
X3460Y8D01*
X3459Y8D01*
X3458Y8D01*
X3457Y8D01*
X3456Y8D01*
X3455Y8D01*
X3454Y8D01*
X3453Y8D01*
X3452Y8D01*
X3451Y8D01*
X3450Y8D01*
X3449Y8D01*
X3448Y8D01*
X3447Y8D01*
X3446Y8D01*
X3445Y8D01*
X3444Y8D01*
X3443Y8D01*
X3442Y8D01*
X3441Y8D01*
X3440Y8D01*
X3439Y8D01*
X3438Y8D01*
X3437Y8D01*
X3436Y8D01*
X3435Y8D01*
X3434Y8D01*
X3433Y8D01*
X3432Y8D01*
X3431Y8D01*
X3430Y8D01*
X3429Y8D01*
X3428Y8D01*
X3427Y8D01*
X3426Y8D01*
X3425Y8D01*
X3424Y8D01*
X3423Y8D01*
X3422Y8D01*
X3421Y8D01*
X3420Y8D01*
X3419Y8D01*
X3418Y8D01*
X3417Y8D01*
X3416Y8D01*
X3415Y8D01*
X3414Y8D01*
X3413Y8D01*
X3412Y8D01*
X3411Y8D01*
X3410Y8D01*
X3409Y8D01*
X3408Y8D01*
X3407Y8D01*
X3406Y8D01*
X3405Y8D01*
X3404Y8D01*
X3403Y8D01*
X3402Y8D01*
X3401Y8D01*
X3400Y8D01*
X3399Y8D01*
X3398Y8D01*
X3397Y8D01*
X3396Y8D01*
X3395Y8D01*
X3394Y8D01*
X3393Y8D01*
X3392Y8D01*
X3391Y8D01*
X3390Y8D01*
X3389Y8D01*
X3388Y8D01*
X3387Y8D01*
X3386Y8D01*
X3385Y8D01*
X3384Y8D01*
X3383Y8D01*
X3382Y8D01*
X3381Y8D01*
X3380Y8D01*
X3379Y8D01*
X3378Y8D01*
X3377Y8D01*
X3376Y8D01*
X3375Y8D01*
X3374Y8D01*
X3373Y8D01*
X3372Y8D01*
X3371Y8D01*
X3370Y8D01*
X3369Y8D01*
X3368Y8D01*
X3367Y8D01*
X3366Y8D01*
X3365Y8D01*
X3364Y8D01*
X3363Y8D01*
X3362Y8D01*
X3361Y8D01*
X3360Y8D01*
X3359Y8D01*
X3358Y8D01*
X3357Y8D01*
X3356Y8D01*
X3355Y8D01*
X3354Y8D01*
X3353Y8D01*
X3352Y8D01*
X3351Y8D01*
X3350Y8D01*
X3349Y8D01*
X3348Y8D01*
X3347Y8D01*
X3346Y8D01*
X3345Y8D01*
X3344Y8D01*
X3343Y8D01*
X3342Y8D01*
X3341Y8D01*
X3340Y8D01*
X3339Y8D01*
X3338Y8D01*
X3337Y8D01*
X3336Y8D01*
X3335Y8D01*
X3334Y8D01*
X3333Y8D01*
X3332Y8D01*
X3331Y8D01*
X3330Y8D01*
X3329Y8D01*
X3328Y8D01*
X3327Y8D01*
X3326Y8D01*
X3325Y8D01*
X3324Y8D01*
X3323Y8D01*
X3322Y8D01*
X3321Y8D01*
X3320Y8D01*
X3319Y8D01*
X3318Y8D01*
X3317Y8D01*
X3316Y8D01*
X3315Y8D01*
X3314Y8D01*
X3313Y8D01*
X3312Y8D01*
X3311Y8D01*
X3310Y8D01*
X3309Y8D01*
X3308Y8D01*
X3307Y8D01*
X3306Y8D01*
X3305Y8D01*
X3304Y8D01*
X3303Y8D01*
X3302Y8D01*
X3301Y8D01*
X3300Y8D01*
X3299Y8D01*
X3298Y8D01*
X3297Y8D01*
X3296Y8D01*
X3295Y8D01*
X3294Y8D01*
X3293Y8D01*
X3292Y8D01*
X3291Y8D01*
X3290Y8D01*
X3289Y8D01*
X3288Y8D01*
X3287Y8D01*
X3286Y8D01*
X3285Y8D01*
X3284Y8D01*
X3283Y8D01*
X3282Y8D01*
X3281Y8D01*
X3280Y8D01*
X3279Y8D01*
X3278Y8D01*
X3277Y8D01*
X3276Y8D01*
X3275Y8D01*
X3274Y8D01*
X3273Y8D01*
X3272Y8D01*
X3271Y8D01*
X3270Y8D01*
X3269Y8D01*
X3268Y8D01*
X3267Y8D01*
X3266Y8D01*
X3265Y8D01*
X3264Y8D01*
X3263Y8D01*
X3262Y8D01*
X3261Y8D01*
X3260Y8D01*
X3259Y8D01*
X3258Y8D01*
X3257Y8D01*
X3256Y8D01*
X3255Y8D01*
X3254Y8D01*
X3253Y8D01*
X3252Y8D01*
X3251Y8D01*
X3250Y8D01*
X3249Y8D01*
X3248Y8D01*
X3247Y8D01*
X3246Y8D01*
X3245Y8D01*
X3244Y8D01*
X3243Y8D01*
X3242Y8D01*
X3241Y8D01*
X3240Y8D01*
X3239Y8D01*
X3238Y8D01*
X3237Y8D01*
X3236Y8D01*
X3235Y8D01*
X3234Y8D01*
X3233Y8D01*
X3232Y8D01*
X3231Y8D01*
X3230Y8D01*
X3229Y8D01*
X3228Y8D01*
X3227Y8D01*
X3226Y8D01*
X3225Y8D01*
X3224Y8D01*
X3223Y8D01*
X3222Y8D01*
X3221Y8D01*
X3220Y8D01*
X3219Y8D01*
X3218Y8D01*
X3217Y8D01*
X3216Y8D01*
X3215Y8D01*
X3214Y8D01*
X3213Y8D01*
X3212Y8D01*
X3211Y8D01*
X3210Y8D01*
X3209Y8D01*
X3208Y8D01*
X3207Y8D01*
X3206Y8D01*
X3205Y8D01*
X3204Y8D01*
X3203Y8D01*
X3202Y8D01*
X3201Y8D01*
X3200Y8D01*
X3199Y8D01*
X3198Y8D01*
X3197Y8D01*
X3196Y8D01*
X3195Y8D01*
X3194Y8D01*
X3193Y8D01*
X3192Y8D01*
X3191Y8D01*
X3190Y8D01*
X3189Y8D01*
X3188Y8D01*
X3187Y8D01*
X3186Y8D01*
X3185Y8D01*
X3184Y8D01*
X3183Y8D01*
X3182Y8D01*
X3181Y8D01*
X3180Y8D01*
X3179Y8D01*
X3178Y8D01*
X3177Y8D01*
X3176Y8D01*
X3175Y8D01*
X3174Y8D01*
X3173Y8D01*
X3172Y8D01*
X3171Y8D01*
X3170Y8D01*
X3169Y8D01*
X3168Y8D01*
X3167Y8D01*
X3166Y8D01*
X3165Y8D01*
X3164Y8D01*
X3163Y8D01*
X3162Y8D01*
X3161Y8D01*
X3160Y8D01*
X3159Y8D01*
X3158Y8D01*
X3157Y8D01*
X3156Y8D01*
X3155Y8D01*
X3154Y8D01*
X3153Y8D01*
X3152Y8D01*
X3151Y8D01*
X3150Y8D01*
X3149Y8D01*
X3148Y8D01*
X3147Y8D01*
X3146Y8D01*
X3145Y8D01*
X3144Y8D01*
X3143Y8D01*
X3142Y8D01*
X3141Y8D01*
X3140Y8D01*
X3139Y8D01*
X3138Y8D01*
X3137Y8D01*
X3136Y8D01*
X3135Y8D01*
X3134Y8D01*
X3133Y8D01*
X3132Y8D01*
X3131Y8D01*
X3130Y8D01*
X3129Y8D01*
X3128Y8D01*
X3127Y8D01*
X3126Y8D01*
X3125Y8D01*
X3124Y8D01*
X3123Y8D01*
X3122Y8D01*
X3121Y8D01*
X3120Y8D01*
X3119Y8D01*
X3118Y8D01*
X3117Y8D01*
X3116Y8D01*
X3115Y8D01*
X3114Y8D01*
X3113Y8D01*
X3112Y8D01*
X3111Y8D01*
X3110Y8D01*
X3109Y8D01*
X3108Y8D01*
X3107Y8D01*
X3106Y8D01*
X3105Y8D01*
X3104Y8D01*
X3103Y8D01*
X3102Y8D01*
X3101Y8D01*
X3100Y8D01*
X3099Y8D01*
X3098Y8D01*
X3097Y8D01*
X3096Y8D01*
X3095Y8D01*
X3094Y8D01*
X3093Y8D01*
X3092Y8D01*
X3091Y8D01*
X3090Y8D01*
X3089Y8D01*
X3088Y8D01*
X3087Y8D01*
X3086Y8D01*
X3085Y8D01*
X3084Y8D01*
X3083Y8D01*
X3082Y8D01*
X3081Y8D01*
X3080Y8D01*
X3079Y8D01*
X3078Y8D01*
X3077Y8D01*
X3076Y8D01*
X3075Y8D01*
X3074Y8D01*
X3073Y8D01*
X3072Y8D01*
X3071Y8D01*
X3070Y8D01*
X3069Y8D01*
X3068Y8D01*
X3067Y8D01*
X3066Y8D01*
X3065Y8D01*
X3064Y8D01*
X3063Y8D01*
X3062Y8D01*
X3061Y8D01*
X3060Y8D01*
X3059Y8D01*
X3058Y8D01*
X3057Y8D01*
X3056Y8D01*
X3055Y8D01*
X3054Y8D01*
X3053Y8D01*
X3052Y8D01*
X3051Y8D01*
X3050Y8D01*
X3049Y8D01*
X3048Y8D01*
X3047Y8D01*
X3046Y8D01*
X3045Y8D01*
X3044Y8D01*
X3043Y8D01*
X3042Y8D01*
X3041Y8D01*
X3040Y8D01*
X3039Y8D01*
X3038Y8D01*
X3037Y8D01*
X3036Y8D01*
X3035Y8D01*
X3034Y8D01*
X3033Y8D01*
X3032Y8D01*
X3031Y8D01*
X3030Y8D01*
X3029Y8D01*
X3028Y8D01*
X3027Y8D01*
X3026Y8D01*
X3025Y8D01*
X3024Y8D01*
X3023Y8D01*
X3022Y8D01*
X3021Y8D01*
X3020Y8D01*
X3019Y8D01*
X3018Y8D01*
X3017Y8D01*
X3016Y8D01*
X3015Y8D01*
X3014Y8D01*
X3013Y8D01*
X3012Y8D01*
X3011Y8D01*
X3010Y8D01*
X3009Y8D01*
X3008Y8D01*
X3007Y8D01*
X3006Y8D01*
X3005Y8D01*
X3004Y8D01*
X3003Y8D01*
X3002Y8D01*
X3001Y8D01*
X3000Y8D01*
X2999Y8D01*
X2998Y8D01*
X2997Y8D01*
X2996Y8D01*
X2995Y8D01*
X2994Y8D01*
X2993Y8D01*
X2992Y8D01*
X2991Y8D01*
X2990Y8D01*
X2989Y8D01*
X2988Y8D01*
X2987Y8D01*
X2986Y8D01*
X2985Y8D01*
X2984Y8D01*
X2983Y8D01*
X2982Y8D01*
X2981Y8D01*
X2980Y8D01*
X2979Y8D01*
X2978Y8D01*
X2977Y8D01*
X2976Y8D01*
X2975Y8D01*
X2974Y8D01*
X2973Y8D01*
X2972Y8D01*
X2971Y8D01*
X2970Y8D01*
X2969Y8D01*
X2968Y8D01*
X2967Y8D01*
X2966Y8D01*
X2965Y8D01*
X2964Y8D01*
X2963Y8D01*
X2962Y8D01*
X2961Y8D01*
X2960Y8D01*
X2959Y8D01*
X2958Y8D01*
X2957Y8D01*
X2956Y8D01*
X2955Y8D01*
X2954Y8D01*
X2953Y8D01*
X2952Y8D01*
X2951Y8D01*
X2950Y8D01*
X2949Y8D01*
X2948Y8D01*
X2947Y8D01*
X2946Y8D01*
X2945Y8D01*
X2944Y8D01*
X2943Y8D01*
X2942Y8D01*
X2941Y8D01*
X2940Y8D01*
X2939Y8D01*
X2938Y8D01*
X2937Y8D01*
X2936Y8D01*
X2935Y8D01*
X2934Y8D01*
X2933Y8D01*
X2932Y8D01*
X2931Y8D01*
X2930Y8D01*
X2929Y8D01*
X2928Y8D01*
X2927Y8D01*
X2926Y8D01*
X2925Y8D01*
X2924Y8D01*
X2923Y8D01*
X2922Y8D01*
X2921Y8D01*
X2920Y8D01*
X2919Y8D01*
X2918Y8D01*
X2917Y8D01*
X2916Y8D01*
X2915Y8D01*
X2914Y8D01*
X2913Y8D01*
X2912Y8D01*
X2911Y8D01*
X2910Y8D01*
X2909Y8D01*
X2908Y8D01*
X2907Y8D01*
X2906Y8D01*
X2905Y8D01*
X2904Y8D01*
X2903Y8D01*
X2902Y8D01*
X2901Y8D01*
X2900Y8D01*
X2899Y8D01*
X2898Y8D01*
X2897Y8D01*
X2896Y8D01*
X2895Y8D01*
X2894Y8D01*
X2893Y8D01*
X2892Y8D01*
X2891Y8D01*
X2890Y8D01*
X2889Y8D01*
X2888Y8D01*
X2887Y8D01*
X2886Y8D01*
X2885Y8D01*
X2884Y8D01*
X2883Y8D01*
X2882Y8D01*
X2881Y8D01*
X2880Y8D01*
X2879Y8D01*
X2878Y8D01*
X2877Y8D01*
X2876Y8D01*
X2875Y8D01*
X2874Y8D01*
X2873Y8D01*
X2872Y8D01*
X2871Y8D01*
X2870Y8D01*
X2869Y8D01*
X2868Y8D01*
X2867Y8D01*
X2866Y8D01*
X2865Y8D01*
X2864Y8D01*
X2863Y8D01*
X2862Y8D01*
X2861Y8D01*
X2860Y8D01*
X2859Y8D01*
X2858Y8D01*
X2857Y8D01*
X2856Y8D01*
X2855Y8D01*
X2854Y8D01*
X2853Y8D01*
X2852Y8D01*
X2851Y8D01*
X2850Y8D01*
X2849Y8D01*
X2848Y8D01*
X2847Y8D01*
X2846Y8D01*
X2845Y8D01*
X2844Y8D01*
X2843Y8D01*
X2842Y8D01*
X2841Y8D01*
X2840Y8D01*
X2839Y8D01*
X2838Y8D01*
X2837Y8D01*
X2836Y8D01*
X2835Y8D01*
X2834Y8D01*
X2833Y8D01*
X2832Y8D01*
X2831Y8D01*
X2830Y8D01*
X2829Y8D01*
X2828Y8D01*
X2827Y8D01*
X2826Y8D01*
X2825Y8D01*
X2824Y8D01*
X2823Y8D01*
X2822Y8D01*
X2821Y8D01*
X2820Y8D01*
X2819Y8D01*
X2818Y8D01*
X2817Y8D01*
X2816Y8D01*
X2815Y8D01*
X2814Y8D01*
X2813Y8D01*
X2812Y8D01*
X2811Y8D01*
X2810Y8D01*
X2809Y8D01*
X2808Y8D01*
X2807Y8D01*
X2806Y8D01*
X2805Y8D01*
X2804Y8D01*
X2803Y8D01*
X2802Y8D01*
X2801Y8D01*
X2800Y8D01*
X2799Y8D01*
X2798Y8D01*
X2797Y8D01*
X2796Y8D01*
X2795Y8D01*
X2794Y8D01*
X2793Y8D01*
X2792Y8D01*
X2791Y8D01*
X2790Y8D01*
X2789Y8D01*
X2788Y8D01*
X2787Y8D01*
X2786Y8D01*
X2785Y8D01*
X2784Y8D01*
X2783Y8D01*
X2782Y8D01*
X2781Y8D01*
X2780Y8D01*
X2779Y8D01*
X2778Y8D01*
X2777Y8D01*
X2776Y8D01*
X2775Y8D01*
X2774Y8D01*
X2773Y8D01*
X2772Y8D01*
X2771Y8D01*
X2770Y8D01*
X2769Y8D01*
X2768Y8D01*
X2767Y8D01*
X2766Y8D01*
X2765Y8D01*
X2764Y8D01*
X2763Y8D01*
X2762Y8D01*
X2761Y8D01*
X2760Y8D01*
X2759Y8D01*
X2758Y8D01*
X2757Y8D01*
X2756Y8D01*
X2755Y8D01*
X2754Y8D01*
X2753Y8D01*
X2752Y8D01*
X2751Y8D01*
X2750Y8D01*
X2749Y8D01*
X2748Y8D01*
X2747Y8D01*
X2746Y8D01*
X2745Y8D01*
X2744Y8D01*
X2743Y8D01*
X2742Y8D01*
X2741Y8D01*
X2740Y8D01*
X2739Y8D01*
X2738Y8D01*
X2737Y8D01*
X2736Y8D01*
X2735Y8D01*
X2734Y8D01*
X2733Y8D01*
X2732Y8D01*
X2731Y8D01*
X2730Y8D01*
X2729Y8D01*
X2728Y8D01*
X2727Y8D01*
X2726Y8D01*
X2725Y8D01*
X2724Y8D01*
X2723Y8D01*
X2722Y8D01*
X2721Y8D01*
X2720Y8D01*
X2719Y8D01*
X2718Y8D01*
X2717Y8D01*
X2716Y8D01*
X2715Y8D01*
X2714Y8D01*
X2713Y8D01*
X2712Y8D01*
X2711Y8D01*
X2710Y8D01*
X2709Y8D01*
X2708Y8D01*
X2707Y8D01*
X2706Y8D01*
X2705Y8D01*
X2704Y8D01*
X2703Y8D01*
X2702Y8D01*
X2701Y8D01*
X2700Y8D01*
X2699Y8D01*
X2698Y8D01*
X2697Y8D01*
X2696Y8D01*
X2695Y8D01*
X2694Y8D01*
X2693Y8D01*
X2692Y8D01*
X2691Y8D01*
X2690Y8D01*
X2689Y8D01*
X2688Y8D01*
X2687Y8D01*
X2686Y8D01*
X2685Y8D01*
X2684Y8D01*
X2683Y8D01*
X2682Y8D01*
X2681Y8D01*
X2680Y8D01*
X2679Y8D01*
X2678Y8D01*
X2677Y8D01*
X2676Y8D01*
X2675Y8D01*
X2674Y8D01*
X2673Y8D01*
X2672Y8D01*
X2671Y8D01*
X2670Y8D01*
X2669Y8D01*
X2668Y8D01*
X2667Y8D01*
X2666Y8D01*
X2665Y8D01*
X2664Y8D01*
X2663Y8D01*
X2662Y8D01*
X2661Y8D01*
X2660Y8D01*
X2659Y8D01*
X2658Y8D01*
X2657Y8D01*
X2656Y8D01*
X2655Y8D01*
X2654Y8D01*
X2653Y8D01*
X2652Y8D01*
X2651Y8D01*
X2650Y8D01*
X2649Y8D01*
X2648Y8D01*
X2647Y8D01*
X2646Y8D01*
X2645Y8D01*
X2644Y8D01*
X2643Y8D01*
X2642Y8D01*
X2641Y8D01*
X2640Y8D01*
X2639Y8D01*
X2638Y8D01*
X2637Y8D01*
X2636Y8D01*
X2635Y8D01*
X2634Y8D01*
X2633Y8D01*
X2632Y8D01*
X2631Y8D01*
X2630Y8D01*
X2629Y8D01*
X2628Y8D01*
X2627Y8D01*
X2626Y8D01*
X2625Y8D01*
X2624Y8D01*
X2623Y8D01*
X2622Y8D01*
X2621Y8D01*
X2620Y8D01*
X2619Y8D01*
X2618Y8D01*
X2617Y8D01*
X2616Y8D01*
X2615Y8D01*
X2614Y8D01*
X2613Y8D01*
X2612Y8D01*
X2611Y8D01*
X2610Y8D01*
X2609Y8D01*
X2608Y8D01*
X2607Y8D01*
X2606Y8D01*
X2605Y8D01*
X2604Y8D01*
X2603Y8D01*
X2602Y8D01*
X2601Y8D01*
X2600Y8D01*
X2599Y8D01*
X2598Y8D01*
X2597Y8D01*
X2596Y8D01*
X2595Y8D01*
X2594Y8D01*
X2593Y8D01*
X2592Y8D01*
X2591Y8D01*
X2590Y8D01*
X2589Y8D01*
X2588Y8D01*
X2587Y8D01*
X2586Y8D01*
X2585Y8D01*
X2584Y8D01*
X2583Y8D01*
X2582Y8D01*
X2581Y8D01*
X2580Y8D01*
X2579Y8D01*
X2578Y8D01*
X2577Y8D01*
X2576Y8D01*
X2575Y8D01*
X2574Y8D01*
X2573Y8D01*
X2572Y8D01*
X2571Y8D01*
X2570Y8D01*
X2569Y8D01*
X2568Y8D01*
X2567Y8D01*
X2566Y8D01*
X2565Y8D01*
X2564Y8D01*
X2563Y8D01*
X2562Y8D01*
X2561Y8D01*
X2560Y8D01*
X2559Y8D01*
X2558Y8D01*
X2557Y8D01*
X2556Y8D01*
X2555Y8D01*
X2554Y8D01*
X2553Y8D01*
X2552Y8D01*
X2551Y8D01*
X2550Y8D01*
X2549Y8D01*
X2548Y8D01*
X2547Y8D01*
X2546Y8D01*
X2545Y8D01*
X2544Y8D01*
X2543Y8D01*
X2542Y8D01*
X2541Y8D01*
X2540Y8D01*
X2539Y8D01*
X2538Y8D01*
X2537Y8D01*
X2536Y8D01*
X2535Y8D01*
X2534Y8D01*
X2533Y8D01*
X2532Y8D01*
X2531Y8D01*
X2530Y8D01*
X2529Y8D01*
X2528Y8D01*
X2527Y8D01*
X2526Y8D01*
X2525Y8D01*
X2524Y8D01*
X2523Y8D01*
X2522Y8D01*
X2521Y8D01*
X2520Y8D01*
X2519Y8D01*
X2518Y8D01*
X2517Y8D01*
X2516Y8D01*
X2515Y8D01*
X2514Y8D01*
X2513Y8D01*
X2512Y8D01*
X2511Y8D01*
X2510Y8D01*
X2509Y8D01*
X2508Y8D01*
X2507Y8D01*
X2506Y8D01*
X2505Y8D01*
X2504Y8D01*
X2503Y8D01*
X2502Y8D01*
X2501Y8D01*
X2500Y8D01*
X2499Y8D01*
X2498Y8D01*
X2497Y8D01*
X2496Y8D01*
X2495Y8D01*
X2494Y8D01*
X2493Y8D01*
X2492Y8D01*
X2491Y8D01*
X2490Y8D01*
X2489Y8D01*
X2488Y8D01*
X2487Y8D01*
X2486Y8D01*
X2485Y8D01*
X2484Y8D01*
X2483Y8D01*
X2482Y8D01*
X2481Y8D01*
X2480Y8D01*
X2479Y8D01*
X2478Y8D01*
X2477Y8D01*
X2476Y8D01*
X2475Y8D01*
X2474Y8D01*
X2473Y8D01*
X2472Y8D01*
X2471Y8D01*
X2470Y8D01*
X2469Y8D01*
X2468Y8D01*
X2467Y8D01*
X2466Y8D01*
X2465Y8D01*
X2464Y8D01*
X2463Y8D01*
X2462Y8D01*
X2461Y8D01*
X2460Y8D01*
X2459Y8D01*
X2458Y8D01*
X2457Y8D01*
X2456Y8D01*
X2455Y8D01*
X2454Y8D01*
X2453Y8D01*
X2452Y8D01*
X2451Y8D01*
X2450Y8D01*
X2449Y8D01*
X2448Y8D01*
X2447Y8D01*
X2446Y8D01*
X2445Y8D01*
X2444Y8D01*
X2443Y8D01*
X2442Y8D01*
X2441Y8D01*
X2440Y8D01*
X2439Y8D01*
X2438Y8D01*
X2437Y8D01*
X2436Y8D01*
X2435Y8D01*
X2434Y8D01*
X2433Y8D01*
X2432Y8D01*
X2431Y8D01*
X2430Y8D01*
X2429Y8D01*
X2428Y8D01*
X2427Y8D01*
X2426Y8D01*
X2425Y8D01*
X2424Y8D01*
X2423Y8D01*
X2422Y8D01*
X2421Y8D01*
X2420Y8D01*
X2419Y8D01*
X2418Y8D01*
X2417Y8D01*
X2416Y8D01*
X2415Y8D01*
X2414Y8D01*
X2413Y8D01*
X2412Y8D01*
X2411Y8D01*
X2410Y8D01*
X2409Y8D01*
X2408Y8D01*
X2407Y8D01*
X2406Y8D01*
X2405Y8D01*
X2404Y8D01*
X2403Y8D01*
X2402Y8D01*
X2401Y8D01*
X2400Y8D01*
X2399Y8D01*
X2398Y8D01*
X2397Y8D01*
X2396Y8D01*
X2395Y8D01*
X2394Y8D01*
X2393Y8D01*
X2392Y8D01*
X2391Y8D01*
X2390Y8D01*
X2389Y8D01*
X2388Y8D01*
X2387Y8D01*
X2386Y8D01*
X2385Y8D01*
X2384Y8D01*
X2383Y8D01*
X2382Y8D01*
X2381Y8D01*
X2380Y8D01*
X2379Y8D01*
X2378Y8D01*
X2377Y8D01*
X2376Y8D01*
X2375Y8D01*
X2374Y8D01*
X2373Y8D01*
X2372Y8D01*
X2371Y8D01*
X2370Y8D01*
X2369Y8D01*
X2368Y8D01*
X2367Y8D01*
X2366Y8D01*
X2365Y8D01*
X2364Y8D01*
X2363Y8D01*
X2362Y8D01*
X2361Y8D01*
X2360Y8D01*
X2359Y8D01*
X2358Y8D01*
X2357Y8D01*
X2356Y8D01*
X2355Y8D01*
X2354Y8D01*
X2353Y8D01*
X2352Y8D01*
X2351Y8D01*
X2350Y8D01*
X2349Y8D01*
X2348Y8D01*
X2347Y8D01*
X2346Y8D01*
X2345Y8D01*
X2344Y8D01*
X2343Y8D01*
X2342Y8D01*
X2341Y8D01*
X2340Y8D01*
X2339Y8D01*
X2338Y8D01*
X2337Y8D01*
X2336Y8D01*
X2335Y8D01*
X2334Y8D01*
X2333Y8D01*
X2332Y8D01*
X2331Y8D01*
X2330Y8D01*
X2329Y8D01*
X2328Y8D01*
X2327Y8D01*
X2326Y8D01*
X2325Y8D01*
X2324Y8D01*
X2323Y8D01*
X2322Y8D01*
X2321Y8D01*
X2320Y8D01*
X2319Y8D01*
X2318Y8D01*
X2317Y8D01*
X2316Y8D01*
X2315Y8D01*
X2314Y8D01*
X2313Y8D01*
X2312Y8D01*
X2311Y8D01*
X2310Y8D01*
X2309Y8D01*
X2308Y8D01*
X2307Y8D01*
X2306Y8D01*
X2305Y8D01*
X2304Y8D01*
X2303Y8D01*
X2302Y8D01*
X2301Y8D01*
X2300Y8D01*
X2299Y8D01*
X2298Y8D01*
X2297Y8D01*
X2296Y8D01*
X2295Y8D01*
X2294Y8D01*
X2293Y8D01*
X2292Y8D01*
X2291Y8D01*
X2290Y8D01*
X2289Y8D01*
X2288Y8D01*
X2287Y8D01*
X2286Y8D01*
X2285Y8D01*
X2284Y8D01*
X2283Y8D01*
X2282Y8D01*
X2281Y8D01*
X2280Y8D01*
X2279Y8D01*
X2278Y8D01*
X2277Y8D01*
X2276Y8D01*
X2275Y8D01*
X2274Y8D01*
X2273Y8D01*
X2272Y8D01*
X2271Y8D01*
X2270Y8D01*
X2269Y8D01*
X2268Y8D01*
X2267Y8D01*
X2266Y8D01*
X2265Y8D01*
X2264Y8D01*
X2263Y8D01*
X2262Y8D01*
X2261Y8D01*
X2260Y8D01*
X2259Y8D01*
X2258Y8D01*
X2257Y8D01*
X2256Y8D01*
X2255Y8D01*
X2254Y8D01*
X2253Y8D01*
X2252Y8D01*
X2251Y8D01*
X2250Y8D01*
X2249Y8D01*
X2248Y8D01*
X2247Y8D01*
X2246Y8D01*
X2245Y8D01*
X2244Y8D01*
X2243Y8D01*
X2242Y8D01*
X2241Y8D01*
X2240Y8D01*
X2239Y8D01*
X2238Y8D01*
X2237Y8D01*
X2236Y8D01*
X2235Y8D01*
X2234Y8D01*
X2233Y8D01*
X2232Y8D01*
X2231Y8D01*
X2230Y8D01*
X2229Y8D01*
X2228Y8D01*
X2227Y8D01*
X2226Y8D01*
X2225Y8D01*
X2224Y8D01*
X2223Y8D01*
X2222Y8D01*
X2221Y8D01*
X2220Y8D01*
X2219Y8D01*
X2218Y8D01*
X2217Y8D01*
X2216Y8D01*
X2215Y8D01*
X2214Y8D01*
X2213Y8D01*
X2212Y8D01*
X2211Y8D01*
X2210Y8D01*
X2209Y8D01*
X2208Y8D01*
X2207Y8D01*
X2206Y8D01*
X2205Y8D01*
X2204Y8D01*
X2203Y8D01*
X2202Y8D01*
X2201Y8D01*
X2200Y8D01*
X2199Y8D01*
X2198Y8D01*
X2197Y8D01*
X2196Y8D01*
X2195Y8D01*
X2194Y8D01*
X2193Y8D01*
X2192Y8D01*
X2191Y8D01*
X2190Y8D01*
X2189Y8D01*
X2188Y8D01*
X2187Y8D01*
X2186Y8D01*
X2185Y8D01*
X2184Y8D01*
X2183Y8D01*
X2182Y8D01*
X2181Y8D01*
X2180Y8D01*
X2179Y8D01*
X2178Y8D01*
X2177Y8D01*
X2176Y8D01*
X2175Y8D01*
X2174Y8D01*
X2173Y8D01*
X2172Y8D01*
X2171Y8D01*
X2170Y8D01*
X2169Y8D01*
X2168Y8D01*
X2167Y8D01*
X2166Y8D01*
X2165Y8D01*
X2164Y8D01*
X2163Y8D01*
X2162Y8D01*
X2161Y8D01*
X2160Y8D01*
X2159Y8D01*
X2158Y8D01*
X2157Y8D01*
X2156Y8D01*
X2155Y8D01*
X2154Y8D01*
X2153Y8D01*
X2152Y8D01*
X2151Y8D01*
X2150Y8D01*
X2149Y8D01*
X2148Y8D01*
X2147Y8D01*
X2146Y8D01*
X2145Y8D01*
X2144Y8D01*
X2143Y8D01*
X2142Y8D01*
X2141Y8D01*
X2140Y8D01*
X2139Y8D01*
X2138Y8D01*
X2137Y8D01*
X2136Y8D01*
X2135Y8D01*
X2134Y8D01*
X2133Y8D01*
X2132Y8D01*
X2131Y8D01*
X2130Y8D01*
X2129Y8D01*
X2128Y8D01*
X2127Y8D01*
X2126Y8D01*
X2125Y8D01*
X2124Y8D01*
X2123Y8D01*
X2122Y8D01*
X2121Y8D01*
X2120Y8D01*
X2119Y8D01*
X2118Y8D01*
X2117Y8D01*
X2116Y8D01*
X2115Y8D01*
X2114Y8D01*
X2113Y8D01*
X2112Y8D01*
X2111Y8D01*
X2110Y8D01*
X2109Y8D01*
X2108Y8D01*
X2107Y8D01*
X2106Y8D01*
X2105Y8D01*
X2104Y8D01*
X2103Y8D01*
X2102Y8D01*
X2101Y8D01*
X2100Y8D01*
X2099Y8D01*
X2098Y8D01*
X2097Y8D01*
X2096Y8D01*
X2095Y8D01*
X2094Y8D01*
X2093Y8D01*
X2092Y8D01*
X2091Y8D01*
X2090Y8D01*
X2089Y8D01*
X2088Y8D01*
X2087Y8D01*
X2086Y8D01*
X2085Y8D01*
X2084Y8D01*
X2083Y8D01*
X2082Y8D01*
X2081Y8D01*
X2080Y8D01*
X2079Y8D01*
X2078Y8D01*
X2077Y8D01*
X2076Y8D01*
X2075Y8D01*
X2074Y8D01*
X2073Y8D01*
X2072Y8D01*
X2071Y8D01*
X2070Y8D01*
X2069Y8D01*
X2068Y8D01*
X2067Y8D01*
X2066Y8D01*
X2065Y8D01*
X2064Y8D01*
X2063Y8D01*
X2062Y8D01*
X2061Y8D01*
X2060Y8D01*
X2059Y8D01*
X2058Y8D01*
X2057Y8D01*
X2056Y8D01*
X2055Y8D01*
X2054Y8D01*
X2053Y8D01*
X2052Y8D01*
X2051Y8D01*
X2050Y8D01*
X2049Y8D01*
X2048Y8D01*
X2047Y8D01*
X2046Y8D01*
X2045Y8D01*
X2044Y8D01*
X2043Y8D01*
X2042Y8D01*
X2041Y8D01*
X2040Y8D01*
X2039Y8D01*
X2038Y8D01*
X2037Y8D01*
X2036Y8D01*
X2035Y8D01*
X2034Y8D01*
X2033Y8D01*
X2032Y8D01*
X2031Y8D01*
X2030Y8D01*
X2029Y8D01*
X2028Y8D01*
X2027Y8D01*
X2026Y8D01*
X2025Y8D01*
X2024Y8D01*
X2023Y8D01*
X2022Y8D01*
X2021Y8D01*
X2020Y8D01*
X2019Y8D01*
X2018Y8D01*
X2017Y8D01*
X2016Y8D01*
X2015Y8D01*
X2014Y8D01*
X2013Y8D01*
X2012Y8D01*
X2011Y8D01*
X2010Y8D01*
X2009Y8D01*
X2008Y8D01*
X2007Y8D01*
X2006Y8D01*
X2005Y8D01*
X2004Y8D01*
X2003Y8D01*
X2002Y8D01*
X2001Y8D01*
X2000Y8D01*
X1999Y8D01*
X1998Y8D01*
X1997Y8D01*
X1996Y8D01*
X1995Y8D01*
X1994Y8D01*
X1993Y8D01*
X1992Y8D01*
X1991Y8D01*
X1990Y8D01*
X1989Y8D01*
X1988Y8D01*
X1987Y8D01*
X1986Y8D01*
X1985Y8D01*
X1984Y8D01*
X1983Y8D01*
X1982Y8D01*
X1981Y8D01*
X1980Y8D01*
X1979Y8D01*
X1978Y8D01*
X1977Y8D01*
X1976Y8D01*
X1975Y8D01*
X1974Y8D01*
X1973Y8D01*
X1972Y8D01*
X1971Y8D01*
X1970Y8D01*
X1969Y8D01*
X1968Y8D01*
X1967Y8D01*
X1966Y8D01*
X1965Y8D01*
X1964Y8D01*
X1963Y8D01*
X1962Y8D01*
X1961Y8D01*
X1960Y8D01*
X1959Y8D01*
X1958Y8D01*
X1957Y8D01*
X1956Y8D01*
X1955Y8D01*
X1954Y8D01*
X1953Y8D01*
X1952Y8D01*
X1951Y8D01*
X1950Y8D01*
X1949Y8D01*
X1948Y8D01*
X1947Y8D01*
X1946Y8D01*
X1945Y8D01*
X1944Y8D01*
X1943Y8D01*
X1942Y8D01*
X1941Y8D01*
X1940Y8D01*
X1939Y8D01*
X1938Y8D01*
X1937Y8D01*
X1936Y8D01*
X1935Y8D01*
X1934Y8D01*
X1933Y8D01*
X1932Y8D01*
X1931Y8D01*
X1930Y8D01*
X1929Y8D01*
X1928Y8D01*
X1927Y8D01*
X1926Y8D01*
X1925Y8D01*
X1924Y8D01*
X1923Y8D01*
X1922Y8D01*
X1921Y8D01*
X1920Y8D01*
X1919Y8D01*
X1918Y8D01*
X1917Y8D01*
X1916Y8D01*
X1915Y8D01*
X1914Y8D01*
X1913Y8D01*
X1912Y8D01*
X1911Y8D01*
X1910Y8D01*
X1909Y8D01*
X1908Y8D01*
X1907Y8D01*
X1906Y8D01*
X1905Y8D01*
X1904Y8D01*
X1903Y8D01*
X1902Y8D01*
X1901Y8D01*
X1900Y8D01*
X1899Y8D01*
X1898Y8D01*
X1897Y8D01*
X1896Y8D01*
X1895Y8D01*
X1894Y8D01*
X1893Y8D01*
X1892Y8D01*
X1891Y8D01*
X1890Y8D01*
X1889Y8D01*
X1888Y8D01*
X1887Y8D01*
X1886Y8D01*
X1885Y8D01*
X1884Y8D01*
X1883Y8D01*
X1882Y8D01*
X1881Y8D01*
X1880Y8D01*
X1879Y8D01*
X1878Y8D01*
X1877Y8D01*
X1876Y8D01*
X1875Y8D01*
X1874Y8D01*
X1873Y8D01*
X1872Y8D01*
X1871Y8D01*
X1870Y8D01*
X1869Y8D01*
X1868Y8D01*
X1867Y8D01*
X1866Y8D01*
X1865Y8D01*
X1864Y8D01*
X1863Y8D01*
X1862Y8D01*
X1861Y8D01*
X1860Y8D01*
X1859Y8D01*
X1858Y8D01*
X1857Y8D01*
X1856Y8D01*
X1855Y8D01*
X1854Y8D01*
X1853Y8D01*
X1852Y8D01*
X1851Y8D01*
X1850Y8D01*
X1849Y8D01*
X1848Y8D01*
X1847Y8D01*
X1846Y8D01*
X1845Y8D01*
X1844Y8D01*
X1843Y8D01*
X1842Y8D01*
X1841Y8D01*
X1840Y8D01*
X1839Y8D01*
X1838Y8D01*
X1837Y8D01*
X1836Y8D01*
X1835Y8D01*
X1834Y8D01*
X1833Y8D01*
X1832Y8D01*
X1831Y8D01*
X1830Y8D01*
X1829Y8D01*
X1828Y8D01*
X1827Y8D01*
X1826Y8D01*
X1825Y8D01*
X1824Y8D01*
X1823Y8D01*
X1822Y8D01*
X1821Y8D01*
X1820Y8D01*
X1819Y8D01*
X1818Y8D01*
X1817Y8D01*
X1816Y8D01*
X1815Y8D01*
X1814Y8D01*
X1813Y8D01*
X1812Y8D01*
X1811Y8D01*
X1810Y8D01*
X1809Y8D01*
X1808Y8D01*
X1807Y8D01*
X1806Y8D01*
X1805Y8D01*
X1804Y8D01*
X1803Y8D01*
X1802Y8D01*
X1801Y8D01*
X1800Y8D01*
X1799Y8D01*
X1798Y8D01*
X1797Y8D01*
X1796Y8D01*
X1795Y8D01*
X1794Y8D01*
X1793Y8D01*
X1792Y8D01*
X1791Y8D01*
X1790Y8D01*
X1789Y8D01*
X1788Y8D01*
X1787Y8D01*
X1786Y8D01*
X1785Y8D01*
X1784Y8D01*
X1783Y8D01*
X1782Y8D01*
X1781Y8D01*
X1780Y8D01*
X1779Y8D01*
X1778Y8D01*
X1777Y8D01*
X1776Y8D01*
X1775Y8D01*
X1774Y8D01*
X1773Y8D01*
X1772Y8D01*
X1771Y8D01*
X1770Y8D01*
X1769Y8D01*
X1768Y8D01*
X1767Y8D01*
X1766Y8D01*
X1765Y8D01*
X1764Y8D01*
X1763Y8D01*
X1762Y8D01*
X1761Y8D01*
X1760Y8D01*
X1759Y8D01*
X1758Y8D01*
X1757Y8D01*
X1756Y8D01*
X1755Y8D01*
X1754Y8D01*
X1753Y8D01*
X1752Y8D01*
X1751Y8D01*
X1750Y8D01*
X1749Y8D01*
X1748Y8D01*
X1747Y8D01*
X1746Y8D01*
X1745Y8D01*
X1744Y8D01*
X1743Y8D01*
X1742Y8D01*
X1741Y8D01*
X1740Y8D01*
X1739Y8D01*
X1738Y8D01*
X1737Y8D01*
X1736Y8D01*
X1735Y8D01*
X1734Y8D01*
X1733Y8D01*
X1732Y8D01*
X1731Y8D01*
X1730Y8D01*
X1729Y8D01*
X1728Y8D01*
X1727Y8D01*
X1726Y8D01*
X1725Y8D01*
X1724Y8D01*
X1723Y8D01*
X1722Y8D01*
X1721Y8D01*
X1720Y8D01*
X1719Y8D01*
X1718Y8D01*
X1717Y8D01*
X1716Y8D01*
X1715Y8D01*
X1714Y8D01*
X1713Y8D01*
X1712Y8D01*
X1711Y8D01*
X1710Y8D01*
X1709Y8D01*
X1708Y8D01*
X1707Y8D01*
X1706Y8D01*
X1705Y8D01*
X1704Y8D01*
X1703Y8D01*
X1702Y8D01*
X1701Y8D01*
X1700Y8D01*
X1699Y8D01*
X1698Y8D01*
X1697Y8D01*
X1696Y8D01*
X1695Y8D01*
X1694Y8D01*
X1693Y8D01*
X1692Y8D01*
X1691Y8D01*
X1690Y8D01*
X1689Y8D01*
X1688Y8D01*
X1687Y8D01*
X1686Y8D01*
X1685Y8D01*
X1684Y8D01*
X1683Y8D01*
X1682Y8D01*
X1681Y8D01*
X1680Y8D01*
X1679Y8D01*
X1678Y8D01*
X1677Y8D01*
X1676Y8D01*
X1675Y8D01*
X1674Y8D01*
X1673Y8D01*
X1672Y8D01*
X1671Y8D01*
X1670Y8D01*
X1669Y8D01*
X1668Y8D01*
X1667Y8D01*
X1666Y8D01*
X1665Y8D01*
X1664Y8D01*
X1663Y8D01*
X1662Y8D01*
X1661Y8D01*
X1660Y8D01*
X1659Y8D01*
X1658Y8D01*
X1657Y8D01*
X1656Y8D01*
X1655Y8D01*
X1654Y8D01*
X1653Y8D01*
X1652Y8D01*
X1651Y8D01*
X1650Y8D01*
X1649Y8D01*
X1648Y8D01*
X1647Y8D01*
X1646Y8D01*
X1645Y8D01*
X1644Y8D01*
X1643Y8D01*
X1642Y8D01*
X1641Y8D01*
X1640Y8D01*
X1639Y8D01*
X1638Y8D01*
X1637Y8D01*
X1636Y8D01*
X1635Y8D01*
X1634Y8D01*
X1633Y8D01*
X1632Y8D01*
X1631Y8D01*
X1630Y8D01*
X1629Y8D01*
X1628Y8D01*
X1627Y8D01*
X1626Y8D01*
X1625Y8D01*
X1624Y8D01*
X1623Y8D01*
X1622Y8D01*
X1621Y8D01*
X1620Y8D01*
X1619Y8D01*
X1618Y8D01*
X1617Y8D01*
X1616Y8D01*
X1615Y8D01*
X1614Y8D01*
X1613Y8D01*
X1612Y8D01*
X1611Y8D01*
X1610Y8D01*
X1609Y8D01*
X1608Y8D01*
X1607Y8D01*
X1606Y8D01*
X1605Y8D01*
X1604Y8D01*
X1603Y8D01*
X1602Y8D01*
X1601Y8D01*
X1600Y8D01*
X1599Y8D01*
X1598Y8D01*
X1597Y8D01*
X1596Y8D01*
X1595Y8D01*
X1594Y8D01*
X1593Y8D01*
X1592Y8D01*
X1591Y8D01*
X1590Y8D01*
X1589Y8D01*
X1588Y8D01*
X1587Y8D01*
X1586Y8D01*
X1585Y8D01*
X1584Y8D01*
X1583Y8D01*
X1582Y8D01*
X1581Y8D01*
X1580Y8D01*
X1579Y8D01*
X1578Y8D01*
X1577Y8D01*
X1576Y8D01*
X1575Y8D01*
X1574Y8D01*
X1573Y8D01*
X1572Y8D01*
X1571Y8D01*
X1570Y8D01*
X1569Y8D01*
X1568Y8D01*
X1567Y8D01*
X1566Y8D01*
X1565Y8D01*
X1564Y8D01*
X1563Y8D01*
X1562Y8D01*
X1561Y8D01*
X1560Y8D01*
X1559Y8D01*
X1558Y8D01*
X1557Y8D01*
X1556Y8D01*
X1555Y8D01*
X1554Y8D01*
X1553Y8D01*
X1552Y8D01*
X1551Y8D01*
X1550Y8D01*
X1549Y8D01*
X1548Y8D01*
X1547Y8D01*
X1546Y8D01*
X1545Y8D01*
X1544Y8D01*
X1543Y8D01*
X1542Y8D01*
X1541Y8D01*
X1540Y8D01*
X1539Y8D01*
X1538Y8D01*
X1537Y8D01*
X1536Y8D01*
X1535Y8D01*
X1534Y8D01*
X1533Y8D01*
X1532Y8D01*
X1531Y8D01*
X1530Y8D01*
X1529Y8D01*
X1528Y8D01*
X1527Y8D01*
X1526Y8D01*
X1525Y8D01*
X1524Y8D01*
X1523Y8D01*
X1522Y8D01*
X1521Y8D01*
X1520Y8D01*
X1519Y8D01*
X1518Y8D01*
X1517Y8D01*
X1516Y8D01*
X1515Y8D01*
X1514Y8D01*
X1513Y8D01*
X1512Y8D01*
X1511Y8D01*
X1510Y8D01*
X1509Y8D01*
X1508Y8D01*
X1507Y8D01*
X1506Y8D01*
X1505Y8D01*
X1504Y8D01*
X1503Y8D01*
X1502Y8D01*
X1501Y8D01*
X1500Y8D01*
X1499Y8D01*
X1498Y8D01*
X1497Y8D01*
X1496Y8D01*
X1495Y8D01*
X1494Y8D01*
X1493Y8D01*
X1492Y8D01*
X1491Y8D01*
X1490Y8D01*
X1489Y8D01*
X1488Y8D01*
X1487Y8D01*
X1486Y8D01*
X1485Y8D01*
X1484Y8D01*
X1483Y8D01*
X1482Y8D01*
X1481Y8D01*
X1480Y8D01*
X1479Y8D01*
X1478Y8D01*
X1477Y8D01*
X1476Y8D01*
X1475Y8D01*
X1474Y8D01*
X1473Y8D01*
X1472Y8D01*
X1471Y8D01*
X1470Y8D01*
X1469Y8D01*
X1468Y8D01*
X1467Y8D01*
X1466Y8D01*
X1465Y8D01*
X1464Y8D01*
X1463Y8D01*
X1462Y8D01*
X1461Y8D01*
X1460Y8D01*
X1459Y8D01*
X1458Y8D01*
X1457Y8D01*
X1456Y8D01*
X1455Y8D01*
X1454Y8D01*
X1453Y8D01*
X1452Y8D01*
X1451Y8D01*
X1450Y8D01*
X1449Y8D01*
X1448Y8D01*
X1447Y8D01*
X1446Y8D01*
X1445Y8D01*
X1444Y8D01*
X1443Y8D01*
X1442Y8D01*
X1441Y8D01*
X1440Y8D01*
X1439Y8D01*
X1438Y8D01*
X1437Y8D01*
X1436Y8D01*
X1435Y8D01*
X1434Y8D01*
X1433Y8D01*
X1432Y8D01*
X1431Y8D01*
X1430Y8D01*
X1429Y8D01*
X1428Y8D01*
X1427Y8D01*
X1426Y8D01*
X1425Y8D01*
X1424Y8D01*
X1423Y8D01*
X1422Y8D01*
X1421Y8D01*
X1420Y8D01*
X1419Y8D01*
X1418Y8D01*
X1417Y8D01*
X1416Y8D01*
X1415Y8D01*
X1414Y8D01*
X1413Y8D01*
X1412Y8D01*
X1411Y8D01*
X1410Y8D01*
X1409Y8D01*
X1408Y8D01*
X1407Y8D01*
X1406Y8D01*
X1405Y8D01*
X1404Y8D01*
X1403Y8D01*
X1402Y8D01*
X1401Y8D01*
X1400Y8D01*
X1399Y8D01*
X1398Y8D01*
X1397Y8D01*
X1396Y8D01*
X1395Y8D01*
X1394Y8D01*
X1393Y8D01*
X1392Y8D01*
X1391Y8D01*
X1390Y8D01*
X1389Y8D01*
X1388Y8D01*
X1387Y8D01*
X1386Y8D01*
X1385Y8D01*
X1384Y8D01*
X1383Y8D01*
X1382Y8D01*
X1381Y8D01*
X1380Y8D01*
X1379Y8D01*
X1378Y8D01*
X1377Y8D01*
X1376Y8D01*
X1375Y8D01*
X1374Y8D01*
X1373Y8D01*
X1372Y8D01*
X1371Y8D01*
X1370Y8D01*
X1369Y8D01*
X1368Y8D01*
X1367Y8D01*
X1366Y8D01*
X1365Y8D01*
X1364Y8D01*
X1363Y8D01*
X1362Y8D01*
X1361Y8D01*
X1360Y8D01*
X1359Y8D01*
X1358Y8D01*
X1357Y8D01*
X1356Y8D01*
X1355Y8D01*
X1354Y8D01*
X1353Y8D01*
X1352Y8D01*
X1351Y8D01*
X1350Y8D01*
X1349Y8D01*
X1348Y8D01*
X1347Y8D01*
X1346Y8D01*
X1345Y8D01*
X1344Y8D01*
X1343Y8D01*
X1342Y8D01*
X1341Y8D01*
X1340Y8D01*
X1339Y8D01*
X1338Y8D01*
X1337Y8D01*
X1336Y8D01*
X1335Y8D01*
X1334Y8D01*
X1333Y8D01*
X1332Y8D01*
X1331Y8D01*
X1330Y8D01*
X1329Y8D01*
X1328Y8D01*
X1327Y8D01*
X1326Y8D01*
X1325Y8D01*
X1324Y8D01*
X1323Y8D01*
X1322Y8D01*
X1321Y8D01*
X1320Y8D01*
X1319Y8D01*
X1318Y8D01*
X1317Y8D01*
X1316Y8D01*
X1315Y8D01*
X1314Y8D01*
X1313Y8D01*
X1312Y8D01*
X1311Y8D01*
X1310Y8D01*
X1309Y8D01*
X1308Y8D01*
X1307Y8D01*
X1306Y8D01*
X1305Y8D01*
X1304Y8D01*
X1303Y8D01*
X1302Y8D01*
X1301Y8D01*
X1300Y8D01*
X1299Y8D01*
X1298Y8D01*
X1297Y8D01*
X1296Y8D01*
X1295Y8D01*
X1294Y8D01*
X1293Y8D01*
X1292Y8D01*
X1291Y8D01*
X1290Y8D01*
X1289Y8D01*
X1288Y8D01*
X1287Y8D01*
X1286Y8D01*
X1285Y8D01*
X1284Y8D01*
X1283Y8D01*
X1282Y8D01*
X1281Y8D01*
X1280Y8D01*
X1279Y8D01*
X1278Y8D01*
X1277Y8D01*
X1276Y8D01*
X1275Y8D01*
X1274Y8D01*
X1273Y8D01*
X1272Y8D01*
X1271Y8D01*
X1270Y8D01*
X1269Y8D01*
X1268Y8D01*
X1267Y8D01*
X1266Y8D01*
X1265Y8D01*
X1264Y8D01*
X1263Y8D01*
X1262Y8D01*
X1261Y8D01*
X1260Y8D01*
X1259Y8D01*
X1258Y8D01*
X1257Y8D01*
X1256Y8D01*
X1255Y8D01*
X1254Y8D01*
X1253Y8D01*
X1252Y8D01*
X1251Y8D01*
X1250Y8D01*
X1249Y8D01*
X1248Y8D01*
X1247Y8D01*
X1246Y8D01*
X1245Y8D01*
X1244Y8D01*
X1243Y8D01*
X1242Y8D01*
X1241Y8D01*
X1240Y8D01*
X1239Y8D01*
X1238Y8D01*
X1237Y8D01*
X1236Y8D01*
X1235Y8D01*
X1234Y8D01*
X1233Y8D01*
X1232Y8D01*
X1231Y8D01*
X1230Y8D01*
X1229Y8D01*
X1228Y8D01*
X1227Y8D01*
X1226Y8D01*
X1225Y8D01*
X1224Y8D01*
X1223Y8D01*
X1222Y8D01*
X1221Y8D01*
X1220Y8D01*
X1219Y8D01*
X1218Y8D01*
X1217Y8D01*
X1216Y8D01*
X1215Y8D01*
X1214Y8D01*
X1213Y8D01*
X1212Y8D01*
X1211Y8D01*
X1210Y8D01*
X1209Y8D01*
X1208Y8D01*
X1207Y8D01*
X1206Y8D01*
X1205Y8D01*
X1204Y8D01*
X1203Y8D01*
X1202Y8D01*
X1201Y8D01*
X1200Y8D01*
X1199Y8D01*
X1198Y8D01*
X1197Y8D01*
X1196Y8D01*
X1195Y8D01*
X1194Y8D01*
X1193Y8D01*
X1192Y8D01*
X1191Y8D01*
X1190Y8D01*
X1189Y8D01*
X1188Y8D01*
X1187Y8D01*
X1186Y8D01*
X1185Y8D01*
X1184Y8D01*
X1183Y8D01*
X1182Y8D01*
X1181Y8D01*
X1180Y8D01*
X1179Y8D01*
X1178Y8D01*
X1177Y8D01*
X1176Y8D01*
X1175Y8D01*
X1174Y8D01*
X1173Y8D01*
X1172Y8D01*
X1171Y8D01*
X1170Y8D01*
X1169Y8D01*
X1168Y8D01*
X1167Y8D01*
X1166Y8D01*
X1165Y8D01*
X1164Y8D01*
X1163Y8D01*
X1162Y8D01*
X1161Y8D01*
X1160Y8D01*
X1159Y8D01*
X1158Y8D01*
X1157Y8D01*
X1156Y8D01*
X1155Y8D01*
X1154Y8D01*
X1153Y8D01*
X1152Y8D01*
X1151Y8D01*
X1150Y8D01*
X1149Y8D01*
X1148Y8D01*
X1147Y8D01*
X1146Y8D01*
X1145Y8D01*
X1144Y8D01*
X1143Y8D01*
X1142Y8D01*
X1141Y8D01*
X1140Y8D01*
X1139Y8D01*
X1138Y8D01*
X1137Y8D01*
X1136Y8D01*
X1135Y8D01*
X1134Y8D01*
X1133Y8D01*
X1132Y8D01*
X1131Y8D01*
X1130Y8D01*
X1129Y8D01*
X1128Y8D01*
X1127Y8D01*
X1126Y8D01*
X1125Y8D01*
X1124Y8D01*
X1123Y8D01*
X1122Y8D01*
X1121Y8D01*
X1120Y8D01*
X1119Y8D01*
X1118Y8D01*
X1117Y8D01*
X1116Y8D01*
X1115Y8D01*
X1114Y8D01*
X1113Y8D01*
X1112Y8D01*
X1111Y8D01*
X1110Y8D01*
X1109Y8D01*
X1108Y8D01*
X1107Y8D01*
X1106Y8D01*
X1105Y8D01*
X1104Y8D01*
X1103Y8D01*
X1102Y8D01*
X1101Y8D01*
X1100Y8D01*
X1099Y8D01*
X1098Y8D01*
X1097Y8D01*
X1096Y8D01*
X1095Y8D01*
X1094Y8D01*
X1093Y8D01*
X1092Y8D01*
X1091Y8D01*
X1090Y8D01*
X1089Y8D01*
X1088Y8D01*
X1087Y8D01*
X1086Y8D01*
X1085Y8D01*
X1084Y8D01*
X1083Y8D01*
X1082Y8D01*
X1081Y8D01*
X1080Y8D01*
X1079Y8D01*
X1078Y8D01*
X1077Y8D01*
X1076Y8D01*
X1075Y8D01*
X1074Y8D01*
X1073Y8D01*
X1072Y8D01*
X1071Y8D01*
X1070Y8D01*
X1069Y8D01*
X1068Y8D01*
X1067Y8D01*
X1066Y8D01*
X1065Y8D01*
X1064Y8D01*
X1063Y8D01*
X1062Y8D01*
X1061Y8D01*
X1060Y8D01*
X1059Y8D01*
X1058Y8D01*
X1057Y8D01*
X1056Y8D01*
X1055Y8D01*
X1054Y8D01*
X1053Y8D01*
X1052Y8D01*
X1051Y8D01*
X1050Y8D01*
X1049Y8D01*
X1048Y8D01*
X1047Y8D01*
X1046Y8D01*
X1045Y8D01*
X1044Y8D01*
X1043Y8D01*
X1042Y8D01*
X1041Y8D01*
X1040Y8D01*
X1039Y8D01*
X1038Y8D01*
X1037Y8D01*
X1036Y8D01*
X1035Y8D01*
X1034Y8D01*
X1033Y8D01*
X1032Y8D01*
X1031Y8D01*
X1030Y8D01*
X1029Y8D01*
X1028Y8D01*
X1027Y8D01*
X1026Y8D01*
X1025Y8D01*
X1024Y8D01*
X1023Y8D01*
X1022Y8D01*
X1021Y8D01*
X1020Y8D01*
X1019Y8D01*
X1018Y8D01*
X1017Y8D01*
X1016Y8D01*
X1015Y8D01*
X1014Y8D01*
X1013Y8D01*
X1012Y8D01*
X1011Y8D01*
X1010Y8D01*
X1009Y8D01*
X1008Y8D01*
X1007Y8D01*
X1006Y8D01*
X1005Y8D01*
X1004Y8D01*
X1003Y8D01*
X1002Y8D01*
X1001Y8D01*
X1000Y8D01*
X999Y8D01*
X998Y8D01*
X997Y8D01*
X996Y8D01*
X995Y8D01*
X994Y8D01*
X993Y8D01*
X992Y8D01*
X991Y8D01*
X990Y8D01*
X989Y8D01*
X988Y8D01*
X987Y8D01*
X986Y8D01*
X985Y8D01*
X984Y8D01*
X983Y8D01*
X982Y8D01*
X981Y8D01*
X980Y8D01*
X979Y8D01*
X978Y8D01*
X977Y8D01*
X976Y8D01*
X975Y8D01*
X974Y8D01*
X973Y8D01*
X972Y8D01*
X971Y8D01*
X970Y8D01*
X969Y8D01*
X968Y8D01*
X967Y8D01*
X966Y8D01*
X965Y8D01*
X964Y8D01*
X963Y8D01*
X962Y8D01*
X961Y8D01*
X960Y8D01*
X959Y8D01*
X958Y8D01*
X957Y8D01*
X956Y8D01*
X955Y8D01*
X954Y8D01*
X953Y8D01*
X952Y8D01*
X951Y8D01*
X950Y8D01*
X949Y8D01*
X948Y8D01*
X947Y8D01*
X946Y8D01*
X945Y8D01*
X944Y8D01*
X943Y8D01*
X942Y8D01*
X941Y8D01*
X940Y8D01*
X939Y8D01*
X938Y8D01*
X937Y8D01*
X936Y8D01*
X935Y8D01*
X934Y8D01*
X933Y8D01*
X932Y8D01*
X931Y8D01*
X930Y8D01*
X929Y8D01*
X928Y8D01*
X927Y8D01*
X926Y8D01*
X925Y8D01*
X924Y8D01*
X923Y8D01*
X922Y8D01*
X921Y8D01*
X920Y8D01*
X919Y8D01*
X918Y8D01*
X917Y8D01*
X916Y8D01*
X915Y8D01*
X914Y8D01*
X913Y8D01*
X912Y8D01*
X911Y8D01*
X910Y8D01*
X909Y8D01*
X908Y8D01*
X907Y8D01*
X906Y8D01*
X905Y8D01*
X904Y8D01*
X903Y8D01*
X902Y8D01*
X901Y8D01*
X900Y8D01*
X899Y8D01*
X898Y8D01*
X897Y8D01*
X896Y8D01*
X895Y8D01*
X894Y8D01*
X893Y8D01*
X892Y8D01*
X891Y8D01*
X890Y8D01*
X889Y8D01*
X888Y8D01*
X887Y8D01*
X886Y8D01*
X885Y8D01*
X884Y8D01*
X883Y8D01*
X882Y8D01*
X881Y8D01*
X880Y8D01*
X879Y8D01*
X878Y8D01*
X877Y8D01*
X876Y8D01*
X875Y8D01*
X874Y8D01*
X873Y8D01*
X872Y8D01*
X871Y8D01*
X870Y8D01*
X869Y8D01*
X868Y8D01*
X867Y8D01*
X866Y8D01*
X865Y8D01*
X864Y8D01*
X863Y8D01*
X862Y8D01*
X861Y8D01*
X860Y8D01*
X859Y8D01*
X858Y8D01*
X857Y8D01*
X856Y8D01*
X855Y8D01*
X854Y8D01*
X853Y8D01*
X852Y8D01*
X851Y8D01*
X850Y8D01*
X849Y8D01*
X848Y8D01*
X847Y8D01*
X846Y8D01*
X845Y8D01*
X844Y8D01*
X843Y8D01*
X842Y8D01*
X841Y8D01*
X840Y8D01*
X839Y8D01*
X838Y8D01*
X837Y8D01*
X836Y8D01*
X835Y8D01*
X834Y8D01*
X833Y8D01*
X832Y8D01*
X831Y8D01*
X830Y8D01*
X829Y8D01*
X828Y8D01*
X827Y8D01*
X826Y8D01*
X825Y8D01*
X824Y8D01*
X823Y8D01*
X822Y8D01*
X821Y8D01*
X820Y8D01*
X819Y8D01*
X818Y8D01*
X817Y8D01*
X816Y8D01*
X815Y8D01*
X814Y8D01*
X813Y8D01*
X812Y8D01*
X811Y8D01*
X810Y8D01*
X809Y8D01*
X808Y8D01*
X807Y8D01*
X806Y8D01*
X805Y8D01*
X804Y8D01*
X803Y8D01*
X802Y8D01*
X801Y8D01*
X800Y8D01*
X799Y8D01*
X798Y8D01*
X797Y8D01*
X796Y8D01*
X795Y8D01*
X794Y8D01*
X793Y8D01*
X792Y8D01*
X791Y8D01*
X790Y8D01*
X789Y8D01*
X788Y8D01*
X787Y8D01*
X786Y8D01*
X785Y8D01*
X784Y8D01*
X783Y8D01*
X782Y8D01*
X781Y8D01*
X780Y8D01*
X779Y8D01*
X778Y8D01*
X777Y8D01*
X776Y8D01*
X775Y8D01*
X774Y8D01*
X773Y8D01*
X772Y8D01*
X771Y8D01*
X770Y8D01*
X769Y8D01*
X768Y8D01*
X767Y8D01*
X766Y8D01*
X765Y8D01*
X764Y8D01*
X763Y8D01*
X762Y8D01*
X761Y8D01*
X760Y8D01*
X759Y8D01*
X758Y8D01*
X757Y8D01*
X756Y8D01*
X755Y8D01*
X754Y8D01*
X753Y8D01*
X752Y8D01*
X751Y8D01*
X750Y8D01*
X749Y8D01*
X748Y8D01*
X747Y8D01*
X746Y8D01*
X745Y8D01*
X744Y8D01*
X743Y8D01*
X742Y8D01*
X741Y8D01*
X740Y8D01*
X739Y8D01*
X738Y8D01*
X737Y8D01*
X736Y8D01*
X735Y8D01*
X734Y8D01*
X733Y8D01*
X732Y8D01*
X731Y8D01*
X730Y8D01*
X729Y8D01*
X728Y8D01*
X727Y8D01*
X726Y8D01*
X725Y8D01*
X724Y8D01*
X723Y8D01*
X722Y8D01*
X721Y8D01*
X720Y8D01*
X719Y8D01*
X718Y8D01*
X717Y8D01*
X716Y8D01*
X715Y8D01*
X714Y8D01*
X713Y8D01*
X712Y8D01*
X711Y8D01*
X710Y8D01*
X709Y8D01*
X708Y8D01*
X707Y8D01*
X706Y8D01*
X705Y8D01*
X704Y8D01*
X703Y8D01*
X702Y8D01*
X701Y8D01*
X700Y8D01*
X699Y8D01*
X698Y8D01*
X697Y8D01*
X696Y8D01*
X695Y8D01*
X694Y8D01*
X693Y8D01*
X692Y8D01*
X691Y8D01*
X690Y8D01*
X689Y8D01*
X688Y8D01*
X687Y8D01*
X686Y8D01*
X685Y8D01*
X684Y8D01*
X683Y8D01*
X682Y8D01*
X681Y8D01*
X680Y8D01*
X679Y8D01*
X678Y8D01*
X677Y8D01*
X676Y8D01*
X675Y8D01*
X674Y8D01*
X673Y8D01*
X672Y8D01*
X671Y8D01*
X670Y8D01*
X669Y8D01*
X668Y8D01*
X667Y8D01*
X666Y8D01*
X665Y8D01*
X664Y8D01*
X663Y8D01*
X662Y8D01*
X661Y8D01*
X660Y8D01*
X659Y8D01*
X658Y8D01*
X657Y8D01*
X656Y8D01*
X655Y8D01*
X654Y8D01*
X653Y8D01*
X652Y8D01*
X651Y8D01*
X650Y8D01*
X649Y8D01*
X648Y8D01*
X647Y8D01*
X646Y8D01*
X645Y8D01*
X644Y8D01*
X643Y8D01*
X642Y8D01*
X641Y8D01*
X640Y8D01*
X639Y8D01*
X638Y8D01*
X637Y8D01*
X636Y8D01*
X635Y8D01*
X634Y8D01*
X633Y8D01*
X632Y8D01*
X631Y8D01*
X630Y8D01*
X629Y8D01*
X628Y8D01*
X627Y8D01*
X626Y8D01*
X625Y8D01*
X624Y8D01*
X623Y8D01*
X622Y8D01*
X621Y8D01*
X620Y8D01*
X619Y8D01*
X618Y8D01*
X617Y8D01*
X616Y8D01*
X615Y8D01*
X614Y8D01*
X613Y8D01*
X612Y8D01*
X611Y8D01*
X610Y8D01*
X609Y8D01*
X608Y8D01*
X607Y8D01*
X606Y8D01*
X605Y8D01*
X604Y8D01*
X603Y8D01*
X602Y8D01*
X601Y8D01*
X600Y8D01*
X599Y8D01*
X598Y8D01*
X597Y8D01*
X596Y8D01*
X595Y8D01*
X594Y8D01*
X593Y8D01*
X592Y8D01*
X591Y8D01*
X590Y8D01*
X589Y8D01*
X588Y8D01*
X587Y8D01*
X586Y8D01*
X585Y8D01*
X584Y8D01*
X583Y8D01*
X582Y8D01*
X581Y8D01*
X580Y8D01*
X579Y8D01*
X578Y8D01*
X577Y8D01*
X576Y8D01*
X575Y8D01*
X574Y8D01*
X573Y8D01*
X572Y8D01*
X571Y8D01*
X570Y8D01*
X569Y8D01*
X568Y8D01*
X567Y8D01*
X566Y8D01*
X565Y8D01*
X564Y8D01*
X563Y8D01*
X562Y8D01*
X561Y8D01*
X560Y8D01*
X559Y8D01*
X558Y8D01*
X557Y8D01*
X556Y8D01*
X555Y8D01*
X554Y8D01*
X553Y8D01*
X552Y8D01*
X551Y8D01*
X550Y8D01*
X549Y8D01*
X548Y8D01*
X547Y8D01*
X546Y8D01*
X545Y8D01*
X544Y8D01*
X543Y8D01*
X542Y8D01*
X541Y8D01*
X540Y8D01*
X539Y8D01*
X538Y8D01*
X537Y8D01*
X536Y8D01*
X535Y8D01*
X534Y8D01*
X533Y8D01*
X532Y8D01*
X531Y8D01*
X530Y8D01*
X529Y8D01*
X528Y8D01*
X527Y8D01*
X526Y8D01*
X525Y8D01*
X524Y8D01*
X523Y8D01*
X522Y8D01*
X521Y8D01*
X520Y8D01*
X519Y8D01*
X518Y8D01*
X517Y8D01*
X516Y8D01*
X515Y8D01*
X514Y8D01*
X513Y8D01*
X512Y8D01*
X511Y8D01*
X510Y8D01*
X509Y8D01*
X508Y8D01*
X507Y8D01*
X506Y8D01*
X505Y8D01*
X504Y8D01*
X503Y8D01*
X502Y8D01*
X501Y8D01*
X500Y8D01*
X499Y8D01*
X498Y8D01*
X497Y8D01*
X496Y8D01*
X495Y8D01*
X494Y8D01*
X493Y8D01*
X492Y8D01*
X491Y8D01*
X490Y8D01*
X489Y8D01*
X488Y8D01*
X487Y8D01*
X486Y8D01*
X485Y8D01*
X484Y8D01*
X483Y8D01*
X482Y8D01*
X481Y8D01*
X480Y8D01*
X479Y8D01*
X478Y8D01*
X477Y8D01*
X476Y8D01*
X475Y8D01*
X474Y8D01*
X473Y8D01*
X472Y8D01*
X471Y8D01*
X470Y8D01*
X469Y8D01*
X468Y8D01*
X467Y8D01*
X466Y8D01*
X465Y8D01*
X464Y8D01*
X463Y8D01*
X462Y8D01*
X461Y8D01*
X460Y8D01*
X459Y8D01*
X458Y8D01*
X457Y8D01*
X456Y8D01*
X455Y8D01*
X454Y8D01*
X453Y8D01*
X452Y8D01*
X451Y8D01*
X450Y8D01*
X449Y8D01*
X448Y8D01*
X447Y8D01*
X446Y8D01*
X445Y8D01*
X444Y8D01*
X443Y8D01*
X442Y8D01*
X441Y8D01*
X440Y8D01*
X439Y8D01*
X438Y8D01*
X437Y8D01*
X436Y8D01*
X435Y8D01*
X434Y8D01*
X433Y8D01*
X432Y8D01*
X431Y8D01*
X430Y8D01*
X429Y8D01*
X428Y8D01*
X427Y8D01*
X426Y8D01*
X425Y8D01*
X424Y8D01*
X423Y8D01*
X422Y8D01*
X421Y8D01*
X420Y8D01*
X419Y8D01*
X418Y8D01*
X417Y8D01*
X416Y8D01*
X415Y8D01*
X414Y8D01*
X413Y8D01*
X412Y8D01*
X411Y8D01*
X410Y8D01*
X409Y8D01*
X408Y8D01*
X407Y8D01*
X406Y8D01*
X405Y8D01*
X404Y8D01*
X403Y8D01*
X402Y8D01*
X401Y8D01*
X400Y8D01*
X399Y8D01*
X398Y8D01*
X397Y8D01*
X396Y8D01*
X395Y8D01*
X394Y8D01*
X393Y8D01*
X392Y8D01*
X391Y8D01*
X390Y8D01*
X389Y8D01*
X388Y8D01*
X387Y8D01*
X386Y8D01*
X385Y8D01*
X384Y8D01*
X383Y8D01*
X382Y8D01*
X381Y8D01*
X380Y8D01*
X379Y8D01*
X378Y8D01*
X377Y8D01*
X376Y8D01*
X375Y8D01*
X374Y8D01*
X373Y8D01*
X372Y8D01*
X371Y8D01*
X370Y8D01*
X369Y8D01*
X368Y8D01*
X367Y8D01*
X366Y8D01*
X365Y8D01*
X364Y8D01*
X363Y8D01*
X362Y8D01*
X361Y8D01*
X360Y8D01*
X359Y8D01*
X358Y8D01*
X357Y8D01*
X356Y8D01*
X355Y8D01*
X354Y8D01*
X353Y8D01*
X352Y8D01*
X351Y8D01*
X350Y8D01*
X349Y8D01*
X348Y8D01*
X347Y8D01*
X346Y8D01*
X345Y8D01*
X344Y8D01*
X343Y8D01*
X342Y8D01*
X341Y8D01*
X340Y8D01*
X339Y8D01*
X338Y8D01*
X337Y8D01*
X336Y8D01*
X335Y8D01*
X334Y8D01*
X333Y8D01*
X332Y8D01*
X331Y8D01*
X330Y8D01*
X329Y8D01*
X328Y8D01*
X327Y8D01*
X326Y8D01*
X325Y8D01*
X324Y8D01*
X323Y8D01*
X322Y8D01*
X321Y8D01*
X320Y8D01*
X319Y8D01*
X318Y8D01*
X317Y8D01*
X316Y8D01*
X315Y8D01*
X314Y8D01*
X313Y8D01*
X312Y8D01*
X311Y8D01*
X310Y8D01*
X309Y8D01*
X308Y8D01*
X307Y8D01*
X306Y8D01*
X305Y8D01*
X304Y8D01*
X303Y8D01*
X302Y8D01*
X301Y8D01*
X300Y8D01*
X299Y8D01*
X298Y8D01*
X297Y8D01*
X296Y8D01*
X295Y8D01*
X294Y8D01*
X293Y8D01*
X292Y8D01*
X291Y8D01*
X290Y8D01*
X289Y8D01*
X288Y8D01*
X287Y8D01*
X286Y8D01*
X285Y8D01*
X284Y8D01*
X283Y8D01*
X282Y8D01*
X281Y8D01*
X280Y8D01*
X279Y8D01*
X278Y8D01*
X277Y8D01*
X276Y8D01*
X275Y8D01*
X274Y8D01*
X273Y8D01*
X272Y8D01*
X271Y8D01*
X270Y8D01*
X269Y8D01*
X268Y8D01*
X267Y8D01*
X266Y8D01*
X265Y8D01*
X264Y8D01*
X263Y8D01*
X262Y8D01*
X261Y8D01*
X260Y8D01*
X259Y8D01*
X258Y8D01*
X257Y8D01*
X256Y8D01*
X255Y8D01*
X254Y8D01*
X253Y8D01*
X252Y8D01*
X251Y8D01*
X250Y8D01*
X249Y8D01*
X248Y8D01*
X247Y8D01*
X246Y8D01*
X245Y8D01*
X244Y8D01*
X243Y8D01*
X242Y8D01*
X241Y8D01*
X240Y8D01*
X239Y8D01*
X238Y8D01*
X237Y8D01*
X236Y8D01*
X235Y8D01*
X234Y8D01*
X233Y8D01*
X232Y8D01*
X231Y8D01*
X230Y8D01*
X229Y8D01*
X228Y8D01*
X227Y8D01*
X226Y8D01*
X225Y8D01*
X224Y8D01*
X223Y8D01*
X222Y8D01*
X221Y8D01*
X220Y8D01*
X219Y8D01*
X218Y8D01*
X217Y8D01*
X216Y8D01*
X215Y8D01*
X214Y8D01*
X213Y8D01*
X212Y8D01*
X211Y8D01*
X210Y8D01*
X209Y8D01*
X208Y8D01*
X207Y8D01*
X206Y8D01*
X205Y8D01*
X204Y8D01*
X203Y8D01*
X202Y8D01*
X201Y8D01*
X200Y8D01*
X199Y8D01*
X198Y8D01*
X197Y8D01*
X196Y8D01*
X195Y8D01*
X194Y8D01*
X193Y8D01*
X192Y8D01*
X191Y8D01*
X190Y8D01*
X189Y8D01*
X188Y8D01*
X187Y8D01*
X186Y8D01*
X185Y8D01*
X184Y8D01*
X183Y8D01*
X182Y8D01*
X181Y8D01*
X180Y8D01*
X179Y8D01*
X178Y8D01*
X177Y8D01*
X176Y8D01*
X175Y8D01*
X174Y8D01*
X173Y8D01*
X172Y8D01*
X171Y8D01*
X170Y8D01*
X169Y8D01*
X168Y8D01*
X167Y8D01*
X166Y8D01*
X165Y8D01*
X164Y8D01*
X163Y8D01*
X162Y8D01*
X161Y8D01*
X160Y8D01*
X159Y8D01*
X158Y8D01*
X157Y8D01*
X156Y8D01*
X155Y8D01*
X154Y8D01*
X153Y8D01*
X152Y8D01*
X151Y8D01*
X150Y8D01*
X149Y8D01*
X148Y8D01*
X147Y8D01*
X146Y8D01*
X145Y8D01*
X144Y8D01*
X143Y8D01*
X142Y8D01*
X141Y8D01*
X140Y8D01*
X139Y8D01*
X138Y8D01*
X137Y8D01*
X136Y8D01*
X135Y8D01*
X134Y8D01*
X133Y8D01*
X132Y8D01*
X131Y8D01*
X130Y8D01*
X129Y8D01*
X128Y8D01*
X127Y8D01*
X126Y8D01*
X125Y8D01*
X124Y8D01*
X123Y8D01*
X122Y8D01*
X121Y8D01*
X120Y8D01*
X119Y8D01*
X118Y8D01*
X117Y8D01*
X116Y8D01*
X115Y8D01*
X114Y8D01*
X113Y8D01*
X112Y8D01*
X111Y8D01*
X110Y8D01*
X109Y8D01*
X108Y8D01*
X107Y8D01*
X106Y8D01*
X105Y8D01*
X104Y8D01*
X103Y8D01*
X102Y8D01*
X101Y8D01*
X100Y8D01*
X99Y8D01*
X98Y8D01*
X97Y8D01*
X96Y8D01*
X95Y8D01*
X94Y8D01*
X93Y8D01*
X92Y8D01*
X91Y8D01*
X90Y8D01*
X89Y8D01*
X88Y8D01*
X87Y8D01*
X86Y8D01*
X85Y8D01*
X84Y8D01*
X83Y8D01*
X82Y8D01*
X81Y8D01*
X80Y8D01*
X79Y8D01*
X78Y8D01*
X77Y8D01*
X76Y8D01*
X75Y8D01*
X74Y8D01*
X73Y8D01*
X72Y8D01*
X71Y8D01*
X70Y8D01*
X69Y8D01*
X68Y8D01*
X67Y8D01*
X66Y8D01*
X65Y8D01*
X64Y8D01*
X63Y8D01*
X62Y8D01*
X61Y8D01*
X60Y8D01*
X59Y8D01*
X58Y8D01*
X57Y8D01*
X56Y8D01*
X55Y8D01*
X54Y8D01*
X53Y8D01*
X52Y8D01*
X51Y8D01*
X50Y9D01*
X49Y9D01*
X48Y9D01*
X47Y9D01*
X46Y9D01*
X45Y9D01*
X44Y9D01*
X43Y10D01*
X42Y10D01*
X41Y10D01*
X40Y10D01*
X39Y11D01*
X38Y11D01*
X37Y11D01*
X36Y12D01*
X35Y12D01*
X34Y12D01*
X33Y13D01*
X32Y13D01*
X31Y13D01*
X30Y14D01*
X29Y14D01*
X28Y15D01*
X27Y15D01*
X26Y16D01*
X25Y16D01*
X24Y17D01*
X23Y18D01*
X22Y18D01*
X21Y19D01*
X20Y20D01*
X19Y20D01*
X18Y21D01*
X17Y22D01*
X16Y23D01*
X15Y24D01*
X14Y25D01*
X13Y26D01*
X13Y27D01*
X12Y28D01*
X11Y29D01*
X11Y30D01*
X10Y31D01*
X9Y32D01*
X9Y34D01*
X8Y35D01*
X8Y37D01*
X7Y38D01*
X7Y2069D01*
X8Y2070D01*
X8Y2072D01*
X9Y2073D01*
X9Y2074D01*
X10Y2075D01*
X10Y2076D01*
X11Y2077D01*
X11Y2078D01*
X12Y2079D01*
X13Y2080D01*
X13Y2081D01*
X14Y2082D01*
X15Y2083D01*
X16Y2084D01*
X17Y2085D01*
X18Y2086D01*
X19Y2087D01*
X20Y2087D01*
X21Y2088D01*
X22Y2089D01*
X23Y2089D01*
X24Y2090D01*
X25Y2091D01*
X26Y2091D01*
X27Y2092D01*
X28Y2092D01*
X29Y2093D01*
X30Y2093D01*
X31Y2094D01*
X32Y2094D01*
X33Y2094D01*
X34Y2095D01*
X35Y2095D01*
X36Y2095D01*
X37Y2096D01*
X38Y2096D01*
X39Y2096D01*
X40Y2097D01*
X41Y2097D01*
X42Y2097D01*
X43Y2097D01*
X44Y2098D01*
X45Y2098D01*
X46Y2098D01*
X47Y2098D01*
X48Y2098D01*
X49Y2098D01*
X50Y2098D01*
X51Y2099D01*
D02*
G04 End of contour*
M02*